<svg width="62" height="62" viewBox="0 0 62 62" fill="none" xmlns="http://www.w3.org/2000/svg">
<circle cx="31" cy="31" r="31" fill="#1E5656"/>
<path d="M24.817 18C22.289 18 20.2321 20.0568 20.2321 22.5848V37.75H32.5759C34.3259 37.75 35.75 39.1741 35.75 40.9241V42.6875C35.75 43.8513 36.694 44.7965 37.8564 44.8022H37.8757C39.0332 44.7965 39.973 43.8581 39.9808 42.7013C39.9815 42.3274 39.9821 20.1161 39.9821 20.1161C39.9821 19.319 40.2575 18.5911 40.7054 18H24.817ZM43.5089 18C42.3423 18 41.3929 18.9494 41.3929 20.1161V24.3482H43.8616C44.8343 24.3482 45.625 23.5575 45.625 22.5848V20.1161C45.625 18.9494 44.6756 18 43.5089 18ZM25.5223 22.9375H34.692C35.276 22.9375 35.75 23.4115 35.75 23.9955C35.75 24.5796 35.276 25.0536 34.692 25.0536H25.5223C24.9383 25.0536 24.4643 24.5796 24.4643 23.9955C24.4643 23.4115 24.9383 22.9375 25.5223 22.9375ZM25.5223 27.875H34.692C35.276 27.875 35.75 28.349 35.75 28.933C35.75 29.5171 35.276 29.9911 34.692 29.9911H25.5223C24.9383 29.9911 24.4643 29.5171 24.4643 28.933C24.4643 28.349 24.9383 27.875 25.5223 27.875ZM25.5223 32.8125H33.2812C33.8653 32.8125 34.3393 33.2865 34.3393 33.8705C34.3393 34.4546 33.8653 34.9286 33.2812 34.9286H25.5223C24.9383 34.9286 24.4643 34.4546 24.4643 33.8705C24.4643 33.2865 24.9383 32.8125 25.5223 32.8125ZM17.7634 39.1607C16.7907 39.1607 16 39.9514 16 40.9241V41.6295C16 43.3795 17.4241 44.8036 19.1741 44.8036H35.0626C34.6147 44.2125 34.3393 43.4846 34.3393 42.6875V40.9241C34.3393 39.9514 33.5486 39.1607 32.5759 39.1607H17.7634Z" fill="#78DDB1"/>
</svg>
