<svg width="204" height="193" viewBox="0 0 204 193" fill="none" xmlns="http://www.w3.org/2000/svg">
<g opacity="0.1">
<path d="M117.135 183.231C108.031 190.081 94.1691 191.722 80.0572 187.659C69.5531 184.631 59.1399 175.252 51.4887 161.903C47.0414 154.152 45.134 145.688 46.1186 138.085C47.2206 129.541 52.236 122.062 58.895 119.015C59.1575 118.895 59.3456 118.683 59.4857 118.442C61.1925 119.965 63.0885 121.238 65.1285 122.164C67.96 123.447 71.0464 124.077 74.1405 124.077C78.815 124.077 83.506 122.64 87.3524 119.855C87.9684 119.408 88.13 118.512 87.7109 117.854C87.2918 117.196 86.451 117.023 85.8325 117.472C80.1834 121.562 72.4716 122.363 66.1876 119.513C59.9036 116.661 55.099 110.182 53.9478 103.006C52.7965 95.8297 55.3099 88.017 60.3479 83.1027C60.8983 82.5658 60.9362 81.6535 60.4325 81.0668C59.9288 80.4801 59.0742 80.4397 58.5238 80.9766C52.823 86.5354 49.9814 95.3735 51.2842 103.492C52.0631 108.354 54.3328 112.925 57.5493 116.508C51.5089 119.389 46.7132 125.462 44.5091 132.73L44.4422 132.743C34.3382 136.74 22.722 129.016 19.402 126.549C8.6896 118.595 2.44974 105.132 2.71105 90.5373C2.96984 76.0596 9.59724 62.968 20.4447 55.4674L20.5141 55.6342C23.0565 61.1877 27.4622 65.3767 32.6 67.13C34.3307 67.7221 36.1358 68.0087 37.9309 68.0087C41.8354 68.0073 45.6818 66.6509 48.56 64.1077C49.1357 63.6004 49.2152 62.692 48.7393 62.0798C48.2621 61.4662 47.41 61.3814 46.8356 61.8887C43.3263 64.9891 38.0622 65.9701 33.423 64.3863C29.0502 62.894 25.1318 59.1491 22.9429 54.3707C20.9105 49.9315 20.2377 44.4897 21.0481 39.0466C21.9684 32.8769 24.7443 27.4593 28.669 24.1827C33.0368 20.536 38.9989 19.6049 43.508 21.8655C44.1847 22.2046 44.9888 21.8951 45.3069 21.1752C45.625 20.4553 45.3347 19.5967 44.6593 19.2576C39.2488 16.5448 32.1544 17.6133 27.0027 21.9139C26.3197 22.4845 25.6822 23.1183 25.0675 23.7831C19.0662 20.7244 14.552 14.2708 12.9438 6.37727C10.2208 -6.99431 14.5482 -20.8221 24.5234 -30.6116C34.7094 -40.6097 48.6433 -44.5335 61.2846 -41.1088C57.5998 -35.8945 57.0532 -28.3913 60.1939 -22.7006C60.4451 -22.2444 60.8971 -21.9901 61.3604 -21.9901C61.5926 -21.9901 61.8287 -22.0547 62.0445 -22.1892C62.6871 -22.5929 62.9017 -23.4757 62.5243 -24.1606C59.6549 -29.3615 60.6042 -36.7073 64.6867 -40.8854C68.7691 -45.0636 75.6945 -45.7769 80.4523 -42.5084C81.0797 -42.0778 81.9154 -42.2701 82.3193 -42.9389C82.7245 -43.6077 82.5428 -44.4999 81.9154 -44.9305C76.2663 -48.8113 68.4435 -48.1533 63.3814 -43.4934L63.1655 -43.5539C63.1668 -43.7113 63.1605 -43.8688 63.1112 -44.0262C60.4275 -52.6221 62.7616 -63.0374 69.0595 -70.5608C74.6669 -77.258 83.1676 -81.747 92.9964 -83.203C98.908 -84.079 107.534 -84.153 115.041 -79.5375C121.834 -75.3606 126.18 -67.6233 125.856 -60.2869L125.873 -60.1657V-19.7631C119.296 -18.081 112.68 -18.513 107.202 -21.0145C101.026 -23.8336 96.377 -29.2767 94.7624 -35.5729C93.0658 -42.2001 95.1121 -49.6751 99.7424 -53.7497C100.318 -54.2557 100.399 -55.164 99.9242 -55.7776C99.4483 -56.3912 98.5975 -56.4773 98.0206 -55.9714C92.5129 -51.123 90.1548 -42.62 92.1556 -34.814C93.9835 -27.6767 99.211 -21.5272 106.136 -18.365C109.772 -16.7058 113.848 -15.8674 118.082 -15.8674C120.642 -15.8674 123.26 -16.1931 125.873 -16.8107V32.6817C122.909 40.1877 114.472 45.7128 106.938 45.0346C99.3902 44.3537 92.4851 37.9001 90.8579 30.0161C93.7134 27.1566 95.9288 23.5732 97.1571 19.5632C99.9406 10.4747 97.4323 -0.0427551 90.9122 -6.60945C90.3681 -7.15578 89.5135 -7.12891 89.001 -6.55163C88.4885 -5.97301 88.5125 -5.06062 89.0553 -4.51429C94.7397 1.21139 97.0145 10.7438 94.587 18.6683C92.1594 26.5941 85.046 32.8593 77.2876 33.9049C69.5278 34.9518 61.176 30.7723 56.9724 23.7413C56.5709 23.0699 55.7365 22.872 55.1066 23.3C54.4767 23.7279 54.2924 24.6187 54.6926 25.2902C59.0035 32.5028 66.8327 36.9528 74.8057 36.9528C75.7449 36.9528 76.6879 36.8909 77.6271 36.7644C81.6036 36.2275 85.3654 34.5441 88.5655 32.0412C90.9299 40.5792 98.3425 47.1527 106.709 47.9063C107.192 47.9493 107.676 47.9708 108.164 47.9708C114.772 47.9708 121.729 44.0443 125.873 38.3065V136.982C119.635 130.482 109.644 128.074 101.515 131.546C92.1683 135.529 86.0749 146.967 87.6414 157.57C87.7475 158.283 88.3219 158.781 88.9758 158.781L89.1878 158.768C89.925 158.647 90.4275 157.907 90.3113 157.113C88.9328 147.787 94.2953 137.735 102.52 134.223C110.585 130.779 120.725 133.914 125.873 141.369V164.312L125.882 164.366L125.877 164.406C126.209 169.681 122.24 179.41 117.135 183.231ZM128.577 141.369C128.647 141.113 128.649 140.844 128.577 140.575V-60.9637L128.562 -61.0417C128.582 -69.2622 123.888 -77.4249 116.393 -82.0337C108.219 -87.0583 98.9572 -86.995 92.624 -86.0571C82.1615 -84.5083 73.0763 -79.6855 67.0422 -72.4783C60.401 -64.5458 57.7967 -53.634 60.2167 -44.3263C47.1689 -47.1938 33.086 -42.9335 22.6917 -32.7309C12.002 -22.2417 7.37295 -7.39264 10.3016 6.98816C12.0298 15.4657 16.823 22.4791 23.2459 26.0437C20.7918 29.4939 19.0952 33.7825 18.3795 38.5945C17.6448 43.5182 18.0361 48.4499 19.4386 52.803L19.1432 52.9255C7.43986 60.9293 0.284797 74.9684 0.00833989 90.4822C-0.26938 106.042 6.40346 120.408 17.8569 128.908C20.7123 131.034 29.261 136.753 38.3399 136.753C40.1211 136.753 41.9238 136.524 43.7062 136.013C43.604 136.565 43.5131 137.13 43.4399 137.682C42.3719 145.957 44.4106 155.094 49.1811 163.41C57.1908 177.378 68.1872 187.228 79.3515 190.444C84.6711 191.978 89.968 192.732 95.0263 192.732C104.114 192.732 112.425 190.296 118.693 185.6C124.177 181.482 128.953 171.174 128.576 164.325L128.577 164.312V141.369Z" fill="#6EA5A5"/>
<path d="M97.293 95.8325C104.127 95.8325 110.924 91.6664 114.236 85.2787C117.814 78.3783 117.17 69.1889 112.669 62.9331C112.214 62.3006 111.366 62.1823 110.774 62.6653C110.18 63.1511 110.069 64.0554 110.524 64.6865C114.39 70.0609 114.945 77.9557 111.871 83.8846C108.797 89.8134 102.234 93.514 95.9044 92.8828C89.5775 92.2517 83.7693 87.3187 81.7799 80.8866C81.5451 80.1303 80.7801 79.7185 80.0731 79.9688C79.3637 80.2178 78.9787 81.0332 79.2122 81.7881C81.5274 89.2766 88.2886 95.0184 95.6519 95.7518C96.1986 95.8056 96.7452 95.8325 97.293 95.8325Z" fill="#6EA5A5"/>
<path d="M243.805 126.549C240.487 129.016 228.869 136.753 218.767 132.743L218.698 132.73C216.494 125.462 211.699 119.389 205.658 116.508C208.875 112.925 211.146 108.354 211.925 103.492C213.227 95.3735 210.384 86.5354 204.685 80.9766C204.135 80.4397 203.28 80.4801 202.776 81.0668C202.271 81.6535 202.309 82.5658 202.86 83.1027C207.9 88.017 210.411 95.8297 209.26 103.006C208.11 110.182 203.305 116.661 197.02 119.513C190.737 122.363 183.025 121.562 177.376 117.472C176.758 117.023 175.917 117.194 175.498 117.854C175.079 118.512 175.239 119.408 175.856 119.855C179.703 122.64 184.394 124.077 189.07 124.077C192.162 124.077 195.249 123.447 198.079 122.164C200.12 121.238 202.016 119.965 203.723 118.442C203.863 118.683 204.051 118.895 204.314 119.015C210.973 122.062 215.987 129.541 217.09 138.085C218.075 145.688 216.167 154.152 211.72 161.903C204.069 175.252 193.656 184.631 183.152 187.659C169.04 191.722 155.178 190.067 146.072 183.231C140.967 179.41 137 169.681 137.332 164.406L137.327 164.366L137.335 164.312V141.369C142.483 133.914 152.623 130.779 160.689 134.223C168.912 137.735 174.275 147.787 172.895 157.113C172.78 157.907 173.284 158.647 174.021 158.768L174.233 158.781C174.886 158.781 175.463 158.283 175.566 157.57C177.134 146.967 171.039 135.529 161.694 131.546C153.564 128.074 143.573 130.482 137.335 136.982V38.3065C141.48 44.0443 148.435 47.9708 155.044 47.9708C155.531 47.9708 156.016 47.9493 156.498 47.9063C164.865 47.1527 172.279 40.5792 174.642 32.0412C177.842 34.5441 181.605 36.2275 185.582 36.7644C186.521 36.8909 187.463 36.9528 188.403 36.9528C196.375 36.9528 204.205 32.5014 208.516 25.2902C208.918 24.6187 208.732 23.7279 208.102 23.3C207.473 22.872 206.637 23.0699 206.236 23.7413C202.034 30.7723 193.681 34.9518 185.921 33.9049C178.163 32.8593 171.048 26.5941 168.621 18.6683C166.193 10.7438 168.469 1.21139 174.152 -4.51429C174.695 -5.06062 174.72 -5.97301 174.207 -6.55163C173.695 -7.12891 172.839 -7.15578 172.297 -6.60945C165.778 -0.0427551 163.267 10.4747 166.05 19.5632C167.28 23.5732 169.494 27.1566 172.351 30.0161C170.724 37.9001 163.819 44.3537 156.271 45.0346C148.733 45.7142 140.298 40.1877 137.335 32.6817V-16.8107C139.949 -16.1931 142.567 -15.8674 145.127 -15.8674C149.359 -15.8674 153.436 -16.7058 157.071 -18.365C163.998 -21.5272 169.223 -27.6767 171.053 -34.814C173.053 -42.62 170.696 -51.123 165.187 -55.9714C164.613 -56.4773 163.759 -56.3912 163.285 -55.7776C162.809 -55.164 162.891 -54.2557 163.466 -53.7497C168.095 -49.6751 170.144 -42.2001 168.444 -35.5729C166.832 -29.2767 162.183 -23.8336 156.007 -21.0145C150.528 -18.513 143.912 -18.081 137.335 -19.7631V-60.1657L137.352 -60.2869C137.029 -67.6233 141.374 -75.3606 148.167 -79.5375C155.675 -84.153 164.3 -84.079 170.212 -83.203C180.041 -81.747 188.542 -77.258 194.149 -70.5608C200.447 -63.0374 202.781 -52.6221 200.098 -44.0262C200.048 -43.8688 200.041 -43.7113 200.043 -43.5539L199.829 -43.4934C194.765 -48.1533 186.941 -48.8113 181.292 -44.9305C180.665 -44.4999 180.484 -43.6077 180.888 -42.9389C181.293 -42.2701 182.129 -42.0764 182.758 -42.5084C187.513 -45.7769 194.438 -45.0636 198.521 -40.8854C202.605 -36.7073 203.554 -29.3615 200.685 -24.1606C200.306 -23.4757 200.52 -22.5929 201.164 -22.1892C201.38 -22.0547 201.615 -21.9901 201.848 -21.9901C202.312 -21.9901 202.764 -22.2444 203.015 -22.7006C206.154 -28.3913 205.608 -35.8945 201.923 -41.1088C214.565 -44.5335 228.499 -40.6097 238.687 -30.6116C248.661 -20.8221 252.989 -6.99431 250.265 6.37727C248.657 14.2708 244.141 20.7244 238.141 23.7831C237.526 23.1183 236.889 22.4845 236.206 21.9139C231.054 17.6133 223.96 16.5448 218.549 19.2576C217.874 19.5967 217.584 20.4553 217.902 21.1752C218.22 21.8951 219.024 22.2046 219.699 21.8655C224.209 19.6049 230.172 20.536 234.54 24.1827C238.463 27.4593 241.242 32.8769 242.159 39.0466C242.972 44.4897 242.298 49.9315 240.266 54.3707C238.076 59.1491 234.159 62.894 229.784 64.3863C225.145 65.9701 219.882 64.9891 216.372 61.8887C215.797 61.3814 214.945 61.4662 214.468 62.0798C213.994 62.692 214.073 63.6004 214.647 64.1077C217.526 66.6509 221.373 68.0087 225.277 68.0087C227.072 68.0087 228.878 67.7221 230.609 67.13C235.747 65.3767 240.151 61.1877 242.695 55.6342L242.763 55.4674C253.612 62.968 260.239 76.0596 260.498 90.5373C260.758 105.132 254.519 118.595 243.805 126.549ZM244.064 52.9255L243.77 52.803C245.173 48.4499 245.564 43.5182 244.831 38.5945C244.112 33.7825 242.416 29.4939 239.963 26.0437C246.386 22.4791 251.179 15.4657 252.906 6.98816C255.836 -7.39264 251.204 -22.2417 240.517 -32.7309C230.122 -42.9335 216.04 -47.1938 202.992 -44.3263C205.412 -53.634 202.808 -64.5458 196.165 -72.4783C190.132 -79.6855 181.047 -84.5083 170.582 -86.0571C164.252 -86.995 154.99 -87.0583 146.816 -82.0337C139.321 -77.4249 134.626 -69.2622 134.647 -61.0417L134.632 -60.9637V140.575C134.558 140.844 134.561 141.113 134.632 141.369V164.312L134.634 164.325C134.254 171.174 139.032 181.482 144.516 185.6C150.783 190.296 159.094 192.732 168.183 192.732C173.238 192.732 178.538 191.978 183.857 190.444C195.022 187.228 206.018 177.378 214.026 163.41C218.798 155.094 220.838 145.957 219.769 137.682C219.696 137.13 219.605 136.565 219.503 136.013C221.285 136.524 223.086 136.753 224.869 136.753C233.946 136.753 242.495 131.034 245.352 128.908C256.807 120.408 263.478 106.042 263.2 90.4822C262.923 74.9684 255.77 60.9293 244.064 52.9255Z" fill="#6EA5A5"/>
<path d="M183.618 79.9688C182.909 79.7185 182.144 80.1303 181.911 80.8866C179.921 87.3187 174.113 92.2517 167.786 92.8828C161.458 93.5153 154.893 89.8134 151.82 83.8846C148.746 77.9557 149.299 70.0609 153.167 64.6865C153.621 64.0554 153.509 63.1511 152.917 62.6653C152.325 62.1823 151.475 62.3006 151.022 62.9331C146.521 69.1889 145.875 78.3783 149.454 85.2787C152.767 91.6677 159.562 95.8325 166.398 95.8325C166.944 95.8325 167.492 95.8056 168.037 95.7518C175.402 95.0184 182.163 89.2766 184.478 81.7881C184.712 81.0332 184.327 80.2178 183.618 79.9688Z" fill="#6EA5A5"/>
</g>
</svg>
