<svg width="216" height="193" viewBox="0 0 216 193" fill="none" xmlns="http://www.w3.org/2000/svg">
<mask id="mask0" style="mask-type:alpha" maskUnits="userSpaceOnUse" x="0" y="0" width="216" height="193">
<rect width="216" height="193" fill="#C4C4C4"/>
</mask>
<g mask="url(#mask0)">
<g opacity="0.1">
<path d="M129.135 220.592C120.031 228.838 106.169 230.814 92.0572 225.922C81.5531 222.277 71.1399 210.985 63.4887 194.915C59.0414 185.584 57.134 175.394 58.1186 166.241C59.2206 155.954 64.236 146.95 70.895 143.282C71.1575 143.138 71.3456 142.882 71.4857 142.592C73.1925 144.426 75.0885 145.958 77.1285 147.073C79.96 148.618 83.0464 149.376 86.1405 149.376C90.815 149.376 95.506 147.646 99.3524 144.293C99.9684 143.755 100.13 142.676 99.7109 141.884C99.2918 141.092 98.451 140.884 97.8325 141.424C92.1834 146.349 84.4716 147.313 78.1876 143.881C71.9036 140.449 67.099 132.648 65.9478 124.009C64.7965 115.369 67.3099 105.963 72.3479 100.047C72.8983 99.4008 72.9362 98.3024 72.4325 97.5961C71.9288 96.8898 71.0742 96.8412 70.5238 97.4875C64.823 104.18 61.9814 114.82 63.2842 124.594C64.0631 130.447 66.3328 135.95 69.5493 140.264C63.5089 143.732 58.7132 151.043 56.5091 159.793L56.4422 159.809C46.3382 164.621 34.722 155.322 31.402 152.352C20.6896 142.777 14.4497 126.568 14.7111 108.998C14.9698 91.568 21.5972 75.807 32.4447 66.7771L32.5141 66.9779C35.0565 73.6637 39.4622 78.7068 44.6 80.8177C46.3307 81.5305 48.1358 81.8755 49.9309 81.8755C53.8354 81.8739 57.6818 80.2409 60.56 77.1791C61.1357 76.5684 61.2152 75.4748 60.7393 74.7377C60.2621 73.999 59.41 73.897 58.8356 74.5077C55.3263 78.2402 50.0622 79.4212 45.423 77.5145C41.0502 75.7179 37.1318 71.2094 34.9429 65.4568C32.9105 60.1124 32.2377 53.5611 33.0481 47.0081C33.9684 39.5804 36.7443 33.0582 40.669 29.1135C45.0368 24.7233 50.9989 23.6023 55.508 26.3239C56.1847 26.7321 56.9888 26.3595 57.3069 25.4928C57.625 24.6261 57.3347 23.5925 56.6593 23.1842C51.2488 19.9183 44.1544 21.2046 39.0027 26.3821C38.3197 27.069 37.6822 27.8321 37.0675 28.6324C31.0662 24.9501 26.552 17.1805 24.9438 7.67758C22.2208 -8.42043 26.5482 -25.0677 36.5234 -36.8532C46.7094 -48.8899 60.6433 -53.6138 73.2846 -49.4909C69.5998 -43.2133 69.0532 -34.1802 72.1939 -27.3292C72.4451 -26.78 72.8971 -26.4738 73.3604 -26.4738C73.5926 -26.4738 73.8287 -26.5516 74.0445 -26.7136C74.6871 -27.1996 74.9017 -28.2623 74.5243 -29.0869C71.6549 -35.3482 72.6042 -44.1918 76.6867 -49.2219C80.7691 -54.252 87.6945 -55.1107 92.4523 -51.1757C93.0797 -50.6573 93.9154 -50.8889 94.3193 -51.694C94.7245 -52.4992 94.5428 -53.5733 93.9154 -54.0917C88.2663 -58.7638 80.4435 -57.9717 75.3814 -52.3616L75.1655 -52.4344C75.1668 -52.624 75.1605 -52.8136 75.1112 -53.0031C72.4275 -63.3517 74.7616 -75.8906 81.0595 -84.948C86.6669 -93.0108 95.1676 -98.4151 104.996 -100.168C110.908 -101.223 119.534 -101.312 127.041 -95.755C133.834 -90.7265 138.18 -81.4115 137.856 -72.5792L137.873 -72.4334V-23.7927C131.296 -21.7677 124.68 -22.2877 119.202 -25.2993C113.026 -28.6932 108.377 -35.2461 106.762 -42.8261C105.066 -50.8047 107.112 -59.8038 111.742 -64.7092C112.318 -65.3183 112.399 -66.4118 111.924 -67.1506C111.448 -67.8893 110.597 -67.9929 110.021 -67.3838C104.513 -61.5469 102.155 -51.3102 104.156 -41.9125C105.984 -33.32 111.211 -25.9165 118.136 -22.1095C121.772 -20.1121 125.848 -19.1028 130.082 -19.1028C132.642 -19.1028 135.26 -19.4948 137.873 -20.2384V39.3454C134.909 48.3819 126.472 55.0336 118.938 54.2171C111.39 53.3974 104.485 45.6279 102.858 36.1363C105.713 32.6938 107.929 28.3797 109.157 23.5521C111.941 12.6105 109.432 -0.0514679 102.912 -7.95711C102.368 -8.61483 101.514 -8.58248 101.001 -7.8875C100.488 -7.1909 100.512 -6.09247 101.055 -5.43475C106.74 1.45839 109.014 12.9345 106.587 22.4747C104.159 32.0165 97.046 39.5593 89.2876 40.818C81.5278 42.0784 73.176 37.0467 68.9724 28.5821C68.5709 27.7738 67.7365 27.5356 67.1066 28.0508C66.4767 28.5659 66.2924 29.6384 66.6926 30.4468C71.0035 39.13 78.8327 44.4874 86.8057 44.4874C87.7449 44.4874 88.6879 44.4128 89.6271 44.2605C93.6036 43.6142 97.3654 41.5875 100.565 38.5743C102.93 48.8533 110.342 56.767 118.709 57.6743C119.192 57.7261 119.676 57.752 120.164 57.752C126.772 57.752 133.729 53.0248 137.873 46.1171V164.912C131.635 157.088 121.644 154.188 113.515 158.367C104.168 163.163 98.0749 176.933 99.6414 189.698C99.7475 190.557 100.322 191.156 100.976 191.156L101.188 191.14C101.925 190.994 102.427 190.103 102.311 189.148C100.933 177.921 106.295 165.819 114.52 161.591C122.585 157.444 132.725 161.219 137.873 170.194V197.815L137.882 197.879L137.877 197.928C138.209 204.278 134.24 215.991 129.135 220.592ZM140.577 170.194C140.647 169.886 140.649 169.562 140.577 169.238V-73.3941L140.562 -73.488C140.582 -83.3846 135.888 -93.2117 128.393 -98.7602C120.219 -104.809 110.957 -104.733 104.624 -103.604C94.1615 -101.739 85.0763 -95.9333 79.0422 -87.2565C72.401 -77.7066 69.7967 -64.5699 72.2167 -53.3643C59.1689 -56.8165 45.086 -51.6876 34.6917 -39.4047C24.002 -26.7767 19.373 -8.89999 22.3016 8.41303C24.0298 18.6191 28.823 27.0626 35.2459 31.354C32.7918 35.5077 31.0952 40.6707 30.3795 46.4638C29.6448 52.3914 30.0361 58.3287 31.4386 63.5694L31.1432 63.7169C19.4399 73.3527 12.2848 90.2543 12.0083 108.931C11.7306 127.663 18.4035 144.959 29.8569 155.192C32.7123 157.752 41.261 164.637 50.3399 164.637C52.1211 164.637 53.9238 164.362 55.7062 163.746C55.604 164.41 55.5131 165.09 55.4399 165.755C54.3719 175.718 56.4106 186.718 61.1811 196.729C69.1908 213.545 80.1872 225.403 91.3515 229.275C96.6711 231.122 101.968 232.029 107.026 232.029C116.114 232.029 124.425 229.097 130.693 223.443C136.177 218.486 140.953 206.077 140.576 197.831L140.577 197.815V170.194Z" fill="#6EA5A5"/>
<path d="M109.293 115.373C116.127 115.373 122.924 110.357 126.236 102.667C129.814 94.3595 129.17 83.2964 124.669 75.765C124.214 75.0036 123.366 74.8611 122.774 75.4427C122.18 76.0275 122.069 77.1162 122.524 77.8759C126.39 84.3462 126.945 93.8508 123.871 100.988C120.797 108.126 114.234 112.581 107.904 111.821C101.577 111.062 95.7693 105.123 93.7798 97.3792C93.545 96.4687 92.78 95.973 92.0731 96.2743C91.3636 96.574 90.9786 97.5557 91.2122 98.4646C93.5273 107.48 100.289 114.392 107.652 115.275C108.199 115.34 108.745 115.373 109.293 115.373Z" fill="#6EA5A5"/>
<path d="M255.805 152.352C252.487 155.322 240.869 164.637 230.767 159.809L230.698 159.793C228.494 151.043 223.699 143.732 217.658 140.264C220.875 135.95 223.146 130.447 223.925 124.594C225.227 114.82 222.384 104.18 216.685 97.4875C216.135 96.8412 215.28 96.8898 214.776 97.5961C214.271 98.3024 214.309 99.4008 214.86 100.047C219.9 105.963 222.411 115.369 221.26 124.009C220.11 132.648 215.305 140.449 209.02 143.881C202.737 147.313 195.025 146.349 189.376 141.424C188.758 140.884 187.917 141.09 187.498 141.884C187.079 142.676 187.239 143.755 187.856 144.293C191.703 147.646 196.394 149.376 201.07 149.376C204.162 149.376 207.249 148.618 210.079 147.073C212.12 145.958 214.016 144.426 215.723 142.592C215.863 142.882 216.051 143.138 216.314 143.282C222.973 146.95 227.987 155.954 229.09 166.241C230.075 175.394 228.167 185.584 223.72 194.915C216.069 210.985 205.656 222.277 195.152 225.922C181.04 230.814 167.178 228.822 158.072 220.592C152.967 215.991 149 204.278 149.332 197.928L149.327 197.879L149.335 197.815V170.194C154.483 161.219 164.623 157.444 172.689 161.591C180.912 165.819 186.275 177.921 184.895 189.148C184.78 190.103 185.284 190.994 186.021 191.14L186.233 191.156C186.886 191.156 187.463 190.557 187.566 189.698C189.134 176.933 183.039 163.163 173.694 158.367C165.564 154.188 155.573 157.088 149.335 164.912V46.1171C153.48 53.0248 160.435 57.752 167.044 57.752C167.531 57.752 168.016 57.7261 168.498 57.6743C176.865 56.767 184.279 48.8533 186.642 38.5743C189.842 41.5875 193.605 43.6142 197.582 44.2605C198.521 44.4128 199.463 44.4874 200.403 44.4874C208.375 44.4874 216.205 39.1284 220.516 30.4468C220.918 29.6384 220.732 28.5659 220.102 28.0508C219.473 27.5356 218.637 27.7738 218.236 28.5821C214.034 37.0467 205.681 42.0784 197.921 40.818C190.163 39.5593 183.048 32.0165 180.621 22.4747C178.193 12.9345 180.469 1.45839 186.152 -5.43475C186.695 -6.09247 186.72 -7.1909 186.206 -7.8875C185.695 -8.58248 184.839 -8.61483 184.297 -7.95711C177.778 -0.0514679 175.267 12.6105 178.05 23.5521C179.28 28.3797 181.494 32.6938 184.351 36.1363C182.724 45.6279 175.819 53.3974 168.271 54.2171C160.733 55.0352 152.298 48.3819 149.335 39.3454V-20.2384C151.949 -19.4948 154.567 -19.1028 157.127 -19.1028C161.359 -19.1028 165.436 -20.1121 169.071 -22.1095C175.998 -25.9165 181.223 -33.32 183.053 -41.9125C185.053 -51.3102 182.696 -61.5469 177.187 -67.3838C176.613 -67.9929 175.759 -67.8893 175.285 -67.1506C174.809 -66.4118 174.891 -65.3183 175.466 -64.7092C180.095 -59.8038 182.144 -50.8047 180.444 -42.8261C178.832 -35.2461 174.183 -28.6932 168.007 -25.2993C162.528 -22.2877 155.912 -21.7677 149.335 -23.7927V-72.4334L149.352 -72.5792C149.029 -81.4115 153.374 -90.7265 160.167 -95.755C167.675 -101.312 176.299 -101.223 182.212 -100.168C192.041 -98.4151 200.542 -93.0108 206.149 -84.948C212.447 -75.8906 214.781 -63.3517 212.097 -53.0031C212.048 -52.8136 212.041 -52.624 212.043 -52.4344L211.829 -52.3616C206.765 -57.9717 198.941 -58.7638 193.292 -54.0917C192.665 -53.5733 192.484 -52.4992 192.888 -51.694C193.293 -50.8889 194.129 -50.6557 194.758 -51.1757C199.513 -55.1107 206.438 -54.252 210.521 -49.2219C214.605 -44.1918 215.554 -35.3482 212.684 -29.0869C212.306 -28.2623 212.52 -27.1996 213.164 -26.7136C213.38 -26.5516 213.615 -26.4738 213.848 -26.4738C214.312 -26.4738 214.764 -26.78 215.015 -27.3292C218.154 -34.1802 217.608 -43.2133 213.923 -49.4909C226.565 -53.6138 240.499 -48.8899 250.687 -36.8532C260.66 -25.0677 264.989 -8.42043 262.265 7.67758C260.657 17.1805 256.141 24.9501 250.141 28.6324C249.526 27.8321 248.889 27.069 248.206 26.3821C243.054 21.2046 235.96 19.9183 230.549 23.1842C229.874 23.5925 229.584 24.6261 229.902 25.4928C230.22 26.3595 231.024 26.7321 231.699 26.3239C236.209 23.6023 242.172 24.7233 246.54 29.1135C250.463 33.0582 253.242 39.5804 254.159 47.0081C254.972 53.5611 254.298 60.1124 252.266 65.4568C250.076 71.2094 246.158 75.7179 241.784 77.5145C237.145 79.4212 231.882 78.2402 228.372 74.5077C227.797 73.897 226.945 73.999 226.468 74.7377C225.994 75.4748 226.073 76.5684 226.647 77.1791C229.526 80.2409 233.373 81.8755 237.277 81.8755C239.072 81.8755 240.878 81.5305 242.609 80.8177C247.747 78.7068 252.151 73.6637 254.695 66.9779L254.763 66.7771C265.611 75.807 272.239 91.568 272.498 108.998C272.758 126.568 266.519 142.777 255.805 152.352ZM256.064 63.7169L255.77 63.5694C257.173 58.3287 257.564 52.3914 256.83 46.4638C256.112 40.6707 254.416 35.5077 251.963 31.354C258.386 27.0626 263.179 18.6191 264.906 8.41303C267.836 -8.89999 263.204 -26.7767 252.517 -39.4047C242.121 -51.6876 228.04 -56.8165 214.992 -53.3643C217.412 -64.5699 214.808 -77.7066 208.165 -87.2565C202.132 -95.9333 193.047 -101.739 182.582 -103.604C176.252 -104.733 166.99 -104.809 158.816 -98.7602C151.321 -93.2117 146.626 -83.3846 146.647 -73.488L146.631 -73.3941V169.238C146.558 169.562 146.561 169.886 146.631 170.194V197.815L146.634 197.831C146.254 206.077 151.032 218.486 156.516 223.443C162.783 229.097 171.094 232.029 180.183 232.029C185.238 232.029 190.538 231.122 195.857 229.275C207.022 225.403 218.018 213.545 226.026 196.729C230.798 186.718 232.838 175.718 231.769 165.755C231.696 165.09 231.605 164.41 231.502 163.746C233.285 164.362 235.086 164.637 236.869 164.637C245.946 164.637 254.495 157.752 257.352 155.192C268.807 144.959 275.478 127.663 275.2 108.931C274.923 90.2543 267.77 73.3527 256.064 63.7169Z" fill="#6EA5A5"/>
<path d="M195.618 96.2743C194.909 95.973 194.144 96.4687 193.911 97.3792C191.921 105.123 186.113 111.062 179.786 111.821C173.458 112.583 166.893 108.126 163.82 100.988C160.746 93.8508 161.299 84.3462 165.167 77.8759C165.621 77.1162 165.509 76.0275 164.917 75.4427C164.325 74.8611 163.475 75.0036 163.022 75.765C158.521 83.2964 157.875 94.3595 161.454 102.667C164.767 110.359 171.562 115.373 178.398 115.373C178.944 115.373 179.492 115.34 180.037 115.275C187.402 114.392 194.163 107.48 196.478 98.4646C196.712 97.5557 196.327 96.574 195.618 96.2743Z" fill="#6EA5A5"/>
</g>
</g>
</svg>
