<svg width="80" height="80" viewBox="0 0 80 80" fill="none" xmlns="http://www.w3.org/2000/svg">
<path d="M68.1382 41.0267C68.0616 40.91 68.0616 40.7567 68.1382 40.6384L70.8149 36.4584C71.6282 35.1917 71.8732 33.6317 71.4832 32.1767C71.0932 30.7217 70.1032 29.4917 68.7632 28.8L64.3532 26.52C64.2282 26.455 64.1499 26.3217 64.1566 26.18L64.3866 21.2184C64.4566 19.715 63.8866 18.2417 62.8232 17.1767C61.7599 16.1117 60.2849 15.5367 58.7816 15.6134L53.8182 15.8434C53.7132 15.835 53.5466 15.7734 53.4799 15.6484L51.2016 11.2384C50.5082 9.89835 49.2782 8.90835 47.8232 8.51835C46.3666 8.12668 44.8066 8.37335 43.5432 9.18502L39.3616 11.8634C39.3616 11.8634 39.3616 11.8634 39.3599 11.8634C39.2449 11.9417 39.0932 11.9384 38.9715 11.8634L34.7916 9.18668C33.5249 8.37335 31.9649 8.12668 30.5099 8.51835C29.0549 8.90668 27.8249 9.89835 27.1332 11.2384L24.8532 15.6484C24.7882 15.7734 24.6616 15.8517 24.5132 15.845L19.5499 15.6117C18.0782 15.5234 16.5732 16.1117 15.5082 17.175C14.4432 18.2384 13.8749 19.7117 13.9449 21.2167L14.1749 26.18C14.1816 26.32 14.1032 26.4534 13.9799 26.5184L9.56989 28.7967C8.22989 29.49 7.23989 30.72 6.84989 32.175C6.45989 33.63 6.70489 35.1917 7.51655 36.455L10.1949 40.6384C10.2716 40.755 10.2716 40.9084 10.1949 41.0267L7.51822 45.2067C6.70489 46.4734 6.45989 48.0334 6.84989 49.4884C7.23989 50.9434 8.22989 52.1734 9.56989 52.865L13.9799 55.145C14.1049 55.21 14.1832 55.3434 14.1766 55.485L13.9449 60.45C13.8749 61.9534 14.4449 63.4267 15.5082 64.4917C16.5749 65.5584 18.0616 66.1517 19.5499 66.055L24.5132 65.825C24.6166 65.8184 24.7849 65.8967 24.8516 66.02L27.1299 70.43C27.8232 71.77 29.0532 72.76 30.5082 73.15C30.9616 73.2717 31.4282 73.33 31.8899 73.33C32.9082 73.33 33.9182 73.04 34.7882 72.4817L38.9715 69.8034C39.0866 69.725 39.2382 69.7267 39.3599 69.8034L43.5399 72.48C44.8066 73.2934 46.3666 73.54 47.8216 73.1484C49.2766 72.76 50.5066 71.7684 51.1982 70.4284L53.4782 66.0184C53.5432 65.895 53.6849 65.83 53.8182 65.8217L58.7799 66.0517C60.2416 66.135 61.7549 65.5517 62.8216 64.4884C63.8866 63.4234 64.4549 61.9517 64.3849 60.4467L64.1549 55.4834C64.1482 55.3434 64.2266 55.21 64.3499 55.145L68.7599 52.8667C70.0999 52.1734 71.0899 50.9434 71.4799 49.4884C71.8699 48.0334 71.6249 46.4717 70.8132 45.2084L68.1382 41.0267ZM53.5282 34.5167C47.6849 38.7967 42.2499 44.2334 37.3782 50.675C36.9066 51.3 36.1666 51.6667 35.3832 51.6667C35.3799 51.6667 35.3766 51.6667 35.3732 51.6667C34.5866 51.6634 33.8466 51.29 33.3782 50.66C30.7849 47.1767 28.2632 44.645 25.6649 42.9167C24.5166 42.1517 24.2032 40.6 24.9682 39.45C25.7349 38.3017 27.2882 37.9917 28.4349 38.7534C30.8149 40.3367 33.1016 42.435 35.3732 45.1267C40.0216 39.3934 45.1249 34.475 50.5716 30.485C51.6866 29.6667 53.2482 29.9134 54.0666 31.0234C54.8832 32.1367 54.6416 33.7017 53.5282 34.5167Z" fill="#78DDB1"/>
</svg>
