<svg width="26" height="26" viewBox="0 0 26 26" fill="none" xmlns="http://www.w3.org/2000/svg">
<path d="M11.6458 1.625C11.5382 1.62348 11.4313 1.64337 11.3314 1.68352C11.2314 1.72367 11.1405 1.78327 11.0638 1.85887C10.9872 1.93447 10.9263 2.02455 10.8847 2.12389C10.8432 2.22322 10.8218 2.32982 10.8218 2.4375C10.8218 2.54518 10.8432 2.65178 10.8847 2.75111C10.9263 2.85045 10.9872 2.94053 11.0638 3.01613C11.1405 3.09173 11.2314 3.15133 11.3314 3.19148C11.4313 3.23163 11.5382 3.25152 11.6458 3.25H12.1875V4.37459C7.1917 4.78981 3.25 8.98236 3.25 14.0833C3.25 19.4585 7.62485 23.8333 13 23.8333C18.3752 23.8333 22.75 19.4585 22.75 14.0833C22.75 11.6877 21.8777 9.49443 20.4384 7.79492L21.4265 6.80575C21.5437 6.69159 21.6238 6.5447 21.6561 6.38431C21.6885 6.22392 21.6716 6.0575 21.6079 5.90682C21.5441 5.75615 21.4363 5.62824 21.2986 5.53984C21.1609 5.45144 20.9997 5.40667 20.8362 5.41138C20.6252 5.41753 20.4248 5.50555 20.2776 5.65682L19.2884 6.64494C17.7834 5.37036 15.8903 4.54728 13.8125 4.37459V3.25H14.3542C14.4618 3.25152 14.5687 3.23163 14.6686 3.19148C14.7686 3.15133 14.8595 3.09173 14.9362 3.01613C15.0128 2.94053 15.0737 2.85045 15.1153 2.75111C15.1568 2.65178 15.1782 2.54518 15.1782 2.4375C15.1782 2.32982 15.1568 2.22322 15.1153 2.12389C15.0737 2.02455 15.0128 1.93447 14.9362 1.85887C14.8595 1.78327 14.7686 1.72367 14.6686 1.68352C14.5687 1.64337 14.4618 1.62348 14.3542 1.625H11.6458ZM12.9037 5.96362C12.9691 5.97159 13.0352 5.97159 13.1005 5.96362C15.2859 5.99023 17.2592 6.87112 18.7023 8.29215C18.7287 8.32281 18.7573 8.35145 18.788 8.37785C20.2329 9.84362 21.125 11.8559 21.125 14.0833C21.125 18.5803 17.4969 22.2083 13 22.2083C8.50306 22.2083 4.875 18.5803 4.875 14.0833C4.875 9.6189 8.4519 6.01555 12.9037 5.96362ZM16.505 9.74259C16.294 9.74874 16.0936 9.83677 15.9464 9.98804L13.4189 12.5155C13.2824 12.4783 13.1415 12.459 13 12.4583C12.569 12.4583 12.1557 12.6295 11.851 12.9343C11.5462 13.239 11.375 13.6524 11.375 14.0833C11.375 14.5143 11.5462 14.9276 11.851 15.2324C12.1557 15.5371 12.569 15.7083 13 15.7083C13.2491 15.7082 13.4949 15.6508 13.7183 15.5405C13.9417 15.4303 14.1368 15.2701 14.2884 15.0725C14.4401 14.8748 14.5442 14.6449 14.5929 14.4006C14.6415 14.1562 14.6333 13.904 14.5689 13.6633L17.0953 11.137C17.2125 11.0228 17.2925 10.8759 17.3249 10.7155C17.3572 10.5551 17.3404 10.3887 17.2766 10.238C17.2128 10.0874 17.1051 9.95946 16.9674 9.87106C16.8297 9.78266 16.6685 9.73788 16.505 9.74259Z" fill="#78DDB1"/>
</svg>
