<svg width="44" height="44" viewBox="0 0 44 44" fill="none" xmlns="http://www.w3.org/2000/svg">
<circle cx="22" cy="22" r="22" fill="#1E5656"/>
<path d="M30.5678 12H24.3676C23.1812 12 22.2192 13.0635 22.2192 14.375V28.0972C22.2192 28.5342 21.8984 28.8889 21.5031 28.8889C21.1078 28.8889 20.787 28.5342 20.787 28.0972V14.375C20.787 13.0635 19.825 12 18.6386 12H12.4322C11.6412 12 11 12.7088 11 13.5833V28.3611C11 29.2356 11.6412 29.9444 12.4322 29.9444H19.8584C20.1893 30.573 20.798 31 21.5031 31C22.2082 31 22.8169 30.573 23.1478 29.9444H30.5678C31.3588 29.9444 32 29.2356 32 28.3611V13.5833C32 12.7088 31.3588 12 30.5678 12ZM17.9225 25.4583H13.8645C13.4687 25.4583 13.1484 25.1037 13.1484 24.6667C13.1484 24.2297 13.4687 23.875 13.8645 23.875H17.9225C18.3183 23.875 18.6386 24.2297 18.6386 24.6667C18.6386 25.1037 18.3183 25.4583 17.9225 25.4583ZM17.9225 21.7639H13.8645C13.4687 21.7639 13.1484 21.4092 13.1484 20.9722C13.1484 20.5352 13.4687 20.1806 13.8645 20.1806H17.9225C18.3183 20.1806 18.6386 20.5352 18.6386 20.9722C18.6386 21.4092 18.3183 21.7639 17.9225 21.7639ZM17.9225 18.0694H13.8645C13.4687 18.0694 13.1484 17.7148 13.1484 17.2778C13.1484 16.8408 13.4687 16.4861 13.8645 16.4861H17.9225C18.3183 16.4861 18.6386 16.8408 18.6386 17.2778C18.6386 17.7148 18.3183 18.0694 17.9225 18.0694ZM28.1869 25.4583H25.0837C24.6879 25.4583 24.3676 25.1037 24.3676 24.6667C24.3676 24.2297 24.6879 23.875 25.0837 23.875H28.1869C28.5827 23.875 28.903 24.2297 28.903 24.6667C28.903 25.1037 28.5827 25.4583 28.1869 25.4583ZM29.1417 21.7639H25.0837C24.6879 21.7639 24.3676 21.4092 24.3676 20.9722C24.3676 20.5352 24.6879 20.1806 25.0837 20.1806H29.1417C29.5375 20.1806 29.8578 20.5352 29.8578 20.9722C29.8578 21.4092 29.5375 21.7639 29.1417 21.7639ZM29.1417 18.0694H25.0837C24.6879 18.0694 24.3676 17.7148 24.3676 17.2778C24.3676 16.8408 24.6879 16.4861 25.0837 16.4861H29.1417C29.5375 16.4861 29.8578 16.8408 29.8578 17.2778C29.8578 17.7148 29.5375 18.0694 29.1417 18.0694Z" fill="#78DDB1"/>
</svg>
