<svg width="21" height="19" viewBox="0 0 21 19" fill="none" xmlns="http://www.w3.org/2000/svg">
<path d="M19.5678 0H13.3676C12.1812 0 11.2192 1.06347 11.2192 2.375V16.0972C11.2192 16.5342 10.8984 16.8889 10.5031 16.8889C10.1078 16.8889 9.78698 16.5342 9.78698 16.0972V2.375C9.78698 1.06347 8.82499 0 7.63862 0H1.43224C0.641167 0 0 0.708806 0 1.58333V16.3611C0 17.2356 0.641167 17.9444 1.43224 17.9444H8.85841C9.18926 18.573 9.79796 19 10.5031 19C11.2082 19 11.8169 18.573 12.1478 17.9444H19.5678C20.3588 17.9444 21 17.2356 21 16.3611V1.58333C21 0.708806 20.3588 0 19.5678 0ZM6.9225 13.4583H2.86448C2.46871 13.4583 2.14836 13.1037 2.14836 12.6667C2.14836 12.2297 2.46871 11.875 2.86448 11.875H6.9225C7.31828 11.875 7.63862 12.2297 7.63862 12.6667C7.63862 13.1037 7.31828 13.4583 6.9225 13.4583ZM6.9225 9.76389H2.86448C2.46871 9.76389 2.14836 9.40922 2.14836 8.97222C2.14836 8.53522 2.46871 8.18056 2.86448 8.18056H6.9225C7.31828 8.18056 7.63862 8.53522 7.63862 8.97222C7.63862 9.40922 7.31828 9.76389 6.9225 9.76389ZM6.9225 6.06944H2.86448C2.46871 6.06944 2.14836 5.71478 2.14836 5.27778C2.14836 4.84078 2.46871 4.48611 2.86448 4.48611H6.9225C7.31828 4.48611 7.63862 4.84078 7.63862 5.27778C7.63862 5.71478 7.31828 6.06944 6.9225 6.06944ZM17.1869 13.4583H14.0837C13.6879 13.4583 13.3676 13.1037 13.3676 12.6667C13.3676 12.2297 13.6879 11.875 14.0837 11.875H17.1869C17.5827 11.875 17.903 12.2297 17.903 12.6667C17.903 13.1037 17.5827 13.4583 17.1869 13.4583ZM18.1417 9.76389H14.0837C13.6879 9.76389 13.3676 9.40922 13.3676 8.97222C13.3676 8.53522 13.6879 8.18056 14.0837 8.18056H18.1417C18.5375 8.18056 18.8578 8.53522 18.8578 8.97222C18.8578 9.40922 18.5375 9.76389 18.1417 9.76389ZM18.1417 6.06944H14.0837C13.6879 6.06944 13.3676 5.71478 13.3676 5.27778C13.3676 4.84078 13.6879 4.48611 14.0837 4.48611H18.1417C18.5375 4.48611 18.8578 4.84078 18.8578 5.27778C18.8578 5.71478 18.5375 6.06944 18.1417 6.06944Z" fill="#78DDB1"/>
</svg>
