<svg width="44" height="44" viewBox="0 0 44 44" fill="none" xmlns="http://www.w3.org/2000/svg">
<circle cx="22" cy="22" r="22" fill="#1E5656"/>
<path d="M30.5678 13H24.3676C23.1812 13 22.2192 14.0635 22.2192 15.375V29.0972C22.2192 29.5342 21.8984 29.8889 21.5031 29.8889C21.1078 29.8889 20.787 29.5342 20.787 29.0972V15.375C20.787 14.0635 19.825 13 18.6386 13H12.4322C11.6412 13 11 13.7088 11 14.5833V29.3611C11 30.2356 11.6412 30.9444 12.4322 30.9444H19.8584C20.1893 31.573 20.798 32 21.5031 32C22.2082 32 22.8169 31.573 23.1478 30.9444H30.5678C31.3588 30.9444 32 30.2356 32 29.3611V14.5833C32 13.7088 31.3588 13 30.5678 13ZM17.9225 26.4583H13.8645C13.4687 26.4583 13.1484 26.1037 13.1484 25.6667C13.1484 25.2297 13.4687 24.875 13.8645 24.875H17.9225C18.3183 24.875 18.6386 25.2297 18.6386 25.6667C18.6386 26.1037 18.3183 26.4583 17.9225 26.4583ZM17.9225 22.7639H13.8645C13.4687 22.7639 13.1484 22.4092 13.1484 21.9722C13.1484 21.5352 13.4687 21.1806 13.8645 21.1806H17.9225C18.3183 21.1806 18.6386 21.5352 18.6386 21.9722C18.6386 22.4092 18.3183 22.7639 17.9225 22.7639ZM17.9225 19.0694H13.8645C13.4687 19.0694 13.1484 18.7148 13.1484 18.2778C13.1484 17.8408 13.4687 17.4861 13.8645 17.4861H17.9225C18.3183 17.4861 18.6386 17.8408 18.6386 18.2778C18.6386 18.7148 18.3183 19.0694 17.9225 19.0694ZM28.1869 26.4583H25.0837C24.6879 26.4583 24.3676 26.1037 24.3676 25.6667C24.3676 25.2297 24.6879 24.875 25.0837 24.875H28.1869C28.5827 24.875 28.903 25.2297 28.903 25.6667C28.903 26.1037 28.5827 26.4583 28.1869 26.4583ZM29.1417 22.7639H25.0837C24.6879 22.7639 24.3676 22.4092 24.3676 21.9722C24.3676 21.5352 24.6879 21.1806 25.0837 21.1806H29.1417C29.5375 21.1806 29.8578 21.5352 29.8578 21.9722C29.8578 22.4092 29.5375 22.7639 29.1417 22.7639ZM29.1417 19.0694H25.0837C24.6879 19.0694 24.3676 18.7148 24.3676 18.2778C24.3676 17.8408 24.6879 17.4861 25.0837 17.4861H29.1417C29.5375 17.4861 29.8578 17.8408 29.8578 18.2778C29.8578 18.7148 29.5375 19.0694 29.1417 19.0694Z" fill="#78DDB1"/>
</svg>
