<svg width="26" height="26" viewBox="0 0 26 26" fill="none" xmlns="http://www.w3.org/2000/svg">
<path d="M6.08097 4.875C4.22808 4.875 2.70825 6.39483 2.70825 8.24772V9.90129C1.76768 10.2403 1.08325 11.1366 1.08325 12.1875V18.1458C1.08325 19.3779 2.02178 20.3988 3.21501 20.5527L2.94629 20.8214C2.86831 20.8962 2.80606 20.9859 2.76317 21.0851C2.72028 21.1844 2.69763 21.2912 2.69653 21.3993C2.69543 21.5074 2.71591 21.6146 2.75677 21.7147C2.79763 21.8147 2.85805 21.9057 2.93449 21.9821C3.01093 22.0585 3.10185 22.119 3.20193 22.1598C3.30201 22.2007 3.40924 22.2212 3.51733 22.2201C3.62542 22.219 3.73221 22.1963 3.83144 22.1534C3.93067 22.1105 4.02035 22.0483 4.09521 21.9703L5.48218 20.5833H20.5177L21.9046 21.9703C21.9795 22.0483 22.0692 22.1105 22.1684 22.1534C22.2676 22.1963 22.3744 22.219 22.4825 22.2201C22.5906 22.2212 22.6978 22.2007 22.7979 22.1598C22.898 22.119 22.9889 22.0585 23.0653 21.9821C23.1418 21.9057 23.2022 21.8147 23.2431 21.7147C23.2839 21.6146 23.3044 21.5074 23.3033 21.3993C23.3022 21.2912 23.2795 21.1844 23.2367 21.0851C23.1938 20.9859 23.1315 20.8962 23.0535 20.8214L22.7848 20.5527C23.9781 20.3988 24.9166 19.3779 24.9166 18.1458V12.1875C24.9166 11.1366 24.2322 10.2403 23.2916 9.90129V8.24772C23.2916 6.39483 21.7718 4.875 19.9189 4.875H6.08097ZM6.08097 6.5H19.9189C20.8935 6.5 21.6666 7.27312 21.6666 8.24772V9.90129C20.726 10.2403 20.0416 11.1366 20.0416 12.1875V15.1667H5.95825V12.1875C5.95825 11.1366 5.27382 10.2403 4.33325 9.90129V8.24772C4.33325 7.27312 5.10637 6.5 6.08097 6.5ZM3.44352 11.3824C3.49489 11.3873 3.54661 11.3873 3.59798 11.3824C4.01761 11.4204 4.33325 11.7556 4.33325 12.1875V15.9792C4.33327 16.1946 4.41888 16.4013 4.57125 16.5537C4.72362 16.706 4.93027 16.7916 5.14575 16.7917H20.8541C21.0696 16.7916 21.2762 16.706 21.4286 16.5537C21.5809 16.4013 21.6666 16.1946 21.6666 15.9792V12.1875C21.6666 11.7556 21.9822 11.4204 22.4019 11.3824C22.4532 11.3873 22.5049 11.3873 22.5563 11.3824C22.9759 11.4204 23.2916 11.7556 23.2916 12.1875V18.1458C23.2916 18.6044 22.9376 18.9583 22.4791 18.9583H20.9567C20.9199 18.953 20.8828 18.9501 20.8456 18.9499C20.8084 18.9501 20.7713 18.953 20.7345 18.9583H5.25472C5.21336 18.9527 5.17162 18.9502 5.12988 18.9509C5.10085 18.9518 5.07189 18.9543 5.04313 18.9583H3.52075C3.06223 18.9583 2.70825 18.6044 2.70825 18.1458V12.1875C2.70825 11.7556 3.02389 11.4204 3.44352 11.3824Z" fill="#78DDB1"/>
</svg>
