<svg width="62" height="62" viewBox="0 0 62 62" fill="none" xmlns="http://www.w3.org/2000/svg">
<circle cx="31" cy="31" r="31" fill="#1E5656"/>
<path d="M30.8493 18C30.1103 18 29.3715 18.164 28.6684 18.4925L15.6233 24.5837C15.243 24.7609 15 25.143 15 25.5631C15 25.9831 15.243 26.3652 15.6233 26.5424L28.6684 32.6336C29.3715 32.9621 30.1102 33.1261 30.8493 33.1261C31.5885 33.1261 32.3272 32.9621 33.0303 32.6336L44.5332 27.2628L44.5121 37.8117C44.2172 38.0425 44.0015 38.3595 43.8952 38.7186C43.7888 39.0777 43.7971 39.461 43.9187 39.8152C44.0404 40.1694 44.2695 40.4768 44.574 40.6947C44.8786 40.9127 45.2435 41.0302 45.618 41.0311C45.9983 41.0306 46.3686 40.9097 46.6759 40.6859C46.9833 40.462 47.2119 40.1466 47.3291 39.7849C47.4462 39.4232 47.4459 39.0336 47.3281 38.6721C47.2103 38.3106 46.9811 37.9956 46.6734 37.7723L46.6987 25.5659C46.6987 25.5649 46.6987 25.564 46.6987 25.5631C46.6987 25.5626 46.6987 25.5621 46.6987 25.5616C46.7015 25.3251 46.6266 25.0942 46.4855 24.9044C46.3445 24.7145 46.145 24.5762 45.9178 24.5106L33.0303 18.4925C32.3268 18.164 31.5884 18 30.8493 18ZM40.6595 31.3673L33.6396 34.6612C32.7477 35.0784 31.8097 35.2888 30.8493 35.2888C29.889 35.2888 28.9503 35.0784 28.0577 34.6612L21.0364 31.3813C20.8894 32.3503 20.7634 33.4798 20.7634 34.5684C20.7634 37.1568 21.1549 39.3517 21.1715 39.4439C21.2651 39.9576 21.7129 40.3318 22.2352 40.3318C24.6097 40.3318 27.3681 40.5825 30.0445 43.5737C30.2498 43.8028 30.5417 43.9339 30.8493 43.9339C31.157 43.9339 31.4489 43.8028 31.6542 43.5737C34.3306 40.5825 37.089 40.3318 39.4635 40.3318C39.9858 40.3318 40.4343 39.9576 40.5272 39.4439C40.5438 39.3517 40.9353 37.1568 40.9353 34.5684C40.9353 33.4733 40.8079 32.3398 40.6595 31.3673Z" fill="#78DDB1"/>
</svg>
