<svg width="48" height="48" viewBox="0 0 48 48" fill="none" xmlns="http://www.w3.org/2000/svg">
<path d="M24 42C33.9411 42 42 33.9411 42 24C42 14.0589 33.9411 6 24 6C14.0589 6 6 14.0589 6 24C6 33.9411 14.0589 42 24 42Z" fill="url(#paint0_radial)"/>
<path d="M36.165 17.871C35.631 17.483 34.961 17.142 34.307 16.921C33.644 16.695 32.955 16.581 32.28 16.583C31.606 16.586 30.939 16.683 30.315 16.923C29.682 17.127 29.103 17.487 28.544 17.858L28.489 17.894C28.02 18.205 27.388 18.077 27.077 17.608C26.766 17.139 26.894 16.507 27.363 16.196C27.393 16.176 27.425 16.158 27.456 16.141C28.21 15.749 28.988 15.39 29.835 15.215C30.666 15.005 31.542 14.974 32.382 15.07C33.224 15.166 34.038 15.404 34.783 15.756C35.533 16.117 36.199 16.543 36.836 17.128C37.039 17.314 37.052 17.63 36.866 17.833C36.693 18.022 36.408 18.046 36.206 17.899L36.165 17.871Z" fill="#805B2A"/>
<path d="M11.165 17.1289C11.801 16.5439 12.467 16.1179 13.218 15.7569C13.963 15.4049 14.776 15.1659 15.619 15.0709C16.459 14.9749 17.335 15.0059 18.166 15.2159C19.012 15.3909 19.791 15.7499 20.545 16.1419C21.044 16.4019 21.238 17.0169 20.978 17.5159C20.718 18.0149 20.103 18.2089 19.604 17.9489C19.572 17.9319 19.542 17.9139 19.512 17.8949L19.456 17.8579C18.897 17.4869 18.318 17.1269 17.685 16.9229C17.061 16.6829 16.394 16.5859 15.72 16.5829C15.045 16.5809 14.357 16.6949 13.693 16.9209C13.039 17.1419 12.369 17.4829 11.835 17.8709L11.796 17.8999C11.573 18.0619 11.261 18.0119 11.099 17.7889C10.949 17.5819 10.981 17.2979 11.165 17.1289Z" fill="#805B2A"/>
<path d="M35 21C35 23.209 33.209 25 31 25C28.791 25 27 23.209 27 21C27 21 28.791 20 31 20C33.209 20 35 21 35 21Z" fill="white"/>
<path d="M29.156 20.224C29.056 20.463 29 20.725 29 21C29 22.105 29.895 23 31 23C32.105 23 33 22.105 33 21C33 20.725 32.944 20.463 32.844 20.224C32.29 20.096 31.669 20 31 20C30.331 20 29.71 20.096 29.156 20.224Z" fill="#212121"/>
<path d="M13 21C13 23.209 14.791 25 17 25C19.209 25 21 23.209 21 21C21 21 19.209 20 17 20C14.791 20 13 21 13 21Z" fill="white"/>
<path d="M18.844 20.224C18.944 20.463 19 20.725 19 21C19 22.105 18.105 23 17 23C15.895 23 15 22.105 15 21C15 20.725 15.056 20.463 15.156 20.224C15.71 20.096 16.331 20 17 20C17.669 20 18.29 20.096 18.844 20.224Z" fill="#212121"/>
<path d="M19.17 32.252C19.17 32.252 20.286 33 24 33C27.44 33 28.827 32.252 28.827 32.252C28.827 32.252 27.964 30.767 24 30.767C20.036 30.767 19.17 32.252 19.17 32.252Z" fill="url(#paint1_radial)"/>
<path d="M23.9999 32C27.3919 32 28.3099 32.609 28.3099 32.609C28.3099 32.609 27.4299 34 23.9999 34C20.5699 34 19.6899 32.609 19.6899 32.609C19.6899 32.609 20.6079 32 23.9999 32Z" fill="url(#paint2_radial)"/>
<path d="M28.701 32.195C29.202 32.471 29.696 31.837 29.309 31.416C28.185 30.194 26.458 29 24 29C21.542 29 19.815 30.194 18.691 31.416C18.304 31.837 18.798 32.471 19.299 32.195C20.45 31.559 22.024 31 24 31C25.976 31 27.55 31.559 28.701 32.195Z" fill="url(#paint3_radial)"/>
<defs>
<radialGradient id="paint0_radial" cx="0" cy="0" r="1" gradientUnits="userSpaceOnUse" gradientTransform="translate(24 24) rotate(180) scale(18)">
<stop stop-color="#FFE16E"/>
<stop offset="0.629" stop-color="#FFD226"/>
<stop offset="0.75" stop-color="#FDCD23"/>
<stop offset="0.899" stop-color="#F6BD1B"/>
<stop offset="0.999" stop-color="#F0AF13"/>
</radialGradient>
<radialGradient id="paint1_radial" cx="0" cy="0" r="1" gradientUnits="userSpaceOnUse" gradientTransform="translate(23.9989 29.7103) rotate(89.194) scale(3.71218 10.9644)">
<stop offset="0.629" stop-color="#FFE16E"/>
<stop offset="0.871" stop-color="#FFE16E" stop-opacity="0"/>
</radialGradient>
<radialGradient id="paint2_radial" cx="0" cy="0" r="1" gradientUnits="userSpaceOnUse" gradientTransform="translate(24.0142 30.7894) rotate(180) scale(5.11519 3.1254)">
<stop offset="0.284" stop-color="#CC9000"/>
<stop offset="1" stop-color="#CC9000" stop-opacity="0"/>
</radialGradient>
<radialGradient id="paint3_radial" cx="0" cy="0" r="1" gradientUnits="userSpaceOnUse" gradientTransform="translate(23.9875 31.5405) scale(5.4789 2.93826)">
<stop stop-color="#1C1911"/>
<stop offset="0.999" stop-color="#171714"/>
</radialGradient>
</defs>
</svg>
