<svg width="17" height="17" viewBox="0 0 17 17" fill="none" xmlns="http://www.w3.org/2000/svg">
<path d="M8.33333 0C3.73833 0 0 3.73833 0 8.33333C0 12.9283 3.73833 16.6667 8.33333 16.6667C12.9283 16.6667 16.6667 12.9283 16.6667 8.33333C16.6667 3.73833 12.9283 0 8.33333 0ZM10.2338 11.0671C10.1117 11.1892 9.95167 11.25 9.79167 11.25C9.63167 11.25 9.47167 11.1892 9.34958 11.0671L7.26625 8.98375C7.14917 8.86625 7.08333 8.7075 7.08333 8.54167V3.95833C7.08333 3.61292 7.36292 3.33333 7.70833 3.33333C8.05375 3.33333 8.33333 3.61292 8.33333 3.95833V8.28292L10.2338 10.1833C10.4775 10.4271 10.4775 10.8229 10.2338 11.0671Z" fill="#F2994A"/>
</svg>
