<svg width="103" height="103" viewBox="0 0 103 103" fill="none" xmlns="http://www.w3.org/2000/svg">
<path d="M55.2603 25.6846C61.5945 26.7341 67.29 31.0752 69.9812 36.9047C71.1647 39.4676 71.7916 42.3535 71.3259 45.1373C70.8598 47.9215 69.1964 50.5734 66.6751 51.8423C64.5396 52.917 62.0294 52.9323 59.6528 52.6729C52.3588 51.8768 45.3512 48.6445 40.0107 43.6126C38.3233 42.0227 36.7567 40.1846 36.1001 37.961C34.019 30.9121 43.7583 26.4551 49.2772 25.6441C51.2582 25.3527 53.2842 25.3568 55.2603 25.6846Z" fill="#3F7C77"/>
<path d="M68.8632 48.5741C68.5854 49.0899 68.195 49.4999 67.7335 49.7602C67.2402 50.0384 66.6592 50.1371 66.1395 50.0308L66.103 50.0269C66.0737 49.4491 65.8151 48.8733 65.3755 48.4358C65.8104 47.9618 66.0142 47.2806 65.8728 46.6484C65.8427 46.5145 65.707 46.4265 65.5697 46.4524C65.4322 46.478 65.3453 46.6072 65.3753 46.7411C65.5147 47.3641 65.2137 48.0506 64.6596 48.3734C64.1055 48.6963 63.33 48.637 62.8158 48.2325C62.7051 48.1456 62.5451 48.1602 62.4585 48.2651C62.3716 48.3703 62.3906 48.5259 62.5013 48.6128C62.6764 48.7506 62.8745 48.8579 63.0847 48.9341C63.6873 49.1523 64.3887 49.1137 64.93 48.7984L64.9958 48.7561C65.4489 49.1953 65.6752 49.8398 65.5726 50.4101C65.4645 51.0096 64.9825 51.521 64.4004 51.6538C63.8016 51.7903 63.1235 51.5134 62.8231 51.0094C62.7519 50.8901 62.596 50.8468 62.4747 50.9128C62.3533 50.9786 62.3128 51.1289 62.3841 51.2482C62.6057 51.6199 62.975 51.9018 63.3955 52.0542C63.584 52.1223 63.7829 52.1638 63.983 52.1764C64.1183 52.8234 63.9888 53.5075 63.6273 54.0541C63.265 54.6019 62.679 54.9976 62.0197 55.1393C61.4734 55.2568 60.8462 55.2082 60.2057 54.9992C59.6983 54.8337 58.9894 54.503 58.4948 53.8687C58.0764 53.3318 57.908 52.6493 58.0487 52.0756C58.4663 52.1286 58.8761 52.0915 59.2415 51.9568C60.1313 51.6293 60.6685 50.7183 60.4649 49.8836C60.4325 49.7503 60.295 49.6649 60.1585 49.6931C60.0217 49.721 59.9371 49.8521 59.9697 49.9854C60.1141 50.5777 59.7017 51.2547 59.0505 51.4949C58.4517 51.7151 57.6932 51.6066 57.0206 51.2046C56.4017 50.8342 55.9337 50.2691 55.7377 49.6545C55.5307 49.0056 55.6349 48.2896 56.0092 47.7856C56.0906 47.6765 56.0632 47.5217 55.9484 47.4401C55.834 47.3586 55.6751 47.3811 55.5939 47.4902C55.4877 47.6329 55.4 47.7895 55.3292 47.9548L55.306 47.9921C54.9383 48.7451 54.0451 49.2543 53.1336 49.2303C52.2444 49.2068 51.3621 48.7154 50.8313 47.9477C50.3314 47.225 50.1503 46.2579 50.3463 45.3608C50.3544 45.3246 50.3528 45.2885 50.3447 45.2544L50.3593 45.2092C50.3933 45.0776 50.3095 44.9414 50.1738 44.9054C50.0375 44.8691 49.8992 44.9461 49.8653 45.0774C49.7431 45.5493 49.3756 45.9784 48.8818 46.2261C48.4255 46.4547 47.8664 46.5414 47.2651 46.4769C46.332 46.3764 45.4654 45.9111 44.9468 45.2319C44.3953 44.5092 44.2541 43.5531 44.5874 42.7962L44.5949 42.7727C44.7552 42.8773 44.9288 42.9674 45.1151 43.035L45.124 43.0381C45.6604 43.2302 46.2915 43.2623 46.949 43.1308C47.086 43.1036 47.1714 42.9731 47.1395 42.8395C47.1079 42.7058 46.9712 42.6197 46.8341 42.6471C46.2696 42.7601 45.7355 42.7353 45.2895 42.5756C44.7928 42.3999 44.3921 42.0353 44.2293 41.6104C44.0586 41.1654 44.1734 40.6423 44.5023 40.3664C44.6072 40.2784 44.6166 40.1226 44.5229 40.0185C44.4297 39.9146 44.2687 39.9015 44.1637 39.9895C43.6759 40.3983 43.5068 41.1314 43.7527 41.772C43.8411 42.0032 43.9823 42.218 44.1598 42.4083C44.105 42.4101 44.051 42.4279 44.0069 42.4644C43.5666 42.8283 42.8621 42.7296 42.3928 42.5341C41.3944 42.1188 40.644 41.1408 40.5258 40.1007C40.4107 39.0919 40.8935 38.0447 41.7309 37.4619C42.0041 37.665 42.3067 37.8283 42.6264 37.9442C43.1523 38.1348 43.7219 38.1998 44.2718 38.1152C44.4099 38.0938 44.5015 37.9675 44.4759 37.8328C44.4506 37.6984 44.3177 37.6062 44.1794 37.6276C43.2405 37.7717 42.1915 37.375 41.5688 36.64C40.9489 35.9084 40.7422 34.8565 41.0421 33.9602C41.3401 33.068 42.114 32.3544 43.0612 32.0979C44.0082 31.841 45.0854 32.0558 45.8721 32.658C45.9838 32.7433 46.1435 32.7266 46.2289 32.6204C46.2597 32.5823 46.2758 32.5377 46.2798 32.4922C46.3502 32.4317 46.3818 32.3346 46.3515 32.2396C46.0874 31.4059 46.2871 30.4446 46.8725 29.731C47.4266 29.0553 48.2997 28.6118 49.2681 28.5144C50.1589 28.4247 51.139 28.628 52.028 29.0871C52.6197 29.3927 53.0762 29.7605 53.3852 30.1807C53.6906 30.5963 53.8475 31.0716 53.8321 31.5142C53.6692 31.5182 53.5071 31.5372 53.3487 31.5748C52.6116 31.7492 51.9959 32.2871 51.7419 32.9788C51.6952 33.1061 51.7646 33.2489 51.8972 33.2975L51.8983 33.2977C52.0306 33.3457 52.1752 33.2821 52.2219 33.155C52.4179 32.6212 52.9123 32.1892 53.4813 32.0545C54.05 31.9201 54.7078 32.0793 55.1565 32.4607C55.6054 32.8417 55.8565 33.4543 55.7965 34.021C55.7821 34.1565 55.8839 34.2802 56.0238 34.2974C56.1634 34.3149 56.2882 34.2194 56.3028 34.0841C56.3809 33.3499 56.0676 32.5867 55.4864 32.0929C55.3801 32.0026 55.2656 31.9222 55.1452 31.8522C55.7529 31.2034 56.6494 30.7482 57.6415 30.5926C58.606 30.4412 59.691 30.5563 60.7797 30.9254C61.7817 31.2652 62.6187 31.7531 63.2694 32.3769C63.9914 33.0686 64.463 33.9273 64.5969 34.7949C64.7353 35.6912 64.4991 36.5946 63.965 37.2359L63.9504 37.2387C63.1995 36.4922 61.9842 36.25 61.0219 36.6679C60.8948 36.723 60.8405 36.8689 60.9008 36.9934C60.9608 37.1181 61.1127 37.1745 61.2396 37.1194C62.0216 36.7801 63.0541 36.9991 63.6419 37.6289C64.2297 38.2585 64.3495 39.2746 63.9209 39.9921C63.8512 40.1088 63.8935 40.2604 64.0157 40.3312L64.0585 40.351C64.172 40.3923 64.3012 40.351 64.3631 40.2476C64.8269 39.4714 64.7862 38.455 64.301 37.678C65.2912 37.5175 66.3128 37.6955 67.1428 38.1818C68.0817 38.7314 68.7509 39.6917 68.8898 40.6875C69.0344 41.7263 68.6024 42.7823 67.7891 43.3795C67.0189 42.8933 66.1012 42.6338 65.185 42.6795C65.0448 42.6865 64.9399 42.8027 64.9509 42.9389C64.9616 43.0749 65.0843 43.1796 65.2244 43.1728C66.5428 43.1065 67.9201 43.7919 68.6517 44.878C69.3834 45.964 69.4682 47.4494 68.8632 48.5741ZM57.5755 54.9425C57.3748 55.2581 57.1681 55.4458 56.9449 55.5162C56.675 55.6011 56.349 55.4938 56.2031 55.2722C56.0857 55.0942 56.0674 54.8546 56.0481 54.6006L56.0418 54.521C55.8969 52.7247 55.0129 50.9517 53.6536 49.69C54.2059 49.6072 54.7195 49.3736 55.1254 49.028C55.1309 49.2833 55.1724 49.5407 55.2517 49.7894C55.4851 50.5202 56.035 51.1887 56.7617 51.623C56.9574 51.7402 57.1602 51.8363 57.3659 51.9106C57.4267 51.9328 57.4875 51.9511 57.5489 51.9691C57.3795 52.6838 57.5758 53.4905 58.0819 54.147C57.9451 54.3174 57.8363 54.5012 57.7321 54.6807C57.681 54.7687 57.6298 54.8567 57.5755 54.9425ZM69.0759 44.6154C68.8389 44.2636 68.5463 43.9524 68.2169 43.6859C69.0952 42.9739 69.5559 41.7939 69.3943 40.6337C69.2348 39.4894 68.4698 38.3887 67.3979 37.7607C66.5882 37.2867 65.6201 37.0725 64.6552 37.139C65.0662 36.4455 65.2317 35.5855 65.1004 34.7341C64.9498 33.7592 64.4249 32.7989 63.6226 32.03C62.9158 31.3527 62.0119 30.8241 60.9365 30.4598C59.7675 30.0633 58.5955 29.9409 57.5476 30.105C56.3866 30.2875 55.3394 30.8437 54.6571 31.6353C54.5533 31.6017 54.4476 31.5743 54.3403 31.5544C54.3622 30.9995 54.1714 30.4099 53.7971 29.9009C53.4406 29.4157 52.9227 28.9958 52.2582 28.6525C51.2789 28.1469 50.1939 27.9235 49.2028 28.0232C48.1024 28.1342 47.1066 28.6423 46.4708 29.4175C45.8687 30.152 45.6165 31.1141 45.775 32.0055C44.9157 31.5148 43.8586 31.3657 42.9125 31.622C41.8084 31.9214 40.9058 32.7546 40.5571 33.797C40.2053 34.8497 40.449 36.0864 41.1788 36.9477C41.2295 37.0075 41.2827 37.0652 41.3375 37.121C40.4143 37.8137 39.8894 38.9995 40.0197 40.1422C40.158 41.3585 41.0353 42.5017 42.2022 42.9872C42.243 43.0042 42.2845 43.0201 42.327 43.0355C42.8219 43.2148 43.4426 43.2869 43.9651 43.0694C43.7866 43.8838 43.9917 44.8002 44.5404 45.519C44.958 46.0658 45.5656 46.4936 46.2563 46.7437C46.5648 46.8554 46.89 46.9319 47.222 46.9674C47.9228 47.0428 48.5806 46.9384 49.1248 46.6659C49.3646 46.5456 49.5781 46.3929 49.7601 46.2164C49.7843 46.9345 50.0067 47.6311 50.4105 48.2153C50.8307 48.8226 51.4405 49.283 52.1159 49.5279C52.3827 49.6245 52.6596 49.6853 52.9392 49.7106L52.9843 49.7597C54.4348 50.9439 55.388 52.7333 55.5344 54.5468L55.5404 54.6244C55.5623 54.9151 55.5874 55.2448 55.7761 55.5306C55.9082 55.7308 56.1112 55.8801 56.3407 55.9634C56.5852 56.0518 56.8609 56.0657 57.113 55.9861C57.4526 55.8793 57.7462 55.6251 58.0106 55.2093C58.0686 55.1182 58.1231 55.0248 58.1774 54.9311C58.2596 54.7891 58.3395 54.6533 58.4293 54.5299C58.8231 54.9031 59.3214 55.2041 59.8993 55.4131C59.9504 55.4317 60.0021 55.4497 60.0546 55.4666C60.7838 55.7047 61.5055 55.7582 62.1419 55.6214C62.9278 55.4526 63.626 54.9812 64.058 54.3281C64.4792 53.6913 64.6356 52.8975 64.4915 52.1416L64.5288 52.1346C65.3064 51.9571 65.9247 51.308 66.0717 50.5176C66.7064 50.6408 67.4067 50.5221 67.9977 50.1888C68.5395 49.8831 68.9952 49.4068 69.3155 48.8114C70.0134 47.5147 69.9195 45.8677 69.0759 44.6154Z" fill="#FFF8E1"/>
<path d="M52.4874 37.0102C52.7281 37.5847 52.5968 38.2946 52.1682 38.7363C52.0729 38.8344 52.0797 38.9908 52.1833 39.0855C52.2097 39.1098 52.24 39.1275 52.2718 39.139C52.3647 39.1727 52.4723 39.1526 52.543 39.0798C53.1097 38.4959 53.2765 37.5936 52.9585 36.8346C52.6404 36.0755 51.8647 35.5251 51.0281 35.4648C50.1918 35.4045 49.3663 35.8393 48.9745 36.5469C48.9084 36.6659 48.956 36.8163 49.0802 36.8834C49.2044 36.9502 49.3584 36.9082 49.4242 36.7891C49.721 36.2535 50.3704 35.9114 51.0033 35.957C51.6365 36.0027 52.2468 36.436 52.4874 37.0102Z" fill="#FFF8E1"/>
<path d="M60.7018 42.7676C60.5643 42.7349 60.4285 42.8156 60.3983 42.9479C60.3683 43.0802 60.4549 43.2139 60.5925 43.2468C61.4321 43.4467 62.1598 44.1102 62.4036 44.8979C62.6497 45.6945 62.3911 46.6216 61.7743 47.1531C61.1411 47.6986 60.1681 47.8205 59.4072 47.4493C59.2801 47.3874 59.1285 47.4357 59.0679 47.5574C59.0073 47.6787 59.0608 47.8275 59.188 47.8894C59.2689 47.9288 59.3516 47.9638 59.4359 47.9943C60.3346 48.3198 61.4029 48.142 62.1181 47.5258C62.886 46.8641 63.1966 45.7556 62.8907 44.7674C62.5908 43.7975 61.7313 43.0124 60.7018 42.7676Z" fill="#FFF8E1"/>
<path d="M59.0216 45.3041C58.4271 45.5714 57.6926 45.5453 57.1048 45.2363C56.5165 44.9272 56.0853 44.3402 55.9785 43.7044C55.8859 43.1516 56.0406 42.5706 56.3849 42.1331C56.6404 42.3678 56.943 42.5541 57.2716 42.6732C57.4616 42.7421 57.6605 42.7888 57.8625 42.8107C58.586 42.889 59.4857 42.5656 59.7282 41.8116C59.7697 41.6824 59.6948 41.5417 59.5601 41.4986C59.4257 41.455 59.2832 41.5244 59.2417 41.6536C59.084 42.1443 58.4388 42.3777 57.9061 42.32C57.2669 42.2508 56.6731 41.8672 56.3562 41.3185C56.044 40.7782 56.0205 40.0774 56.297 39.5332C56.358 39.4124 56.305 39.2633 56.179 39.2007C56.0524 39.138 55.9002 39.1853 55.8389 39.3064C55.4865 40.0012 55.5152 40.8615 55.9135 41.5513C55.9529 41.6195 55.9963 41.6855 56.0419 41.7494C55.6562 42.2005 55.4421 42.7901 55.4445 43.3836C54.8196 43.9137 53.8082 43.9756 53.1004 43.5136C52.3685 43.036 52.0367 42.0483 52.3453 41.2653C52.3951 41.1389 52.3288 40.9951 52.1973 40.9434C52.066 40.892 51.919 40.9526 51.8692 41.0789C51.7449 41.3945 51.7034 41.7364 51.7337 42.0752C51.4416 42.4074 51.0183 42.6408 50.5709 42.7157C50.1217 42.7911 49.6321 42.7094 49.2272 42.492C49.0758 42.4106 48.8114 42.2373 48.7412 41.9903C48.7036 41.858 48.5635 41.7776 48.428 41.8108C48.2925 41.8439 48.2132 41.9778 48.2508 42.1102C48.3659 42.5152 48.7159 42.7755 48.9889 42.9224C49.1022 42.983 49.2194 43.0354 49.3395 43.0788C49.7646 43.2328 50.2256 43.2769 50.6701 43.2025C51.1125 43.1281 51.5228 42.9378 51.8585 42.6585C52.0315 43.1644 52.3651 43.6219 52.8237 43.921C52.9753 44.02 53.1377 44.0998 53.3071 44.1614C54.0298 44.423 54.8752 44.3447 55.515 43.9539C55.6935 44.6699 56.1993 45.3159 56.8709 45.669C56.9774 45.7249 57.0876 45.7734 57.2003 45.8142C57.8612 46.0535 58.6166 46.0357 59.2453 45.7531C59.3717 45.6964 59.4239 45.5498 59.3623 45.426C59.3004 45.3021 59.148 45.2475 59.0216 45.3041Z" fill="#FFF8E1"/>
<path d="M55.5475 36.7506C55.6329 36.861 55.7929 36.8856 55.9046 36.8054C56.6837 36.2469 57.9144 36.3215 58.6473 36.972C59.3805 37.6221 59.5692 38.8066 59.0678 39.6118C58.996 39.7272 59.0357 39.8796 59.1565 39.9522L59.2033 39.9744C59.315 40.0148 59.4426 39.9757 59.5055 39.8747C60.1356 38.8625 59.9075 37.429 58.9858 36.6115C58.0642 35.794 56.5746 35.7035 55.595 36.4058C55.4836 36.486 55.4622 36.6402 55.5475 36.7506Z" fill="#FFF8E1"/>
<path d="M52.5468 22.5195C46.3815 22.5195 40.1662 25.1897 36.1524 29.7907C31.4727 35.1552 29.7639 42.5201 28.2562 49.0181C28.0803 49.7778 27.8977 50.563 27.979 51.3066C28.0529 51.9823 28.3488 52.6527 28.6349 53.3015L31.2995 59.3435C32.2193 61.4295 33.1912 63.3696 34.957 64.1874C35.7205 64.5407 36.5852 64.6565 37.5009 64.7795C38.6007 64.9269 39.738 65.0791 40.7527 65.6712C42.0478 66.4276 43.6078 68.1806 43.6846 72.239V72.2498C43.6846 72.6571 43.6768 73.0669 43.6689 73.4783C43.6456 74.7232 43.6212 76.0105 43.8286 77.2187C44.0806 78.6863 44.2268 78.8217 45.5648 78.8258C48.1071 78.8337 50.6952 78.8093 53.1978 78.7857C54.4727 78.7737 55.7473 78.7617 57.0218 78.7538C58.6616 78.7433 60.2838 78.5855 61.0439 77.5074C61.7083 76.5655 61.486 75.2887 61.2501 73.9372C61.1578 73.4078 61.0626 72.8603 61.021 72.3233C60.7911 69.346 62.3709 66.6488 63.7366 64.91C64.6118 63.7963 65.6051 62.7741 66.5654 61.7853C67.3577 60.9701 68.1767 60.1272 68.9105 59.2497C73.8276 53.3731 75.4771 44.9102 73.1133 37.6904C70.7187 30.3757 64.3515 24.6014 56.8925 22.9796C55.4672 22.6695 54.0078 22.5195 52.5468 22.5195ZM46.5652 79.9815C46.23 79.9815 45.8955 79.9811 45.561 79.98C43.4683 79.9736 43.001 79.2184 42.6909 77.414C42.4648 76.0979 42.4903 74.7551 42.5147 73.4561C42.5226 73.0542 42.5301 72.6533 42.5301 72.2551C42.4993 70.6622 42.1513 67.8247 40.1707 66.6683C39.3555 66.1924 38.3802 66.062 37.3479 65.9236C36.3872 65.795 35.3939 65.6618 34.4718 65.2348C32.3412 64.2482 31.256 62.1052 30.2432 59.8092L27.5786 53.7672C27.2722 53.0723 26.9246 52.2849 26.8316 51.4318C26.7289 50.4932 26.943 49.5712 27.132 48.7575C28.6701 42.1275 30.4134 34.6133 35.2825 29.0318C40.5161 23.0329 49.2992 20.1474 57.1377 21.8517C64.9894 23.5586 71.6906 29.6347 74.2104 37.3311C76.6954 44.9211 74.9627 53.8152 69.7962 59.9903C69.0343 60.9008 68.1999 61.7595 67.3934 62.5897C66.4537 63.5571 65.4817 64.5572 64.6444 65.6232C63.4055 67.2004 61.9704 69.6276 62.1722 72.2345C62.2093 72.7163 62.2959 73.2132 62.3874 73.7389C62.6533 75.2632 62.9281 76.8392 61.9873 78.173C60.9261 79.677 58.9773 79.8956 57.029 79.908C55.7559 79.9159 54.4825 79.9279 53.2087 79.9399C51.0312 79.9605 48.7888 79.9815 46.5652 79.9815Z" fill="#FFF8E1"/>
<path d="M46.5272 8.94144C46.3371 8.94144 46.174 8.79745 46.1545 8.60433C46.1335 8.39847 46.2835 8.21436 46.4894 8.19336C47.4786 8.09249 48.4858 8.02462 49.4825 7.99237C49.6906 7.98449 49.8631 8.14761 49.8694 8.3546C49.8762 8.56159 49.7138 8.7352 49.5068 8.74195C48.5274 8.77382 47.5378 8.8402 46.5655 8.93919L46.5272 8.94144ZM55.436 8.95681L55.3962 8.95456C54.425 8.85219 53.4355 8.78207 52.4557 8.74683C52.2487 8.73933 52.0871 8.56571 52.0946 8.35872C52.1021 8.15174 52.2738 7.99087 52.4827 7.99724C53.4797 8.03324 54.4866 8.10449 55.475 8.20873C55.6809 8.23048 55.8305 8.41535 55.8087 8.62121C55.7881 8.81357 55.6257 8.95681 55.436 8.95681ZM40.6705 9.9565C40.5017 9.9565 40.3487 9.84214 40.3067 9.67115C40.2572 9.46978 40.3799 9.26692 40.5809 9.21705C41.5472 8.97894 42.5352 8.77195 43.5173 8.60171C43.7213 8.56646 43.9155 8.70333 43.9508 8.90732C43.9864 9.1113 43.8495 9.30554 43.6455 9.34079C42.6804 9.50803 41.7099 9.71127 40.7605 9.94525L40.6705 9.9565ZM61.2894 9.9925L61.1983 9.98125C60.2492 9.74352 59.2795 9.5369 58.3154 9.36629C58.1114 9.33029 57.9753 9.13568 58.0113 8.93169C58.0477 8.7277 58.2423 8.59196 58.4459 8.62796C59.4272 8.8012 60.4146 9.01193 61.3801 9.25342C61.5811 9.30367 61.7034 9.50728 61.6527 9.70827C61.6104 9.87851 61.4574 9.9925 61.2894 9.9925ZM35.0094 11.783C34.861 11.783 34.7203 11.6942 34.6615 11.5479C34.5842 11.3555 34.6772 11.1373 34.8692 11.0601C35.7946 10.6877 36.7452 10.3439 37.6946 10.0375C37.8915 9.97375 38.103 10.0821 38.1668 10.279C38.2301 10.4762 38.1221 10.6877 37.9249 10.7511C36.9919 11.0522 36.0583 11.39 35.1493 11.7556C35.1036 11.774 35.0559 11.783 35.0094 11.783ZM66.9399 11.8374C66.8931 11.8374 66.8454 11.8284 66.7989 11.8096C65.8922 11.4414 64.9608 11.1006 64.0305 10.7968C63.8336 10.7327 63.7264 10.5208 63.7905 10.324C63.855 10.1271 64.0672 10.0203 64.2633 10.084C65.2102 10.393 66.1581 10.7398 67.0813 11.1148C67.2733 11.1928 67.3655 11.4114 67.2875 11.6034C67.2283 11.7489 67.088 11.8374 66.9399 11.8374ZM29.6585 14.3854C29.5288 14.3854 29.4024 14.3182 29.333 14.1979C29.2295 14.0183 29.2914 13.7892 29.4706 13.6857C30.335 13.1877 31.2274 12.7141 32.1236 12.278C32.3096 12.1876 32.5342 12.2652 32.625 12.4512C32.7153 12.6376 32.6381 12.8618 32.4517 12.9526C31.5713 13.3808 30.6942 13.8461 29.8452 14.3355C29.7864 14.3692 29.7219 14.3854 29.6585 14.3854ZM72.2721 14.4525C72.2084 14.4525 72.1435 14.436 72.0842 14.4019C71.2387 13.911 70.3646 13.4434 69.4868 13.0129C69.3008 12.9218 69.2239 12.6972 69.3151 12.5112C69.4065 12.3252 69.6315 12.2487 69.8168 12.3395C70.7103 12.7778 71.6002 13.2537 72.4607 13.7532C72.64 13.857 72.7007 14.0865 72.5968 14.2657C72.5275 14.3854 72.4015 14.4525 72.2721 14.4525ZM24.7238 17.7073C24.6124 17.7073 24.5018 17.6578 24.4279 17.5629C24.3004 17.3994 24.3297 17.164 24.4932 17.0365C25.2799 16.4234 26.0977 15.8305 26.9234 15.2744C27.0952 15.1586 27.328 15.2043 27.4439 15.3761C27.5594 15.5478 27.514 15.781 27.3423 15.8965C26.5308 16.4429 25.7272 17.0256 24.954 17.6282C24.8858 17.6814 24.8044 17.7073 24.7238 17.7073ZM77.1914 17.786C77.1104 17.786 77.0291 17.7602 76.9605 17.7062C76.1903 17.1021 75.3893 16.5175 74.5797 15.9689C74.408 15.8527 74.3634 15.6194 74.4796 15.4481C74.5958 15.2767 74.8291 15.2317 75.0005 15.3479C75.8243 15.9067 76.6395 16.5014 77.4232 17.116C77.5863 17.2438 77.6148 17.4797 77.4869 17.6424C77.4131 17.7369 77.3028 17.786 77.1914 17.786ZM20.2991 21.6798C20.2049 21.6798 20.1104 21.6446 20.0381 21.5741C19.8892 21.4301 19.8855 21.1927 20.0298 21.0438C20.7228 20.3288 21.4502 19.6287 22.1912 18.9631C22.3457 18.8247 22.5827 18.8371 22.7214 18.9916C22.8594 19.1457 22.8466 19.3827 22.6925 19.5211C21.9643 20.175 21.2489 20.8631 20.5683 21.5658C20.4948 21.6416 20.3965 21.6798 20.2991 21.6798ZM81.6038 21.7706C81.5056 21.7706 81.4073 21.7323 81.3335 21.6558C80.6547 20.9512 79.9419 20.2613 79.2156 19.6051C79.0618 19.4663 79.0499 19.229 79.1886 19.0752C79.3273 18.9218 79.5647 18.9095 79.7181 19.0486C80.4575 19.7164 81.1827 20.4184 81.8738 21.1357C82.0174 21.2846 82.0129 21.5219 81.8637 21.6659C81.7909 21.7361 81.6972 21.7706 81.6038 21.7706ZM16.4675 26.2249C16.3907 26.2249 16.3134 26.2013 16.2467 26.1525C16.0794 26.0303 16.0427 25.7959 16.1649 25.6287C16.7521 24.8248 17.3754 24.0309 18.0177 23.2693C18.1504 23.1111 18.3874 23.0909 18.546 23.2243C18.7043 23.3578 18.7245 23.5944 18.591 23.7527C17.9599 24.5011 17.3476 25.2811 16.7705 26.0708C16.697 26.1717 16.583 26.2249 16.4675 26.2249ZM85.423 26.3292C85.3071 26.3292 85.1927 26.2752 85.1192 26.1743C84.544 25.3816 83.9336 24.5994 83.3047 23.8494C83.172 23.6904 83.1926 23.4538 83.3512 23.3211C83.5102 23.188 83.7465 23.209 83.8796 23.3676C84.5197 24.131 85.1406 24.9271 85.7263 25.7337C85.8478 25.9013 85.8107 26.1357 85.6431 26.2575C85.5767 26.3059 85.4995 26.3292 85.423 26.3292ZM13.305 31.2549C13.2454 31.2549 13.1846 31.2406 13.1284 31.2106C12.9457 31.1128 12.8767 30.8855 12.9746 30.7029C13.4441 29.8262 13.9507 28.954 14.4813 28.1103C14.5915 27.9352 14.8229 27.8823 14.9984 27.9926C15.1735 28.1028 15.2264 28.3342 15.1161 28.5097C14.5949 29.3384 14.0969 30.1956 13.6357 31.0569C13.5682 31.1833 13.4388 31.2549 13.305 31.2549ZM88.5739 31.3749C88.4397 31.3749 88.3099 31.3025 88.2424 31.1758C87.7834 30.3114 87.2873 29.4516 86.768 28.6203C86.6585 28.4448 86.7118 28.2134 86.8876 28.1036C87.0631 27.9937 87.2945 28.0473 87.4044 28.2232C87.9327 29.0691 88.4374 29.9443 88.9046 30.824C89.0021 31.007 88.9324 31.2339 88.7494 31.331C88.6935 31.361 88.6332 31.3749 88.5739 31.3749ZM10.8759 36.6737C10.8327 36.6737 10.7892 36.6662 10.7465 36.6504C10.5523 36.5792 10.4525 36.3639 10.5238 36.1693C10.8661 35.2356 11.246 34.3016 11.6532 33.3937C11.7379 33.2048 11.9599 33.1204 12.1485 33.2048C12.3375 33.2895 12.4223 33.5115 12.3375 33.7005C11.9374 34.5926 11.5639 35.5101 11.228 36.4273C11.1721 36.5792 11.0285 36.6737 10.8759 36.6737ZM90.9899 36.8135C90.8365 36.8135 90.6929 36.719 90.6374 36.5664C90.3037 35.6459 89.9325 34.7245 89.5346 33.8287C89.4502 33.6394 89.5357 33.4177 89.7251 33.3338C89.9137 33.2498 90.1357 33.3349 90.2197 33.5242C90.625 34.4362 91.0026 35.3736 91.3424 36.3107C91.4132 36.5053 91.3124 36.7205 91.1178 36.791C91.0758 36.8064 91.0326 36.8135 90.9899 36.8135ZM9.22783 42.385L9.14909 42.3767C8.9466 42.3332 8.8176 42.1341 8.86073 41.9316C9.06884 40.9578 9.31446 39.9784 9.59082 39.021C9.64819 38.8223 9.85554 38.7076 10.055 38.7649C10.2541 38.8223 10.3689 39.0304 10.3115 39.2292C10.04 40.1696 9.79856 41.1314 9.59419 42.0884C9.55632 42.2642 9.40107 42.385 9.22783 42.385ZM92.618 42.5308C92.4444 42.5308 92.2884 42.4097 92.2513 42.2331C92.05 41.2758 91.8122 40.3128 91.5441 39.3713C91.4875 39.1722 91.603 38.9648 91.8021 38.9078C92.0008 38.8512 92.2089 38.9667 92.2656 39.1658C92.5382 40.1242 92.7804 41.1044 92.9851 42.0786C93.0279 42.2815 92.8982 42.4802 92.6957 42.523L92.618 42.5308ZM8.39388 48.2702L8.36689 48.2691C8.16027 48.2545 8.00503 48.0753 8.01966 47.8686C8.09053 46.8738 8.19702 45.87 8.33652 44.8853C8.36539 44.6806 8.55588 44.5381 8.76024 44.567C8.96535 44.5958 9.10821 44.7856 9.07896 44.9907C8.9421 45.9581 8.83711 46.9443 8.76774 47.9219C8.75349 48.1195 8.58887 48.2702 8.39388 48.2702ZM93.431 48.4191C93.2356 48.4191 93.0706 48.2676 93.0571 48.0696C92.9911 47.0913 92.8899 46.1047 92.7564 45.1373C92.7279 44.9318 92.8712 44.7428 93.0766 44.7143C93.2818 44.6855 93.4707 44.8294 93.4992 45.0346C93.635 46.0196 93.7381 47.0234 93.8056 48.0186C93.8195 48.2252 93.6635 48.4041 93.4569 48.4184L93.431 48.4191ZM8.38639 54.3138C8.19102 54.3138 8.0264 54.1623 8.01253 53.9647C7.94428 52.9736 7.90979 51.9653 7.90979 50.9667V50.8666C7.91017 50.6596 8.08903 50.48 8.28589 50.4927C8.49288 50.4935 8.66012 50.6615 8.65975 50.8688V50.9667C8.65975 51.948 8.69386 52.9395 8.76061 53.9129C8.77486 54.1195 8.61887 54.2988 8.41264 54.3126L8.38639 54.3138ZM93.425 54.364L93.3984 54.3629C93.1917 54.3486 93.0361 54.1694 93.0504 53.9628C93.119 52.989 93.1539 51.9975 93.155 51.0158C93.1554 50.8088 93.3234 50.6412 93.53 50.6412H93.5307C93.7377 50.6416 93.9053 50.8096 93.905 51.0166C93.9038 52.0155 93.8682 53.0242 93.7988 54.0153C93.785 54.2129 93.62 54.364 93.425 54.364ZM9.20646 60.2009C9.03284 60.2009 8.87723 60.0802 8.83973 59.9036C8.63386 58.9305 8.45988 57.9361 8.32263 56.9484C8.29376 56.7432 8.43701 56.5539 8.64212 56.525C8.84761 56.4965 9.0366 56.6398 9.06547 56.8449C9.20046 57.8153 9.37145 58.7921 9.57356 59.7483C9.61631 59.9512 9.48694 60.1499 9.28408 60.193L9.20646 60.2009ZM92.5982 60.2504L92.5198 60.2422C92.3169 60.199 92.1879 59.9999 92.2311 59.7974C92.4343 58.8412 92.6064 57.8648 92.7425 56.8944C92.7714 56.6892 92.96 56.546 93.1663 56.5752C93.3714 56.6037 93.5142 56.7935 93.4854 56.9986C93.3466 57.9863 93.1715 58.9804 92.9645 59.9534C92.927 60.1297 92.7714 60.2504 92.5982 60.2504ZM10.8417 65.9163C10.6884 65.9163 10.5448 65.8218 10.4893 65.6696C10.1488 64.734 9.83718 63.7737 9.56307 62.8156C9.50607 62.6165 9.62156 62.4088 9.8203 62.3518C10.0198 62.2952 10.2272 62.4103 10.2842 62.6094C10.5534 63.5506 10.8594 64.494 11.1942 65.4131C11.2651 65.6077 11.1646 65.823 10.97 65.8938C10.9276 65.9092 10.8841 65.9163 10.8417 65.9163ZM90.9558 65.9636C90.913 65.9636 90.8699 65.9564 90.8271 65.9407C90.6325 65.8698 90.5328 65.6546 90.6037 65.46C90.9396 64.5402 91.2467 63.5975 91.5167 62.6574C91.5741 62.4583 91.7818 62.3432 91.981 62.4005C92.1797 62.4575 92.2948 62.6653 92.2378 62.8644C91.9626 63.8213 91.6499 64.7813 91.3079 65.7172C91.2528 65.8695 91.1088 65.9636 90.9558 65.9636ZM13.2649 71.3524C13.1306 71.3524 13.0009 71.28 12.9334 71.1536C12.4643 70.2732 12.021 69.365 11.6153 68.4549C11.5309 68.2656 11.6157 68.0439 11.8051 67.9596C11.994 67.8752 12.2157 67.9603 12.3 68.1497C12.6986 69.0436 13.1347 69.9357 13.5952 70.8008C13.6927 70.9838 13.6233 71.2106 13.4407 71.3081C13.3845 71.3381 13.3241 71.3524 13.2649 71.3524ZM88.5327 71.385C88.473 71.385 88.4127 71.3708 88.3564 71.3408C88.1738 71.2433 88.1044 71.016 88.2019 70.8334C88.6628 69.9706 89.0985 69.0808 89.4975 68.1883C89.5819 67.9993 89.8038 67.9146 89.9928 67.999C90.1818 68.0833 90.2666 68.3053 90.1822 68.4943C89.7761 69.4025 89.3325 70.3084 88.8638 71.1866C88.7963 71.313 88.6665 71.385 88.5327 71.385ZM16.4214 76.3943C16.3055 76.3943 16.1912 76.3407 16.1177 76.2398C15.5308 75.4336 14.9654 74.5967 14.437 73.7526C14.3272 73.5771 14.3804 73.3458 14.5559 73.2359C14.7314 73.1257 14.9627 73.1793 15.0726 73.3548C15.592 74.1838 16.1477 75.0062 16.7244 75.7989C16.8463 75.9661 16.8091 76.2008 16.6415 76.3227C16.5751 76.3711 16.4979 76.3943 16.4214 76.3943ZM85.3757 76.4187C85.2992 76.4187 85.222 76.3955 85.1552 76.3467C84.988 76.2248 84.9512 75.9901 85.0731 75.8229C85.6495 75.032 86.2052 74.2108 86.7249 73.3825C86.8347 73.207 87.0661 73.1538 87.2416 73.264C87.4171 73.3739 87.4704 73.6053 87.3601 73.7807C86.8314 74.6241 86.2655 75.4599 85.6791 76.2646C85.6056 76.3651 85.4916 76.4187 85.3757 76.4187ZM20.2451 80.9484C20.1476 80.9484 20.0497 80.9098 19.9758 80.8337C19.284 80.1175 18.6083 79.3671 17.9675 78.6041C17.834 78.4455 17.8546 78.2092 18.0128 78.0757C18.1718 77.943 18.4084 77.9632 18.5412 78.1219C19.1711 78.8718 19.8352 79.609 20.5154 80.3129C20.659 80.4617 20.6553 80.6991 20.506 80.8431C20.4333 80.9132 20.3396 80.9484 20.2451 80.9484ZM81.5502 80.9679C81.4565 80.9679 81.3623 80.9331 81.2896 80.8626C81.1407 80.7186 81.1366 80.4812 81.2806 80.3324C81.9615 79.6281 82.626 78.8917 83.2552 78.1432C83.3887 77.9846 83.6253 77.9644 83.7836 78.0975C83.9422 78.231 83.9628 78.4672 83.8293 78.6258C83.1889 79.3878 82.5128 80.137 81.8198 80.8536C81.7463 80.9297 81.6481 80.9679 81.5502 80.9679ZM24.6616 84.9277C24.5809 84.9277 24.4996 84.9018 24.4309 84.8482C23.6465 84.2344 22.8737 83.5849 22.1338 82.9186C21.9801 82.7798 21.9677 82.5428 22.1064 82.3887C22.2452 82.235 22.4822 82.2226 22.6359 82.3614C23.363 83.0164 24.1223 83.6543 24.8929 84.2576C25.056 84.3851 25.0849 84.621 24.9574 84.7841C24.8832 84.8786 24.7729 84.9277 24.6616 84.9277ZM77.1303 84.9457C77.019 84.9457 76.9083 84.8962 76.8345 84.8013C76.707 84.6382 76.7359 84.4027 76.899 84.2752C77.6707 83.6723 78.4308 83.0348 79.1586 82.3797C79.3123 82.241 79.5497 82.2537 79.688 82.4075C79.8264 82.5616 79.814 82.7986 79.6599 82.937C78.9193 83.6037 78.1458 84.2527 77.3609 84.8662C77.2923 84.9198 77.211 84.9457 77.1303 84.9457ZM29.5846 88.2556C29.5209 88.2556 29.456 88.2395 29.3971 88.2054C28.5358 87.7067 27.6809 87.1712 26.8555 86.6132C26.6842 86.4974 26.6392 86.2641 26.7551 86.0928C26.8709 85.921 27.1042 85.876 27.2759 85.9919C28.0866 86.5401 28.9265 87.0666 29.7729 87.5563C29.9521 87.6602 30.0132 87.8893 29.9094 88.0685C29.84 88.1885 29.714 88.2556 29.5846 88.2556ZM72.1998 88.2733C72.0704 88.2733 71.9444 88.2061 71.875 88.0858C71.7711 87.9065 71.8326 87.677 72.0119 87.5735C72.8597 87.0838 73.7012 86.5574 74.513 86.0095C74.6851 85.8937 74.918 85.9386 75.0338 86.1104C75.1497 86.2821 75.1043 86.515 74.933 86.6309C74.1065 87.1888 73.2501 87.7243 72.3872 88.223C72.328 88.2571 72.2635 88.2733 72.1998 88.2733ZM34.9202 90.8647C34.8733 90.8647 34.8261 90.8561 34.7796 90.8374C33.8579 90.4639 32.9369 90.0529 32.0426 89.6157C31.8566 89.5249 31.7798 89.3003 31.8705 89.114C31.9616 88.928 32.1862 88.8511 32.3722 88.9418C33.2508 89.3716 34.1553 89.7754 35.0612 90.1422C35.2532 90.2198 35.3458 90.4384 35.2682 90.6304C35.2089 90.7762 35.0687 90.8647 34.9202 90.8647ZM66.8514 90.882C66.703 90.882 66.5627 90.7935 66.5038 90.6472C66.4262 90.4552 66.5188 90.2366 66.7112 90.1594C67.6194 89.7927 68.5265 89.3888 69.4073 88.9591C69.5929 88.8683 69.8179 88.9456 69.9086 89.132C69.9994 89.3179 69.9221 89.5426 69.7361 89.6333C68.8396 90.0705 67.916 90.4815 66.9917 90.8546C66.9455 90.8734 66.8983 90.882 66.8514 90.882ZM40.5741 92.7032L40.483 92.692C39.5163 92.4513 38.5458 92.173 37.599 91.8648C37.4018 91.801 37.2942 91.5892 37.3583 91.3923C37.4224 91.1955 37.6343 91.0878 37.8308 91.152C38.7615 91.4542 39.7147 91.7275 40.6645 91.9642C40.8655 92.014 40.9877 92.2176 40.9378 92.4186C40.8951 92.5892 40.7421 92.7032 40.5741 92.7032ZM61.1919 92.7152C61.0235 92.7152 60.8705 92.6012 60.8282 92.4303C60.7783 92.2293 60.9009 92.026 61.1019 91.9762C62.0517 91.7407 63.0057 91.4684 63.9363 91.167C64.1336 91.1036 64.3451 91.2112 64.4088 91.4084C64.4726 91.6053 64.3646 91.8168 64.1677 91.8805C63.2198 92.1876 62.2493 92.4644 61.2823 92.704L61.1919 92.7152ZM46.4287 93.7318L46.3893 93.7296C45.3978 93.6261 44.3981 93.4862 43.4179 93.3141C43.2139 93.2785 43.0778 93.0838 43.1138 92.8802C43.1495 92.6759 43.3448 92.5398 43.5481 92.5758C44.511 92.7449 45.4931 92.8821 46.4673 92.9837C46.6731 93.0055 46.8227 93.1896 46.8014 93.3958C46.7811 93.5886 46.6184 93.7318 46.4287 93.7318ZM55.3359 93.7371C55.1461 93.7371 54.983 93.5934 54.9631 93.4003C54.9421 93.1945 55.0918 93.0103 55.2976 92.989C56.2726 92.8885 57.2546 92.752 58.2176 92.5844C58.4208 92.5488 58.6158 92.6852 58.6514 92.8892C58.687 93.0932 58.5505 93.2875 58.3466 93.3231C57.3667 93.4941 56.3667 93.6324 55.3749 93.7348L55.3359 93.7371ZM50.9074 93.9643C50.4004 93.9643 49.8871 93.9553 49.3816 93.9377C49.175 93.9305 49.013 93.7569 49.0201 93.5499C49.0272 93.3429 49.2005 93.1821 49.4078 93.1881C50.388 93.2222 51.3813 93.2226 52.3567 93.19C52.5621 93.1843 52.7373 93.3452 52.7444 93.5522C52.7511 93.7592 52.5891 93.9324 52.3822 93.9395C51.8924 93.956 51.4008 93.9643 50.9074 93.9643Z" fill="#89C0C1"/>
<path d="M51.0411 16.8331C55.6894 16.8331 59.4579 13.0646 59.4579 8.41638C59.4579 3.76815 55.6894 0 51.0411 0C46.3929 0 42.6244 3.76815 42.6244 8.41638C42.6244 13.0646 46.3929 16.8331 51.0411 16.8331Z" fill="#1E5656"/>
<path d="M52.4489 13.1578V9.8794H55.7274C56.0165 9.8794 56.2508 9.64504 56.2508 9.35593V7.45629C56.2508 7.16718 56.0165 6.93282 55.7274 6.93282H52.4489V3.65439C52.4489 3.36528 52.2146 3.13092 51.9255 3.13092H50.0258C49.7367 3.13092 49.5023 3.36528 49.5023 3.65439V6.93282H46.2235C45.9348 6.93282 45.7004 7.16718 45.7004 7.45629V9.35593C45.7004 9.64504 45.9348 9.8794 46.2235 9.8794H49.5023V13.1578C49.5023 13.4469 49.7367 13.6813 50.0258 13.6813H51.9255C52.2146 13.6813 52.4489 13.4469 52.4489 13.1578Z" fill="#FF9D46"/>
<path d="M51.0411 102C55.6894 102 59.4579 98.2315 59.4579 93.5833C59.4579 88.935 55.6894 85.1665 51.0411 85.1665C46.3929 85.1665 42.6244 88.935 42.6244 93.5833C42.6244 98.2315 46.3929 102 51.0411 102Z" fill="#1E5656"/>
<path d="M85.2488 51.0137C85.2488 55.6619 89.0173 59.4305 93.6655 59.4305C98.3141 59.4305 102.082 55.6619 102.082 51.0137C102.082 46.3655 98.3141 42.597 93.6655 42.597C89.0173 42.597 85.2488 46.3655 85.2488 51.0137Z" fill="#1E5656"/>
<path d="M0 51.0137C0 55.6619 3.76815 59.4305 8.41675 59.4305C13.065 59.4305 16.8335 55.6619 16.8335 51.0137C16.8335 46.3655 13.065 42.597 8.41675 42.597C3.76815 42.597 0 46.3655 0 51.0137Z" fill="#1E5656"/>
<path d="M13.3542 48.1287C12.6793 47.3071 11.6904 46.8358 10.6409 46.8358H10.639C9.83543 46.8362 9.06822 47.1133 8.448 47.6101C7.72992 47.0311 6.8251 46.7484 5.90415 46.8452C4.69635 46.9723 3.63629 47.7267 3.06932 48.8633C2.50985 49.9848 2.49186 51.3209 3.02133 52.4372C3.58904 53.6349 4.62248 54.1745 5.65442 54.5794L5.79391 54.6338C6.61623 54.9544 7.3932 55.257 7.72805 55.9642C7.85629 56.2346 8.12552 56.3932 8.40638 56.3932L8.44914 56.3883L8.4915 56.3932C8.77198 56.3932 9.04047 56.2354 9.16909 55.9654C9.50244 55.2649 10.261 54.9664 11.0639 54.6507C11.1722 54.6079 11.2795 54.566 11.3845 54.5232C12.2795 54.1591 13.5278 53.5066 14.0356 52.0495C14.4949 50.7311 14.2275 49.1921 13.3542 48.1287Z" fill="#FF9D46"/>
<path d="M56.9311 93.6002C56.9311 91.278 54.2695 89.396 50.9862 89.396C47.7029 89.396 45.0413 91.278 45.0413 93.6002C45.0413 95.9221 47.7029 97.8045 50.9862 97.8045C51.7099 97.8045 52.4002 97.7085 53.0418 97.5412L52.9574 98.7607L54.343 97.0691C55.9051 96.3113 56.9311 95.0409 56.9311 93.6002Z" fill="#FF9D46"/>
<path d="M48.9731 93.186C48.7429 93.186 48.5569 93.3724 48.5569 93.6023C48.5569 93.8321 48.7429 94.0181 48.9731 94.0181C49.2026 94.0181 49.389 93.8321 49.389 93.6023C49.389 93.3724 49.2026 93.186 48.9731 93.186Z" fill="#074343"/>
<path d="M50.9504 93.186C50.7205 93.186 50.5342 93.3724 50.5342 93.6023C50.5342 93.8321 50.7205 94.0181 50.9504 94.0181C51.1802 94.0181 51.3666 93.8321 51.3666 93.6023C51.3666 93.3724 51.1802 93.186 50.9504 93.186Z" fill="#074343"/>
<path d="M52.9278 93.186C52.698 93.186 52.5116 93.3724 52.5116 93.6023C52.5116 93.8321 52.698 94.0181 52.9278 94.0181C53.1577 94.0181 53.3437 93.8321 53.3437 93.6023C53.3437 93.3724 53.1577 93.186 52.9278 93.186Z" fill="#074343"/>
<path d="M96.8326 51.0137C96.8326 52.7449 95.4242 54.1534 93.6929 54.1534C91.9616 54.1534 90.5532 52.7449 90.5532 51.0137C90.5532 49.2824 91.9616 47.874 93.6929 47.874C95.4242 47.874 96.8326 49.2824 96.8326 51.0137ZM99.0611 51.8592V50.1681H97.9084C97.7967 49.6094 97.5762 49.09 97.2702 48.6322L98.0869 47.8159L96.8911 46.6197L96.0744 47.4364C95.6165 47.1304 95.0972 46.9099 94.5385 46.7982V45.6455H92.8473V46.7982C92.2886 46.9099 91.7696 47.1304 91.3114 47.4364L90.4947 46.6197L89.2989 47.8159L90.1156 48.6322C89.8096 49.09 89.5891 49.6097 89.4774 50.1681H88.3247V51.8592H89.4774C89.5891 52.4176 89.8096 52.9373 90.1156 53.3952L89.2989 54.2115L90.4947 55.4077L91.3114 54.591C91.7692 54.8969 92.2886 55.1174 92.8473 55.2292V56.3819H94.5385V55.2292C95.0972 55.1174 95.6165 54.8969 96.0744 54.591L96.8911 55.4077L98.0869 54.2115L97.2702 53.3952C97.5762 52.9373 97.7967 52.4176 97.9084 51.8592H99.0611Z" fill="#FF9D46"/>
</svg>
