<svg width="102" height="102" viewBox="0 0 102 102" fill="none" xmlns="http://www.w3.org/2000/svg">
<path opacity="0.2" d="M57.8019 54.2702C57.6215 54.2702 57.4403 54.2618 57.2584 54.2453C55.0371 54.0418 53.121 52.6677 51.3275 51.3415C51.3092 51.328 51.2909 51.3144 51.2726 51.3009C56.0922 47.738 60.9121 44.1751 65.732 40.6126C65.7887 41.0572 65.833 41.504 65.8641 41.9523C66.0624 44.7965 65.7448 47.772 64.2978 50.2286C62.9431 52.5283 60.4444 54.2702 57.8019 54.2702ZM36.8132 40.6126C35.9602 39.982 35.1079 39.3519 34.2549 38.7214C34.6724 35.6661 35.6616 32.6393 37.1623 29.857C39.0269 26.4002 41.6405 23.3958 44.7203 21.1683C45.6172 20.5194 46.5665 19.9248 47.5597 19.3872C48.412 19.6236 49.2511 19.9065 50.0719 20.2373C50.4774 20.4005 50.8778 20.5751 51.2726 20.7602C43.5489 24.3857 37.8953 32.1493 36.8132 40.6126ZM33.5226 38.1801C32.4317 37.3736 31.3405 36.567 30.2496 35.7605C28.407 34.3988 26.5308 33.0023 25.2181 31.1246C24.1375 29.5796 22.9661 26.6831 23.9615 24.8234C24.8119 23.234 27.5379 22.014 29.0811 21.2433C32.7109 19.4293 36.7733 18.4844 40.8314 18.4844C41.37 18.4844 41.9076 18.5012 42.4452 18.5345C43.7849 18.618 45.1188 18.8068 46.4282 19.1028C45.674 19.542 44.9468 20.014 44.2504 20.518C41.0729 22.8161 38.3777 25.9139 36.4561 29.4764C34.9809 32.2115 33.9852 35.1771 33.5226 38.1801Z" fill="#FFF8E1"/>
<path d="M77.7789 86.9696H78.5814V84.5536C78.9364 77.392 82.0378 74.3996 83.8554 73.2535C86.0471 71.8716 86.6187 71.748 88.316 71.3809C88.7892 71.2784 89.3784 71.1511 90.1051 70.9732C90.4297 70.8942 90.7558 70.8188 91.0822 70.7431C92.4593 70.4247 93.8832 70.0953 95.194 69.467C97.0991 68.5536 98.4221 67.0924 98.8228 65.4577C99.2388 63.7608 98.5329 62.0038 97.9097 60.4537C97.819 60.2282 97.7293 60.005 97.644 59.7847C97.4387 59.2548 97.5046 58.6301 97.8153 58.1544C97.8977 58.0285 97.9994 57.9074 98.1066 57.7789C98.2618 57.5941 98.4221 57.4031 98.5487 57.1704C98.874 56.5739 98.8857 55.8266 98.5787 55.2199C98.4246 54.915 98.1553 54.6303 97.838 54.4133C98.0502 54.2479 98.2292 54.0393 98.3573 53.7996C98.7415 53.0772 98.6811 52.3523 98.2028 51.9523C97.4215 51.2987 96.7584 50.6934 96.5579 49.9019C96.4891 49.6307 96.4862 49.4181 96.5535 49.1396C97.3074 48.6339 98.1381 48.0575 98.7342 47.2645C99.4657 46.2911 99.6945 45.0981 99.3314 44.1503C98.9706 43.2094 98.1231 42.6162 97.4417 42.1398C96.8803 41.7471 96.2977 41.376 95.7345 41.0174C94.1653 40.0176 92.6829 39.0731 91.5664 37.6704C90.6811 36.5583 90.1981 35.2193 89.6865 33.8012C89.479 33.226 89.2645 32.6309 89.0219 32.0575C87.8114 29.1972 85.8634 26.7604 83.9791 24.4036C81.8658 21.7604 77.904 19.2679 76.7403 18.5671C70.7706 14.9713 65.9272 14.8527 60.6623 15.0635C54.6114 15.3054 48.7854 17.242 44.2579 20.5173C41.0804 22.8154 38.3852 25.9132 36.4636 29.4757C34.5423 33.0382 33.4339 36.9916 33.2586 40.909C33.0833 44.8265 33.8342 48.8633 35.4301 52.5832C37.0257 56.3031 39.4336 59.6288 42.3927 62.2014C44.928 64.4056 46.4569 65.9286 48.6855 68.4694C52.5997 72.9325 53.4875 79.7623 50.8435 85.0777L51.5619 85.4348C54.3468 79.8358 53.4121 72.642 49.2886 67.9403C47.0333 65.3684 45.4853 63.827 42.9193 61.5962C40.0506 59.1022 37.7159 55.876 36.1675 52.2667C34.6188 48.6573 33.8902 44.7424 34.0604 40.9449C34.2302 37.1475 35.3053 33.3131 37.1699 29.8563C39.0344 26.3995 41.648 23.3951 44.7278 21.1676C49.1291 17.9838 54.7995 16.101 60.6942 15.8653C66.9168 15.6165 71.0432 16.0725 76.3264 19.2544C77.4616 19.938 81.3224 22.3657 83.3526 24.9046C85.2025 27.2189 87.1157 29.6118 88.2831 32.37C88.5173 32.9237 88.7281 33.5081 88.9319 34.0735C89.4428 35.4901 89.9708 36.955 90.9388 38.1703C92.1387 39.6776 93.7474 40.703 95.3034 41.694C95.8597 42.0483 96.4346 42.4146 96.9817 42.7974C97.7081 43.3053 98.3298 43.7792 98.582 44.4375C98.8989 45.2646 98.5373 46.1912 98.0931 46.7822C97.5456 47.5104 96.7508 48.0421 95.9823 48.5563C95.9043 48.6083 95.8472 48.6862 95.8209 48.7762C95.6771 49.2622 95.6654 49.6457 95.7803 50.0988C96.0609 51.2065 97.0014 51.9933 97.6883 52.5678C97.8859 52.7332 97.8062 53.1266 97.6488 53.4227C97.4772 53.7447 97.1317 53.9778 96.7687 54.0159C96.5667 54.0368 96.4126 54.2055 96.4093 54.4086C96.406 54.6113 96.5553 54.7847 96.7562 54.8122C97.1742 54.8693 97.6806 55.2217 97.8629 55.5818C98.0492 55.9507 98.0422 56.4238 97.8442 56.7865C97.7557 56.949 97.6276 57.1019 97.4918 57.2637C97.374 57.4042 97.2521 57.5495 97.1438 57.7153C96.6937 58.4036 96.5985 59.3075 96.8957 60.0745C96.9824 60.2981 97.0732 60.5243 97.165 60.753C97.7714 62.2611 98.3983 63.8204 98.0437 65.2666C97.7 66.6671 96.5352 67.9344 94.8471 68.7431C93.616 69.3334 92.236 69.6525 90.9014 69.9614C90.5717 70.0375 90.2424 70.114 89.9145 70.1938C89.1983 70.369 88.6395 70.4898 88.1462 70.5963C86.3944 70.9754 85.739 71.1171 83.4273 72.5746C81.3271 73.8994 79.7737 76.008 78.8108 78.8423C78.2356 80.5351 77.8788 82.4999 77.7796 84.524L77.7789 84.5437V86.9696Z" fill="#FFF8E1"/>
<path opacity="0.2" d="M44.7799 54.2702C42.1374 54.2698 39.6387 52.5283 38.2843 50.2286C36.8374 47.772 36.5194 44.7965 36.7177 41.9523C36.7492 41.504 36.7935 41.0572 36.8502 40.6126C41.6697 44.1751 46.4897 47.738 51.3096 51.3009C51.2909 51.3144 51.273 51.328 51.2543 51.3415C49.4608 52.6677 47.5447 54.0418 45.3234 54.2453C45.1419 54.2618 44.9607 54.2702 44.7799 54.2702ZM65.769 40.6126C64.6868 32.1493 59.0333 24.3857 51.3096 20.7602C51.7044 20.5751 52.1044 20.4005 52.5099 20.2373C54.938 19.2595 57.5259 18.697 60.1366 18.5345C60.6742 18.5012 61.2122 18.4844 61.7508 18.4844C65.8085 18.4844 69.8709 19.4293 73.5011 21.2433C75.0439 22.014 77.7699 23.234 78.6203 24.8234C79.6157 26.6831 78.4443 29.5796 77.364 31.1246C76.051 33.0023 74.1748 34.3988 72.3326 35.7605C70.1446 37.378 67.9566 38.9951 65.769 40.6126Z" fill="#FFF8E1"/>
<path opacity="0.8" d="M51.1239 51.3033C46.304 47.7404 41.4841 44.1775 36.6646 40.615C37.7467 32.1517 43.4002 24.3881 51.1239 20.7626C58.8477 24.3881 64.5012 32.1517 65.5833 40.615C60.7634 44.1775 55.9435 47.7404 51.1239 51.3033Z" fill="#6EA994"/>
<path d="M57.7191 31.324C56.8294 30.2059 55.526 29.5644 54.1425 29.5644H54.1401C53.0808 29.5649 52.0695 29.9421 51.252 30.6183C50.3055 29.8303 49.1128 29.4455 47.8989 29.5772C46.3068 29.7502 44.9095 30.777 44.1622 32.3238C43.4247 33.8502 43.401 35.6685 44.0989 37.1877C44.8472 38.8177 46.2095 39.5521 47.5697 40.1033L47.7536 40.1773C48.8375 40.6136 49.8616 41.0254 50.303 41.9879C50.4721 42.3559 50.8269 42.5717 51.1972 42.5717L51.2535 42.5651L51.3093 42.5717C51.6791 42.5717 52.033 42.3569 52.2025 41.9895C52.6419 41.0362 53.6418 40.6299 54.7001 40.2002C54.8429 40.1421 54.9843 40.0849 55.1227 40.0267C56.3025 39.5312 57.9479 38.6432 58.6172 36.6601C59.2226 34.8657 58.8702 32.7713 57.7191 31.324Z" fill="#FFF8E1"/>
<path d="M23.5004 44.2388C22.4347 44.2388 21.3691 44.0182 20.3792 43.5775C18.4547 42.7205 16.824 41.032 15.9051 38.9446C15.8015 38.7093 15.908 38.4349 16.1433 38.3313C16.3783 38.2277 16.6531 38.3342 16.7566 38.5695C17.5837 40.4479 19.042 41.9634 20.7579 42.7271C22.4603 43.4853 24.4189 43.5025 26.1315 42.7743C26.3683 42.6733 26.6413 42.7838 26.7419 43.0202C26.8426 43.2566 26.7324 43.53 26.496 43.6306C25.542 44.0361 24.5214 44.2388 23.5004 44.2388Z" fill="#FFF8E1"/>
<path d="M78.9683 44.2388C80.0339 44.2388 81.0996 44.0182 82.0891 43.5775C84.014 42.7205 85.6447 41.032 86.5636 38.9446C86.6671 38.7093 86.5606 38.4349 86.3253 38.3313C86.09 38.2277 85.8156 38.3342 85.712 38.5695C84.885 40.4479 83.4267 41.9634 81.7107 42.7271C80.0083 43.4853 78.0498 43.5025 76.3371 42.7743C76.1004 42.6733 75.8274 42.7838 75.7267 43.0202C75.6261 43.2566 75.7362 43.53 75.9726 43.6306C76.9267 44.0361 77.9473 44.2388 78.9683 44.2388Z" fill="#FFF8E1"/>
<path d="M75.7734 45.3148C75.6497 45.3148 75.5337 45.2368 75.4912 45.1131C75.4382 44.9572 75.5213 44.7878 75.6771 44.7344C76.3929 44.4892 77.0301 44.016 77.4718 43.4012C77.5676 43.2676 77.7535 43.2369 77.8878 43.3331C78.0214 43.429 78.0522 43.6157 77.9559 43.7492C77.4432 44.4636 76.7022 45.014 75.87 45.2987L75.7734 45.3148Z" fill="#FFF8E1"/>
<path d="M77.7037 45.9319C77.6053 45.9319 77.5094 45.8836 77.4523 45.7947C77.3634 45.6563 77.4036 45.4715 77.542 45.3826C78.2029 44.9585 78.7591 44.3748 79.1514 43.6945C79.2334 43.5518 79.416 43.5027 79.5587 43.5851C79.7014 43.6674 79.7505 43.8496 79.6681 43.9923C79.2286 44.755 78.605 45.4089 77.8644 45.8847C77.8146 45.9165 77.759 45.9319 77.7037 45.9319Z" fill="#FFF8E1"/>
<path d="M69.2426 40.909C69.0673 36.9916 67.9592 33.0382 66.0376 29.4757C64.116 25.9132 61.4207 22.8154 58.2436 20.5173C53.7157 17.242 47.8898 15.3054 41.8392 15.0635C36.5739 14.8527 31.7309 14.9713 25.7608 18.5671C24.5971 19.2679 20.6354 21.7604 18.522 24.404C16.6381 26.7604 14.6898 29.1969 13.4792 32.0575C13.2366 32.6309 13.0222 33.226 12.8147 33.8012C12.3034 35.2193 11.8204 36.5583 10.9348 37.6704C9.81827 39.0731 8.33617 40.0176 6.76662 41.0174C6.20342 41.376 5.62119 41.7471 5.05946 42.1398C4.37807 42.6162 3.53016 43.2094 3.1697 44.1503C2.80668 45.0981 3.0354 46.2914 3.76657 47.2645C4.06847 47.6656 4.36526 47.9697 4.82672 48.3276L4.82599 48.3287L4.84611 48.3426C5.07556 48.5193 5.3438 48.7096 5.67682 48.9332C6.75893 49.7478 7.83885 50.7941 7.88788 52.0024C7.93216 53.097 7.46302 54.2029 7.04876 55.1781C6.50716 56.4549 6.07387 57.3482 5.65486 58.2119C5.58277 58.3605 5.51141 58.5101 5.43932 58.6609L5.43822 58.6591L5.43273 58.6752C5.34454 58.8611 5.25598 59.0499 5.16559 59.246C5.04336 59.4971 4.92296 59.7415 4.90759 59.7807C4.82233 60.001 4.68217 60.2282 4.59141 60.4537C3.96857 62.0038 3.26229 63.7608 3.67837 65.4577C4.07908 67.0924 5.40199 68.5536 7.30712 69.4666C8.61832 70.0953 10.0422 70.4247 11.4189 70.7431C11.7454 70.8188 12.0718 70.8942 12.396 70.9736C13.1228 71.1511 13.712 71.2784 14.1855 71.3809C15.8824 71.748 16.454 71.8716 18.6457 73.2535C20.4634 74.3996 23.5648 77.392 23.9198 84.5536V86.9696H24.7223V84.5437L24.7219 84.5243C24.6224 82.4999 24.2656 80.5351 23.6907 78.8423C22.7275 76.008 21.1744 73.8994 19.0739 72.5746C16.7622 71.1171 16.1064 70.9754 14.3549 70.5967C13.862 70.4898 13.3032 70.369 12.5867 70.1938C12.2591 70.114 11.9298 70.0375 11.6001 69.9614C10.2651 69.6525 8.88509 69.3334 7.65404 68.7431C5.96628 67.934 4.8011 66.6671 4.45748 65.2666C4.13361 63.9459 4.62837 62.5312 5.1784 61.1472C5.63217 60.1035 6.0113 59.3218 6.37944 58.5635C6.80285 57.6904 7.24052 56.7883 7.79017 55.4929C8.23736 54.4393 8.74421 53.2448 8.69261 51.9699C8.61576 50.0757 6.69818 48.6749 5.25415 47.6579C4.94089 47.3918 4.6507 47.1053 4.40807 46.7822C3.96381 46.1912 3.60225 45.2646 3.91917 44.4375C4.17131 43.7792 4.79305 43.3053 5.51946 42.7974C6.06692 42.4146 6.64183 42.0483 7.1977 41.694C8.75372 40.703 10.3624 39.6776 11.5627 38.1703C12.5303 36.955 13.0587 35.4901 13.5696 34.0735C13.7734 33.5081 13.9842 32.9237 14.2181 32.3704C15.3855 29.6115 17.2986 27.2189 19.1489 24.9046C21.1788 22.3653 25.0399 19.938 26.1751 19.2544C31.4583 16.0721 35.5847 15.6165 41.807 15.8653C47.7017 16.101 53.3721 17.9838 57.7733 21.1676C60.8532 23.3951 63.4664 26.3999 65.3313 29.8567C67.1958 33.3134 68.2713 37.1475 68.4411 40.9449C68.6109 44.7424 67.8823 48.6573 66.334 52.2667C64.7853 55.876 62.4505 59.1022 59.5819 61.5958C57.0158 63.827 55.4682 65.3684 53.2125 67.9406C49.0894 72.642 48.1544 79.8358 50.9392 85.4348L51.6576 85.0777C49.014 79.7623 49.9014 72.9325 53.8156 68.4694C56.0442 65.9286 57.5732 64.4056 60.1085 62.2014C63.0675 59.6288 65.4755 56.3031 67.0714 52.5832C68.6669 48.8633 69.4178 44.8265 69.2426 40.909Z" fill="#FFF8E1"/>
</svg>
