<svg width="102" height="102" viewBox="0 0 102 102" fill="none" xmlns="http://www.w3.org/2000/svg">
<path d="M64.5298 14.6504C73.6414 18.3202 80.2896 27.4618 80.9729 37.2608C81.1796 40.2225 80.8486 43.3206 79.3419 45.8787C77.8352 48.4368 74.9691 50.3318 72.0127 50.0611C69.6996 49.8491 67.7045 48.4181 65.8368 47.0377C58.5213 41.6296 51.2054 36.2217 43.8898 30.8139C41.9711 29.3959 40.0177 27.9422 38.6507 25.9871C37.5257 24.3781 36.306 21.3623 37.3423 19.4259C38.228 17.7709 41.0664 16.5008 42.6728 15.6978C46.9543 13.5587 51.8124 12.5804 56.5882 12.8777C59.3066 13.0471 62.0017 13.6324 64.5298 14.6504Z" fill="#3F7C77"/>
<path d="M38.6177 84.9373H37.7824V82.4215C37.4127 74.9647 34.1833 71.8489 32.2909 70.6555C30.0088 69.2165 29.4135 69.0878 27.6464 68.7055C27.1537 68.5991 26.54 68.4665 25.7833 68.2815C25.4457 68.1988 25.106 68.1205 24.766 68.0418C23.3323 67.7101 21.8496 67.3671 20.4849 66.7127C18.5005 65.7617 17.1238 64.2403 16.7064 62.5383C16.2731 60.7716 17.0084 58.9419 17.6571 57.3278C17.7514 57.0931 17.8448 56.8608 17.9338 56.6315C18.1475 56.0798 18.0788 55.4291 17.7551 54.9337C17.6694 54.8027 17.5638 54.6767 17.4518 54.5431C17.2904 54.3504 17.1234 54.1514 16.9918 53.9094C16.6531 53.288 16.6407 52.51 16.9604 51.8783C17.1208 51.561 17.4014 51.2646 17.7318 51.0383C17.5104 50.8663 17.3241 50.6493 17.1911 50.3993C16.7908 49.6473 16.8538 48.8922 17.3518 48.4759C18.1651 47.7955 18.8558 47.1652 19.0645 46.3408C19.1362 46.0585 19.1392 45.8371 19.0691 45.5471C18.2841 45.0208 17.4191 44.4208 16.7984 43.5947C16.0367 42.5814 15.7987 41.339 16.1767 40.3523C16.5521 39.3723 17.4351 38.7549 18.1441 38.2589C18.7291 37.8499 19.3355 37.4636 19.9218 37.0902C21.5559 36.0492 23.0993 35.0658 24.262 33.6055C25.184 32.4474 25.6867 31.0527 26.2194 29.5763C26.4354 28.9773 26.6587 28.358 26.9114 27.761C28.1717 24.7825 30.2001 22.2451 32.1619 19.7914C34.3626 17.039 38.4874 14.4439 39.6994 13.7139C45.9156 9.9701 50.9581 9.84676 56.4406 10.0661C62.7408 10.3181 68.8069 12.3345 73.5214 15.7446C76.8298 18.1377 79.6359 21.3631 81.637 25.0725C83.6377 28.7817 84.7917 32.8984 84.9741 36.9772C85.1564 41.0563 84.3747 45.2595 82.7133 49.1329C81.0516 53.006 78.5445 56.4691 75.4631 59.1479C72.8234 61.4426 71.2317 63.0283 68.9109 65.6744C64.8355 70.3215 63.9111 77.4327 66.6639 82.9672L65.9158 83.3392C63.0164 77.5094 63.9898 70.0188 68.2829 65.1234C70.6316 62.4453 72.243 60.8402 74.9151 58.5175C77.9022 55.9208 80.3333 52.5617 81.9453 48.8032C83.5577 45.0451 84.3164 40.9687 84.1394 37.0146C83.9624 33.0608 82.843 29.0683 80.9016 25.4689C78.9602 21.8698 76.2388 18.741 73.0317 16.4216C68.4489 13.1069 62.5447 11.1461 56.4069 10.9008C49.928 10.6418 45.6316 11.1165 40.1304 14.4296C38.9487 15.1413 34.9283 17.669 32.8145 20.3131C30.8882 22.7225 28.8961 25.2142 27.6807 28.0863C27.4367 28.6626 27.2174 29.2713 27.0054 29.86C26.4734 31.3347 25.9233 32.8601 24.9157 34.1258C23.666 35.6952 21.9909 36.7625 20.3709 37.7946C19.7918 38.1636 19.1932 38.5449 18.6231 38.9436C17.8668 39.4723 17.2194 39.966 16.9571 40.6513C16.6271 41.5127 17.0038 42.4774 17.4661 43.0927C18.0361 43.8511 18.8635 44.4044 19.6638 44.9398C19.7448 44.9941 19.8045 45.0751 19.8322 45.1688C19.9818 45.6751 19.9938 46.0742 19.8745 46.5462C19.5822 47.6995 18.6025 48.5186 17.8878 49.1169C17.6821 49.2889 17.7648 49.6989 17.9288 50.0069C18.1075 50.3426 18.4671 50.5849 18.8451 50.6246C19.0552 50.6466 19.2158 50.822 19.2192 51.0336C19.2225 51.245 19.0675 51.4253 18.8575 51.454C18.4231 51.513 17.8955 51.88 17.7058 52.2553C17.5118 52.6393 17.5191 53.1317 17.7251 53.5097C17.8174 53.6787 17.9508 53.8377 18.0921 54.0064C18.2148 54.1527 18.3418 54.3041 18.4545 54.4764C18.9231 55.1934 19.0222 56.1348 18.7125 56.9331C18.6228 57.1658 18.5278 57.4015 18.4321 57.6395C17.8011 59.2099 17.1484 60.8336 17.5178 62.3393C17.8754 63.7973 19.0885 65.117 20.8459 65.9594C22.1276 66.5737 23.5646 66.9061 24.9543 67.2278C25.2977 67.3071 25.6407 67.3864 25.9817 67.4698C26.7277 67.6521 27.3097 67.7781 27.8231 67.8891C29.6471 68.2835 30.3295 68.4311 32.7365 69.9488C34.9236 71.3279 36.541 73.5236 37.5437 76.4747C38.1424 78.2374 38.5137 80.2831 38.6174 82.3909L38.6177 82.4115V84.9373Z" fill="#FFF8E1"/>
<path d="M36.3058 40.7893C35.3491 40.7893 34.3924 40.591 33.5041 40.1957C31.7763 39.4263 30.3126 37.9106 29.4873 36.0369C29.3946 35.8255 29.4903 35.5792 29.7013 35.4862C29.9126 35.3932 30.159 35.4889 30.252 35.7002C30.9943 37.3862 32.3037 38.7463 33.8441 39.4323C35.3721 40.1127 37.1302 40.1283 38.6679 39.4743C38.8802 39.384 39.1252 39.483 39.2156 39.6953C39.3059 39.9076 39.2072 40.153 38.9945 40.2433C38.1385 40.6073 37.2222 40.7893 36.3058 40.7893Z" fill="#FFF8E1"/>
<path d="M77.0814 41.3316C76.7267 41.9903 76.228 42.5139 75.6386 42.8463C75.0086 43.2016 74.2666 43.3276 73.6029 43.192L73.5563 43.187C73.5189 42.4489 73.1886 41.7136 72.6272 41.1549C73.1826 40.5496 73.4429 39.6795 73.2622 38.8722C73.2239 38.7012 73.0506 38.5888 72.8752 38.6218C72.6996 38.6545 72.5886 38.8195 72.6269 38.9905C72.8049 39.7862 72.4206 40.6629 71.7129 41.0752C71.0052 41.4876 70.0148 41.4119 69.3581 40.8952C69.2168 40.7842 69.0125 40.8029 68.9018 40.9369C68.7908 41.0712 68.8151 41.2699 68.9565 41.3809C69.1801 41.5569 69.4331 41.6939 69.7015 41.7913C70.4712 42.0699 71.3669 42.0206 72.0582 41.6179L72.1422 41.5639C72.7209 42.1249 73.0099 42.948 72.8789 43.6763C72.7409 44.442 72.1252 45.095 71.3819 45.2647C70.6172 45.439 69.7511 45.0854 69.3675 44.4417C69.2765 44.2893 69.0775 44.234 68.9225 44.3183C68.7674 44.4023 68.7158 44.5943 68.8068 44.7467C69.0898 45.2214 69.5615 45.5814 70.0985 45.776C70.3392 45.863 70.5932 45.916 70.8488 45.932C71.0215 46.7584 70.8562 47.6321 70.3945 48.3301C69.9318 49.0298 69.1835 49.5351 68.3414 49.7162C67.6437 49.8662 66.8427 49.8042 66.0247 49.5372C65.3767 49.3258 64.4713 48.9035 63.8396 48.0934C63.3053 47.4078 63.0903 46.5361 63.27 45.8034C63.8033 45.871 64.3267 45.8237 64.7933 45.6517C65.9297 45.2334 66.6157 44.07 66.3557 43.004C66.3144 42.8336 66.1387 42.7246 65.9644 42.7606C65.7897 42.7963 65.6817 42.9636 65.7234 43.134C65.9077 43.8903 65.381 44.755 64.5493 45.0617C63.7846 45.343 62.8159 45.2044 61.9569 44.691C61.1666 44.218 60.5689 43.4963 60.3185 42.7113C60.0542 41.8826 60.1872 40.9682 60.6652 40.3245C60.7692 40.1852 60.7342 39.9875 60.5875 39.8832C60.4415 39.7792 60.2385 39.8079 60.1349 39.9472C59.9992 40.1295 59.8872 40.3295 59.7969 40.5406L59.7672 40.5882C59.2975 41.5499 58.1568 42.2003 56.9928 42.1696C55.8571 42.1396 54.7304 41.5119 54.0524 40.5316C53.414 39.6085 53.1827 38.3735 53.433 37.2278C53.4433 37.1815 53.4413 37.1355 53.431 37.0918L53.4497 37.0341C53.493 36.8661 53.386 36.6921 53.2127 36.6461C53.0387 36.5998 52.862 36.6981 52.8186 36.8658C52.6626 37.4685 52.1933 38.0165 51.5626 38.3328C50.9799 38.6248 50.2659 38.7355 49.4979 38.6532C48.3062 38.5248 47.1995 37.9305 46.5371 37.0631C45.8328 36.1401 45.6524 34.9191 46.0781 33.9524L46.0878 33.9224C46.2925 34.056 46.5141 34.171 46.7521 34.2574L46.7635 34.2614C47.4485 34.5067 48.2545 34.5477 49.0942 34.3797C49.2692 34.345 49.3782 34.1784 49.3375 34.0077C49.2972 33.837 49.1225 33.727 48.9475 33.762C48.2265 33.9064 47.5445 33.8747 46.9748 33.6707C46.3405 33.4463 45.8288 32.9807 45.6208 32.438C45.4028 31.8696 45.5494 31.2016 45.9694 30.8493C46.1035 30.7369 46.1155 30.5379 45.9958 30.4049C45.8768 30.2723 45.6711 30.2556 45.5371 30.3679C44.9141 30.8899 44.6981 31.8263 45.0121 32.6443C45.1251 32.9397 45.3054 33.214 45.5321 33.457C45.4621 33.4593 45.3931 33.482 45.3368 33.5287C44.7744 33.9934 43.8747 33.8674 43.2754 33.6177C42.0003 33.0873 41.042 31.8383 40.891 30.5099C40.744 29.2216 41.3606 27.8842 42.43 27.1398C42.779 27.3992 43.1654 27.6078 43.5737 27.7558C44.2454 27.9992 44.9728 28.0822 45.6751 27.9742C45.8514 27.9469 45.9684 27.7855 45.9358 27.6135C45.9034 27.4418 45.7338 27.3242 45.5571 27.3515C44.3581 27.5355 43.0184 27.0288 42.223 26.0901C41.4313 25.1558 41.1673 23.8124 41.5503 22.6677C41.931 21.5283 42.9194 20.617 44.1291 20.2893C45.3384 19.9613 46.7141 20.2356 47.7188 21.0047C47.8615 21.1137 48.0655 21.0923 48.1745 20.9566C48.2138 20.908 48.2345 20.851 48.2395 20.793C48.3295 20.7156 48.3699 20.5916 48.3312 20.4703C47.9938 19.4056 48.2489 18.1779 48.9965 17.2665C49.7042 16.4035 50.8193 15.8372 52.056 15.7128C53.1937 15.5982 54.4454 15.8578 55.5807 16.4442C56.3364 16.8345 56.9194 17.3042 57.3141 17.8409C57.7041 18.3716 57.9045 18.9786 57.8848 19.5439C57.6768 19.5489 57.4698 19.5733 57.2674 19.6213C56.3261 19.844 55.5397 20.531 55.2154 21.4143C55.1557 21.577 55.2444 21.7593 55.4137 21.8213L55.4151 21.8217C55.5841 21.883 55.7687 21.8017 55.8284 21.6393C56.0787 20.9576 56.7101 20.406 57.4368 20.234C58.1631 20.0623 59.0032 20.2656 59.5762 20.7526C60.1495 21.2393 60.4702 22.0217 60.3935 22.7454C60.3752 22.9184 60.5052 23.0764 60.6839 23.0984C60.8622 23.1207 61.0216 22.9987 61.0402 22.826C61.1399 21.8883 60.7399 20.9136 59.9975 20.283C59.8619 20.1676 59.7155 20.065 59.5618 19.9756C60.3379 19.1469 61.4829 18.5656 62.7499 18.3669C63.9816 18.1736 65.3673 18.3206 66.7577 18.7919C68.0374 19.2259 69.1065 19.8489 69.9375 20.6456C70.8595 21.529 71.4619 22.6257 71.6329 23.7337C71.8095 24.8784 71.5079 26.0321 70.8258 26.8512L70.8072 26.8548C69.8481 25.9015 68.2961 25.5921 67.0671 26.1258C66.9047 26.1961 66.8354 26.3825 66.9124 26.5415C66.9891 26.7008 67.1831 26.7728 67.3451 26.7025C68.3438 26.2691 69.6625 26.5488 70.4132 27.3532C71.1638 28.1572 71.3169 29.4549 70.7695 30.3713C70.6805 30.5203 70.7345 30.7139 70.8905 30.8043L70.9452 30.8296C71.0902 30.8823 71.2552 30.8296 71.3342 30.6976C71.9265 29.7062 71.8745 28.4082 71.2548 27.4158C72.5196 27.2108 73.8243 27.4382 74.8843 28.0592C76.0833 28.7612 76.938 29.9876 77.1154 31.2593C77.3 32.586 76.7483 33.9347 75.7096 34.6974C74.726 34.0764 73.5539 33.745 72.3839 33.8034C72.2049 33.8124 72.0709 33.9607 72.0849 34.1347C72.0985 34.3084 72.2552 34.442 72.4342 34.4334C74.1179 34.3487 75.877 35.2241 76.8113 36.6111C77.7457 37.9981 77.854 39.8952 77.0814 41.3316ZM62.6656 49.4648C62.4093 49.8678 62.1453 50.1075 61.8602 50.1975C61.5156 50.3058 61.0992 50.1688 60.9129 49.8858C60.7629 49.6585 60.7395 49.3525 60.7149 49.0281L60.7069 48.9265C60.5219 46.6324 59.3928 44.368 57.6568 42.7566C58.3621 42.6509 59.0182 42.3526 59.5365 41.9113C59.5435 42.2373 59.5965 42.5659 59.6978 42.8836C59.9959 43.817 60.6982 44.6707 61.6262 45.2254C61.8762 45.375 62.1353 45.4977 62.3979 45.5927C62.4756 45.621 62.5533 45.6444 62.6316 45.6674C62.4153 46.5801 62.6659 47.6104 63.3123 48.4488C63.1376 48.6665 62.9986 48.9011 62.8656 49.1305C62.8003 49.2428 62.7349 49.3551 62.6656 49.4648ZM77.353 36.2758C77.0504 35.8264 76.6767 35.4291 76.256 35.0887C77.3777 34.1794 77.966 32.6723 77.7597 31.1906C77.556 29.7292 76.579 28.3235 75.21 27.5215C74.1759 26.9162 72.9396 26.6425 71.7072 26.7275C72.2322 25.8418 72.4436 24.7434 72.2759 23.6561C72.0835 22.411 71.4132 21.1847 70.3885 20.2026C69.4858 19.3376 68.3314 18.6626 66.9581 18.1972C65.465 17.6909 63.9683 17.5346 62.6299 17.7442C61.1472 17.9772 59.8099 18.6876 58.9385 19.6986C58.8058 19.6556 58.6708 19.6206 58.5338 19.5953C58.5618 18.8866 58.3181 18.1336 57.8401 17.4836C57.3848 16.8639 56.7234 16.3275 55.8747 15.8892C54.624 15.2435 53.2383 14.9581 51.9726 15.0855C50.5672 15.2272 49.2955 15.8762 48.4835 16.8662C47.7145 17.8042 47.3925 19.0329 47.5948 20.1713C46.4975 19.5446 45.1474 19.3543 43.9391 19.6816C42.529 20.064 41.3763 21.128 40.931 22.4594C40.4816 23.8037 40.793 25.3831 41.725 26.4831C41.7897 26.5595 41.8577 26.6332 41.9277 26.7045C40.7486 27.5892 40.0783 29.1036 40.2446 30.5629C40.4213 32.1163 41.5417 33.5763 43.032 34.1964C43.084 34.218 43.137 34.2384 43.1914 34.258C43.8234 34.487 44.6161 34.579 45.2834 34.3014C45.0554 35.3414 45.3174 36.5118 46.0181 37.4298C46.5515 38.1282 47.3275 38.6745 48.2095 38.9938C48.6035 39.1365 49.0189 39.2342 49.4429 39.2795C50.3379 39.3759 51.1779 39.2425 51.873 38.8945C52.1793 38.7408 52.452 38.5458 52.6843 38.3205C52.7153 39.2375 52.9993 40.1272 53.515 40.8732C54.0517 41.6489 54.8304 42.2369 55.6931 42.5496C56.0337 42.6729 56.3874 42.7506 56.7444 42.783L56.8021 42.8456C58.6545 44.358 59.8719 46.6434 60.0589 48.9595L60.0665 49.0585C60.0945 49.4298 60.1265 49.8508 60.3675 50.2158C60.5362 50.4715 60.7955 50.6622 61.0886 50.7685C61.4009 50.8815 61.7529 50.8992 62.0749 50.7975C62.5086 50.6612 62.8836 50.3365 63.2213 49.8055C63.2953 49.6892 63.365 49.5698 63.4343 49.4501C63.5393 49.2688 63.6413 49.0955 63.756 48.9378C64.259 49.4145 64.8953 49.7988 65.6334 50.0658C65.6987 50.0895 65.7647 50.1125 65.8317 50.1342C66.7631 50.4382 67.6848 50.5065 68.4974 50.3318C69.5011 50.1162 70.3928 49.5142 70.9445 48.6801C71.4825 47.8668 71.6822 46.8531 71.4982 45.8877L71.5459 45.8787C72.5389 45.652 73.3286 44.823 73.5163 43.8136C74.3269 43.971 75.2213 43.8193 75.976 43.3936C76.668 43.0033 77.25 42.3949 77.659 41.6346C78.5504 39.9785 78.4304 37.8751 77.353 36.2758Z" fill="#FFF8E1"/>
<path d="M56.1674 26.563C56.4748 27.2967 56.3071 28.2034 55.7598 28.7674C55.6381 28.8927 55.6468 29.0924 55.7791 29.2134C55.8128 29.2444 55.8514 29.2671 55.8921 29.2817C56.0108 29.3247 56.1481 29.2991 56.2384 29.2061C56.9621 28.4604 57.1751 27.308 56.7691 26.3386C56.3628 25.3693 55.3721 24.6663 54.3037 24.5893C53.2357 24.5123 52.1813 25.0676 51.681 25.9713C51.5966 26.1233 51.6573 26.3153 51.816 26.401C51.9747 26.4863 52.1713 26.4326 52.2553 26.2806C52.6343 25.5966 53.4637 25.1596 54.2721 25.2179C55.0807 25.2763 55.8601 25.8296 56.1674 26.563Z" fill="#FFF8E1"/>
<path d="M66.6584 33.9158C66.4827 33.8742 66.3094 33.9772 66.2707 34.1462C66.2324 34.3152 66.343 34.4859 66.5187 34.5279C67.5911 34.7832 68.5204 35.6306 68.8318 36.6366C69.1461 37.6539 68.8158 38.838 68.0281 39.5167C67.2194 40.2134 65.9767 40.369 65.005 39.895C64.8426 39.816 64.649 39.8777 64.5716 40.033C64.4943 40.188 64.5626 40.378 64.725 40.457C64.8283 40.5074 64.934 40.552 65.0416 40.591C66.1893 41.0067 67.5537 40.7797 68.4671 39.9927C69.4478 39.1477 69.8445 37.7319 69.4538 36.4699C69.0708 35.2312 67.9731 34.2285 66.6584 33.9158Z" fill="#FFF8E1"/>
<path d="M64.5125 37.1554C63.7532 37.4967 62.8151 37.4634 62.0645 37.0687C61.3131 36.674 60.7624 35.9243 60.6261 35.1123C60.5077 34.4063 60.7054 33.6643 61.1451 33.1056C61.4714 33.4053 61.8578 33.6433 62.2775 33.7953C62.5201 33.8833 62.7741 33.9429 63.0321 33.9709C63.9562 34.0709 65.1052 33.6579 65.4149 32.6949C65.4679 32.5299 65.3722 32.3502 65.2002 32.2952C65.0285 32.2396 64.8465 32.3282 64.7935 32.4932C64.5922 33.1199 63.7682 33.4179 63.0878 33.3443C62.2715 33.2559 61.5131 32.7659 61.1084 32.0652C60.7097 31.3752 60.6797 30.4802 61.0328 29.7852C61.1108 29.6308 61.0431 29.4405 60.8821 29.3605C60.7204 29.2805 60.5261 29.3408 60.4477 29.4955C59.9977 30.3828 60.0344 31.4815 60.5431 32.3626C60.5934 32.4496 60.6487 32.5339 60.7071 32.6156C60.2144 33.1916 59.9411 33.9446 59.9441 34.7026C59.146 35.3797 57.8543 35.4587 56.9503 34.8686C56.0156 34.2586 55.5919 32.9972 55.9859 31.9972C56.0496 31.8359 55.9649 31.6522 55.7969 31.5862C55.6293 31.5205 55.4416 31.5979 55.3779 31.7592C55.2193 32.1622 55.1663 32.5989 55.2049 33.0316C54.8319 33.4559 54.2912 33.7539 53.7199 33.8496C53.1462 33.9459 52.5208 33.8416 52.0038 33.5639C51.8105 33.4599 51.4728 33.2386 51.3831 32.9232C51.3351 32.7542 51.1561 32.6516 50.9831 32.6939C50.8101 32.7362 50.7088 32.9072 50.7568 33.0763C50.9038 33.5936 51.3508 33.9259 51.6995 34.1136C51.8442 34.191 51.9938 34.258 52.1472 34.3133C52.6902 34.51 53.2789 34.5663 53.8465 34.4713C54.4116 34.3763 54.9356 34.1333 55.3643 33.7766C55.5853 34.4226 56.0113 35.007 56.597 35.389C56.7906 35.5153 56.998 35.6173 57.2143 35.696C58.1373 36.03 59.217 35.93 60.0341 35.431C60.2621 36.3453 60.9081 37.1704 61.7658 37.6214C61.9018 37.6927 62.0425 37.7547 62.1865 37.8067C63.0305 38.1124 63.9952 38.0897 64.7982 37.7287C64.9595 37.6564 65.0262 37.469 64.9475 37.311C64.8685 37.1527 64.6739 37.083 64.5125 37.1554Z" fill="#FFF8E1"/>
<path d="M60.0756 26.2315C60.1846 26.3725 60.3889 26.4038 60.5316 26.3015C61.5266 25.5881 63.0983 25.6835 64.0344 26.5142C64.9707 27.3445 65.2117 28.8572 64.5714 29.8856C64.4797 30.0329 64.5304 30.2276 64.6847 30.3203L64.7444 30.3486C64.8871 30.4003 65.0501 30.3503 65.1304 30.2213C65.9351 28.9286 65.6437 27.0978 64.4667 26.0538C63.2897 25.0098 61.3873 24.8941 60.1363 25.7911C59.9939 25.8935 59.9666 26.0905 60.0756 26.2315Z" fill="#FFF8E1"/>
<path d="M33.8829 15.599L33.5812 15.1729C33.7522 15.0516 33.9276 14.9309 34.1023 14.8136L34.3933 15.2469C34.2226 15.3616 34.0506 15.4803 33.8829 15.599ZM32.8876 16.3396L32.5662 15.9283C32.7336 15.7973 32.9029 15.6683 33.0696 15.5446L33.3809 15.9636C33.2179 16.085 33.0519 16.2113 32.8876 16.3396ZM31.9282 17.1263L31.5875 16.7307C31.7482 16.5923 31.9112 16.4556 32.0722 16.3236L32.4032 16.7277C32.2455 16.857 32.0855 16.991 31.9282 17.1263ZM31.0062 17.9574L30.6475 17.5773C30.7998 17.434 30.9562 17.2897 31.1128 17.1487L31.4622 17.5367C31.3088 17.6747 31.1552 17.8164 31.0062 17.9574ZM30.1235 18.8297L29.7478 18.467C29.8941 18.3157 30.0438 18.1644 30.1928 18.017L30.5598 18.3884C30.4138 18.5327 30.2668 18.6814 30.1235 18.8297ZM29.2818 19.7417L28.8898 19.3964C29.0284 19.2394 29.1711 19.0814 29.3134 18.9267L29.6971 19.2811C29.5575 19.4324 29.4175 19.5874 29.2818 19.7417ZM28.4821 20.6914L28.0751 20.3641C28.2068 20.2004 28.3421 20.0361 28.4771 19.8757L28.8764 20.2121C28.7441 20.3694 28.6114 20.5308 28.4821 20.6914ZM27.7267 21.6765L27.3054 21.3681C27.4287 21.1995 27.5564 21.0291 27.6847 20.8618L28.0991 21.1794C27.9731 21.3438 27.8481 21.5108 27.7267 21.6765ZM27.0171 22.6945L26.582 22.4058C26.6984 22.2305 26.818 22.0548 26.9377 21.8828L27.3661 22.1815C27.2487 22.3502 27.1311 22.5228 27.0171 22.6945ZM26.3547 23.7442L25.9067 23.4755C26.0147 23.2962 26.126 23.1148 26.2384 22.9368L26.68 23.2155C26.5697 23.3902 26.46 23.5682 26.3547 23.7442ZM25.7407 24.8229L25.281 24.5749C25.3803 24.3909 25.4833 24.2045 25.5877 24.0215L26.0414 24.2799C25.939 24.4595 25.838 24.6422 25.7407 24.8229ZM25.177 25.9286L24.7063 25.7019C24.7973 25.5129 24.892 25.3219 24.987 25.1352L25.4523 25.3722C25.359 25.5556 25.2663 25.7426 25.177 25.9286ZM24.6653 27.059L24.1846 26.8546C24.2663 26.6626 24.3516 26.4676 24.4386 26.2753L24.9143 26.4906C24.8293 26.6793 24.7453 26.8706 24.6653 27.059ZM24.207 28.212L23.7173 28.0307C23.79 27.835 23.866 27.636 23.944 27.44L24.4293 27.6326C24.353 27.825 24.2783 28.02 24.207 28.212ZM23.804 29.3854L23.3063 29.2277C23.3699 29.0273 23.4366 28.825 23.5046 28.6267L23.9986 28.7963C23.932 28.9907 23.8663 29.189 23.804 29.3854Z" fill="#FFF8E1"/>
<path d="M76.54 54.871L76.1756 54.4969C76.3243 54.3519 76.4723 54.2059 76.6193 54.0593L76.9883 54.4286C76.8397 54.5769 76.6903 54.7243 76.54 54.871ZM75.6306 55.7403L75.2733 55.3593C75.425 55.217 75.5763 55.074 75.7266 54.9303L76.0873 55.308C75.936 55.4526 75.7836 55.5966 75.6306 55.7403ZM74.7079 56.5933L74.3559 56.208C74.5096 56.0673 74.6629 55.9267 74.8159 55.785L75.1706 56.1683C75.0166 56.3107 74.8626 56.4523 74.7079 56.5933ZM73.7779 57.4364L73.4286 57.0484C73.5836 56.9087 73.7386 56.769 73.8932 56.629L74.2436 57.016C74.0886 57.1564 73.9336 57.2964 73.7779 57.4364ZM72.8459 58.2744L72.4969 57.886L72.9629 57.467L73.3119 57.8557L72.8459 58.2744ZM71.9165 59.1131L71.5652 58.7264C71.7202 58.5857 71.8752 58.4454 72.0305 58.3054L72.3805 58.6931C72.2255 58.8327 72.0709 58.9727 71.9165 59.1131ZM70.9948 59.9581L70.6395 59.5754C70.7928 59.4328 70.9468 59.2908 71.1015 59.1494L71.4542 59.5344C71.3005 59.6751 71.1475 59.8164 70.9948 59.9581ZM70.0865 60.8148L69.7248 60.4381L69.8348 60.3328C69.9498 60.2228 70.0651 60.1134 70.1805 60.0048L70.5388 60.3848C70.4241 60.4928 70.3098 60.6011 70.1958 60.7101L70.0865 60.8148ZM69.1968 61.6892L68.8264 61.3211C68.9744 61.1721 69.1234 61.0238 69.2731 60.8768L69.6391 61.2495C69.4908 61.3951 69.3434 61.5415 69.1968 61.6892ZM68.3317 62.5852L67.9507 62.2282C68.0944 62.0748 68.2394 61.9225 68.3857 61.7712L68.7611 62.1342C68.6168 62.2835 68.4738 62.4338 68.3317 62.5852ZM67.4971 63.5075L67.1037 63.1642C67.2421 63.0055 67.3821 62.8485 67.5234 62.6922L67.9104 63.0429C67.7711 63.1965 67.6334 63.3515 67.4971 63.5075ZM66.6994 64.4599L66.292 64.1329C66.424 63.9686 66.5577 63.8059 66.693 63.6442L67.093 63.9799C66.96 64.1386 66.8287 64.2986 66.6994 64.4599ZM65.945 65.4449L65.523 65.1379C65.6443 64.9713 65.7717 64.8006 65.9017 64.6306L66.3164 64.9483C66.1887 65.1146 66.064 65.2816 65.945 65.4449ZM65.243 66.4656L64.8046 66.1816C64.9183 66.0066 65.0367 65.8293 65.1567 65.6549L65.587 65.9509C65.4697 66.1213 65.354 66.2946 65.243 66.4656ZM64.6006 67.5233L64.1463 67.266C64.2496 67.084 64.3576 66.8996 64.4676 66.7186L64.9136 66.99C64.8066 67.1663 64.7013 67.346 64.6006 67.5233ZM64.0276 68.6177L63.5566 68.3917C63.6473 68.203 63.7436 68.012 63.842 67.8237L64.3046 68.066C64.209 68.249 64.1156 68.4347 64.0276 68.6177ZM63.5336 69.7487L63.0479 69.5577C63.1246 69.3627 63.2066 69.165 63.2916 68.97L63.7703 69.179C63.6876 69.3681 63.6083 69.5601 63.5336 69.7487ZM63.1263 70.9124L62.6269 70.7591C62.6889 70.5574 62.7559 70.3537 62.8259 70.1541L63.3186 70.3267C63.2509 70.5201 63.1863 70.7171 63.1263 70.9124ZM62.8126 72.1031L62.3026 71.9911C62.3479 71.7844 62.3982 71.5758 62.4522 71.3714L62.9573 71.5048C62.9049 71.7021 62.8563 71.9035 62.8126 72.1031ZM62.6016 73.3145L62.0836 73.2482C62.1106 73.0388 62.1422 72.8265 62.1792 72.6168L62.6936 72.7068C62.6582 72.9085 62.6272 73.1128 62.6016 73.3145ZM62.5029 74.5382L61.9812 74.5215C61.9879 74.3109 61.9999 74.0962 62.0172 73.8832L62.5376 73.9252C62.5212 74.1299 62.5096 74.3359 62.5029 74.5382ZM62.0052 75.8009C61.9902 75.5902 61.9806 75.3749 61.9766 75.1612L62.4986 75.1516C62.5026 75.3559 62.5116 75.5619 62.5259 75.7636L62.0052 75.8009ZM62.1659 77.0719C62.1276 76.8623 62.0946 76.6493 62.0682 76.4383L62.5863 76.3733C62.6116 76.5746 62.6429 76.7779 62.6796 76.9779L62.1659 77.0719Z" fill="#25594D"/>
<path d="M27.0426 70.5546C26.8429 70.4929 26.6433 70.4326 26.4446 70.3722L26.5959 69.8726C26.7953 69.9329 26.9959 69.9936 27.1966 70.0556L27.0426 70.5546ZM28.2273 70.9373C28.0313 70.8699 27.8346 70.8049 27.6373 70.7416L27.7973 70.2442C27.9976 70.3089 28.198 70.3752 28.397 70.4436L28.2273 70.9373ZM29.386 71.3716C29.2043 71.2966 29.0107 71.2206 28.811 71.1459L28.9937 70.6569C29.199 70.7336 29.398 70.8116 29.5853 70.8889L29.386 71.3716ZM30.5007 71.8896C30.3257 71.7976 30.1404 71.7063 29.9503 71.6183L30.1697 71.1443C30.3677 71.2359 30.5607 71.3313 30.7437 71.4273L30.5007 71.8896ZM31.5434 72.521C31.3821 72.408 31.2104 72.2963 31.033 72.1893L31.3031 71.7423C31.4901 71.8553 31.6717 71.9733 31.8431 72.0933L31.5434 72.521ZM32.4791 73.289C32.3364 73.151 32.1844 73.0156 32.0274 72.887L32.3581 72.483C32.5264 72.621 32.6894 72.7656 32.8421 72.9136L32.4791 73.289ZM33.2754 74.1993C33.1538 74.0353 33.0254 73.8767 32.8951 73.7273L33.2884 73.384C33.4278 73.5433 33.5644 73.7127 33.6945 73.8873L33.2754 74.1993ZM33.9341 75.2234C33.8338 75.0427 33.7285 74.8664 33.6215 74.6994L34.0608 74.4177C34.1738 74.5937 34.2848 74.7794 34.3905 74.9697L33.9341 75.2234ZM34.4681 76.3251C34.3878 76.1351 34.3028 75.9471 34.2155 75.7664L34.6858 75.5391C34.7768 75.7274 34.8655 75.9237 34.9492 76.1221L34.4681 76.3251ZM34.8985 77.4791C34.8325 77.2794 34.7642 77.0834 34.6948 76.8971L35.1845 76.7154C35.2558 76.9078 35.3265 77.1098 35.3945 77.3158L34.8985 77.4791ZM35.2518 78.6668C35.1945 78.4548 35.1392 78.2598 35.0832 78.0698L35.5835 77.9215C35.6412 78.1151 35.6975 78.3145 35.7558 78.5305L35.2518 78.6668ZM35.5582 79.8745C35.5095 79.6725 35.4598 79.4705 35.4088 79.2688L35.9152 79.1412C35.9665 79.3445 36.0165 79.5482 36.0659 79.7522L35.5582 79.8745Z" fill="#FFF8E1"/>
<path d="M67.0524 65.6249C60.5802 65.6249 55.3135 70.8901 55.3135 77.363C55.3135 83.8352 60.5802 89.1012 67.0524 89.1012C73.5253 89.1012 78.7913 83.8352 78.7913 77.363C78.7913 70.8901 73.5253 65.6249 67.0524 65.6249ZM67.0524 91.0167C59.5238 91.0167 53.3987 84.8916 53.3987 77.363C53.3987 69.8337 59.5238 63.7086 67.0524 63.7086C74.5817 63.7086 80.7069 69.8337 80.7069 77.363C80.7069 84.8916 74.5817 91.0167 67.0524 91.0167Z" fill="#FF9D46"/>
<path d="M67.0474 86.1472C62.2011 86.1472 58.2583 82.2044 58.2583 77.3581C58.2583 72.511 62.2011 68.5682 67.0474 68.5682C71.8944 68.5682 75.8372 72.511 75.8372 77.3581C75.8372 82.2044 71.8944 86.1472 67.0474 86.1472Z" fill="#FF9D46"/>
<path d="M70.3967 76.3259H68.0775V74.0067C68.0775 73.8019 67.9117 73.636 67.7068 73.636H66.363C66.1582 73.636 65.993 73.8019 65.993 74.0067V76.3259H63.6731C63.469 76.3259 63.3031 76.4918 63.3031 76.6966V78.0405C63.3031 78.2446 63.469 78.4104 63.6731 78.4104H65.993V80.7304C65.993 80.9345 66.1582 81.1004 66.363 81.1004H67.7068C67.9117 81.1004 68.0775 80.9345 68.0775 80.7304V78.4104H70.3967C70.6016 78.4104 70.7675 78.2446 70.7675 78.0405V76.6966C70.7675 76.4918 70.6016 76.3259 70.3967 76.3259Z" fill="white"/>
</svg>
