<svg width="24" height="24" viewBox="0 0 24 24" fill="none" xmlns="http://www.w3.org/2000/svg">
<path d="M12 1C8.90339 1 6.375 3.58458 6.375 6.75C6.375 9.91542 8.90339 12.5 12 12.5C15.0966 12.5 17.625 9.91542 17.625 6.75C17.625 3.58458 15.0966 1 12 1ZM5.53125 14.8C4.14328 14.8 3 15.9687 3 17.3875V18.0771C3 19.768 4.0489 21.2848 5.6488 22.3278C7.24871 23.3707 9.43772 24 12 24C14.5623 24 16.7513 23.3707 18.3512 22.3278C19.9511 21.2848 21 19.768 21 18.0771V17.3875C21 15.9687 19.8567 14.8 18.4688 14.8H5.53125Z" fill="#78DDB1"/>
</svg>
