<svg width="48" height="48" viewBox="0 0 48 48" fill="none" xmlns="http://www.w3.org/2000/svg">
<path d="M24 42C33.9411 42 42 33.9411 42 24C42 14.0589 33.9411 6 24 6C14.0589 6 6 14.0589 6 24C6 33.9411 14.0589 42 24 42Z" fill="url(#paint0_radial)"/>
<path d="M35 26C35 26 35.139 38 24 38C12.861 38 13 26 13 26C13 26 15.444 26 24 26C32.556 26 35 26 35 26Z" fill="url(#paint1_radial)"/>
<path d="M35 26C35 32.075 30.075 37 24 37C17.925 37 13 32.075 13 26H35Z" fill="url(#paint2_radial)"/>
<path d="M25 33C24.484 33 24 33.5 24 33.5C24 33.5 23.516 33 23 33C20.919 33 19.574 34.959 19.574 34.959C20.91 35.622 22.411 36 24 36C25.589 36 27.09 35.622 28.426 34.959C28.426 34.959 27.081 33 25 33Z" fill="url(#paint3_radial)"/>
<path d="M24 38C20.516 38 17.36 36.622 15.026 34.391C16.653 37.709 20.055 40 24 40C27.945 40 31.347 37.709 32.974 34.391C30.64 36.622 27.484 38 24 38Z" fill="url(#paint4_radial)"/>
<path d="M15 27V28C15 29.105 15.895 30 17 30H31C32.105 30 33 29.105 33 28V27H15Z" fill="url(#paint5_linear)"/>
<path d="M32.103 12.371L33.654 15.607L37.211 16.082C37.76 16.155 37.979 16.831 37.578 17.213L34.98 19.688L35.627 23.217C35.727 23.761 35.152 24.179 34.665 23.916L31.509 22.21L28.353 23.916C27.866 24.179 27.291 23.761 27.391 23.217L28.038 19.688L25.44 17.213C25.039 16.831 25.259 16.155 25.807 16.082L29.364 15.607L30.915 12.371C31.153 11.872 31.864 11.872 32.103 12.371Z" fill="url(#paint6_linear)"/>
<path d="M15.897 12.371L14.346 15.607L10.789 16.082C10.24 16.155 10.021 16.831 10.422 17.213L13.02 19.688L12.373 23.217C12.273 23.761 12.848 24.179 13.335 23.916L16.491 22.21L19.647 23.916C20.134 24.179 20.709 23.761 20.609 23.217L19.962 19.688L22.56 17.213C22.961 16.831 22.741 16.155 22.193 16.082L18.636 15.607L17.085 12.371C16.847 11.872 16.136 11.872 15.897 12.371Z" fill="url(#paint7_linear)"/>
<defs>
<radialGradient id="paint0_radial" cx="0" cy="0" r="1" gradientUnits="userSpaceOnUse" gradientTransform="translate(24 24) scale(18)">
<stop stop-color="#FFE16E"/>
<stop offset="0.629" stop-color="#FFD226"/>
<stop offset="0.75" stop-color="#FDCD23"/>
<stop offset="0.899" stop-color="#F6BD1B"/>
<stop offset="0.999" stop-color="#F0AF13"/>
</radialGradient>
<radialGradient id="paint1_radial" cx="0" cy="0" r="1" gradientUnits="userSpaceOnUse" gradientTransform="translate(24 26.779) scale(11.171)">
<stop offset="0.371" stop-color="#FFD226"/>
<stop offset="0.948" stop-color="#FFE16E"/>
<stop offset="1" stop-color="#FFE16E" stop-opacity="0"/>
</radialGradient>
<radialGradient id="paint2_radial" cx="0" cy="0" r="1" gradientUnits="userSpaceOnUse" gradientTransform="translate(24.15 25.589) scale(11.863)">
<stop stop-color="#1C1911"/>
<stop offset="0.999" stop-color="#171714"/>
</radialGradient>
<radialGradient id="paint3_radial" cx="0" cy="0" r="1" gradientUnits="userSpaceOnUse" gradientTransform="translate(24.0001 38.731) rotate(90) scale(5.91 5.88281)">
<stop offset="0.456" stop-color="#DB4A59"/>
<stop offset="0.602" stop-color="#D84756"/>
<stop offset="0.729" stop-color="#CD3E4D"/>
<stop offset="0.85" stop-color="#BB303E"/>
<stop offset="0.965" stop-color="#A21B29"/>
<stop offset="0.999" stop-color="#991421"/>
</radialGradient>
<radialGradient id="paint4_radial" cx="0" cy="0" r="1" gradientUnits="userSpaceOnUse" gradientTransform="translate(24.101 29.227) scale(10.381)">
<stop offset="0.819" stop-color="#CC9000"/>
<stop offset="0.988" stop-color="#FBBC23" stop-opacity="0.069"/>
<stop offset="1" stop-color="#FFBF26" stop-opacity="0"/>
</radialGradient>
<linearGradient id="paint5_linear" x1="15" y1="28.5" x2="33" y2="28.5" gradientUnits="userSpaceOnUse">
<stop offset="0.001" stop-color="#968F72"/>
<stop offset="0.048" stop-color="#B2AD97"/>
<stop offset="0.098" stop-color="#CAC6B7"/>
<stop offset="0.153" stop-color="#DDDBD2"/>
<stop offset="0.213" stop-color="#ECEBE6"/>
<stop offset="0.281" stop-color="#F7F6F4"/>
<stop offset="0.363" stop-color="#FDFDFC"/>
<stop offset="0.5" stop-color="white"/>
<stop offset="0.637" stop-color="#FDFDFC"/>
<stop offset="0.719" stop-color="#F7F6F4"/>
<stop offset="0.787" stop-color="#ECEBE6"/>
<stop offset="0.847" stop-color="#DDDBD2"/>
<stop offset="0.902" stop-color="#CAC6B7"/>
<stop offset="0.952" stop-color="#B2AD97"/>
<stop offset="1" stop-color="#968F72"/>
</linearGradient>
<linearGradient id="paint6_linear" x1="31.509" y1="11.886" x2="31.509" y2="23.479" gradientUnits="userSpaceOnUse">
<stop offset="0.001" stop-color="#FF634F"/>
<stop offset="0.628" stop-color="#EE4023"/>
<stop offset="1" stop-color="#E62F0E"/>
</linearGradient>
<linearGradient id="paint7_linear" x1="16.491" y1="11.963" x2="16.491" y2="23.797" gradientUnits="userSpaceOnUse">
<stop offset="0.001" stop-color="#FF634F"/>
<stop offset="0.628" stop-color="#EE4023"/>
<stop offset="1" stop-color="#E62F0E"/>
</linearGradient>
</defs>
</svg>
