<svg width="21" height="21" viewBox="0 0 21 21" fill="none" xmlns="http://www.w3.org/2000/svg">
<path d="M10.4167 0C4.67188 0 0 4.67188 0 10.4167C0 12.0781 0.401042 13.7188 1.16146 15.1927L0.0468751 19.1823C-0.0781249 19.6354 0.0520834 20.1198 0.380208 20.4531C0.630208 20.6979 0.963542 20.8333 1.30208 20.8333C1.42188 20.8333 1.53646 20.8177 1.65104 20.7865L5.64063 19.6719C7.11458 20.4323 8.76042 20.8333 10.4167 20.8333C16.1615 20.8333 20.8333 16.1615 20.8333 10.4167C20.8333 4.67188 16.1615 0 10.4167 0ZM15.8125 14.2552C15.5833 14.8958 14.4583 15.5156 13.9531 15.5625C13.4479 15.6094 12.974 15.7917 10.651 14.875C7.84896 13.7708 6.07813 10.901 5.94271 10.7135C5.80208 10.5313 4.81771 9.22396 4.81771 7.86458C4.81771 6.51042 5.53125 5.84375 5.78125 5.56771C6.03646 5.29167 6.33333 5.22396 6.51563 5.22396C6.70313 5.22396 6.88542 5.22396 7.04688 5.22917C7.23958 5.23958 7.45833 5.25 7.66667 5.70833C7.91146 6.25 8.44792 7.61458 8.51563 7.75521C8.58333 7.89063 8.63021 8.05208 8.53646 8.23438C8.44792 8.41667 8.40104 8.53125 8.26042 8.69271C8.125 8.85417 7.97396 9.05208 7.84896 9.17708C7.71354 9.3125 7.56771 9.46354 7.72917 9.73958C7.89063 10.0156 8.44271 10.9167 9.26042 11.6458C10.3125 12.5833 11.1979 12.875 11.474 13.0156C11.75 13.151 11.9115 13.1302 12.0729 12.9427C12.2344 12.7604 12.7604 12.1406 12.9479 11.8646C13.1302 11.5885 13.3125 11.6354 13.5677 11.7292C13.8177 11.8177 15.1719 12.4844 15.4479 12.625C15.724 12.7604 15.9062 12.8281 15.974 12.9427C16.0417 13.0573 16.0417 13.6094 15.8125 14.2552Z" fill="#78DDB1"/>
</svg>
