<svg width="24" height="24" viewBox="0 0 24 24" fill="none" xmlns="http://www.w3.org/2000/svg">
<path d="M7 8.75C7 7.5075 5.9925 6.5 4.75 6.5C3.5075 6.5 2.5 7.5075 2.5 8.75C2.5 9.6935 2.5 18.806 2.5 19.75C2.5 20.9925 3.5075 22 4.75 22C5.9925 22 7 20.9925 7 19.75C7 18.806 7 9.6935 7 8.75ZM21.5 4.25C21.5 3.0075 20.4925 2 19.25 2C18.0075 2 17 3.0075 17 4.25C17 5.1935 17 18.806 17 19.75C17 20.9925 18.0075 22 19.25 22C20.4925 22 21.5 20.9925 21.5 19.75C21.5 18.806 21.5 5.1935 21.5 4.25ZM14.25 13.25C14.25 12.0075 13.2425 11 12 11C10.7575 11 9.75 12.0075 9.75 13.25C9.75 14.1935 9.75 18.806 9.75 19.75C9.75 20.9925 10.7575 22 12 22C13.2425 22 14.25 20.9925 14.25 19.75C14.25 18.806 14.25 14.1935 14.25 13.25Z" fill="#78DDB1"/>
</svg>
