<svg width="15" height="17" viewBox="0 0 15 17" fill="none" xmlns="http://www.w3.org/2000/svg">
<path d="M7.08333 0C3.1775 0 0 3.1775 0 7.08333C0 8.765 0.60375 10.3971 1.70542 11.6867C1.83125 11.8296 4.8 15.2029 5.79167 16.1483C6.15375 16.4937 6.61833 16.6667 7.08333 16.6667C7.54833 16.6667 8.01292 16.4937 8.37542 16.1483C9.52833 15.0487 12.3438 11.8212 12.4671 11.6796C13.5629 10.3971 14.1667 8.765 14.1667 7.08333C14.1667 3.1775 10.9892 0 7.08333 0ZM7.08333 9.16667C5.93292 9.16667 5 8.23375 5 7.08333C5 5.93292 5.93292 5 7.08333 5C8.23375 5 9.16667 5.93292 9.16667 7.08333C9.16667 8.23375 8.23375 9.16667 7.08333 9.16667Z" fill="#F2994A"/>
</svg>
