<svg width="24" height="24" viewBox="0 0 24 24" fill="none" xmlns="http://www.w3.org/2000/svg">
<path d="M20.5678 2H14.3676C13.1812 2 12.2192 3.06347 12.2192 4.375V18.0972C12.2192 18.5342 11.8984 18.8889 11.5031 18.8889C11.1078 18.8889 10.787 18.5342 10.787 18.0972V4.375C10.787 3.06347 9.82499 2 8.63862 2H2.43224C1.64117 2 1 2.70881 1 3.58333V18.3611C1 19.2356 1.64117 19.9444 2.43224 19.9444H9.85841C10.1893 20.573 10.798 21 11.5031 21C12.2082 21 12.8169 20.573 13.1478 19.9444H20.5678C21.3588 19.9444 22 19.2356 22 18.3611V3.58333C22 2.70881 21.3588 2 20.5678 2ZM7.9225 15.4583H3.86448C3.46871 15.4583 3.14836 15.1037 3.14836 14.6667C3.14836 14.2297 3.46871 13.875 3.86448 13.875H7.9225C8.31828 13.875 8.63862 14.2297 8.63862 14.6667C8.63862 15.1037 8.31828 15.4583 7.9225 15.4583ZM7.9225 11.7639H3.86448C3.46871 11.7639 3.14836 11.4092 3.14836 10.9722C3.14836 10.5352 3.46871 10.1806 3.86448 10.1806H7.9225C8.31828 10.1806 8.63862 10.5352 8.63862 10.9722C8.63862 11.4092 8.31828 11.7639 7.9225 11.7639ZM7.9225 8.06944H3.86448C3.46871 8.06944 3.14836 7.71478 3.14836 7.27778C3.14836 6.84078 3.46871 6.48611 3.86448 6.48611H7.9225C8.31828 6.48611 8.63862 6.84078 8.63862 7.27778C8.63862 7.71478 8.31828 8.06944 7.9225 8.06944ZM18.1869 15.4583H15.0837C14.6879 15.4583 14.3676 15.1037 14.3676 14.6667C14.3676 14.2297 14.6879 13.875 15.0837 13.875H18.1869C18.5827 13.875 18.903 14.2297 18.903 14.6667C18.903 15.1037 18.5827 15.4583 18.1869 15.4583ZM19.1417 11.7639H15.0837C14.6879 11.7639 14.3676 11.4092 14.3676 10.9722C14.3676 10.5352 14.6879 10.1806 15.0837 10.1806H19.1417C19.5375 10.1806 19.8578 10.5352 19.8578 10.9722C19.8578 11.4092 19.5375 11.7639 19.1417 11.7639ZM19.1417 8.06944H15.0837C14.6879 8.06944 14.3676 7.71478 14.3676 7.27778C14.3676 6.84078 14.6879 6.48611 15.0837 6.48611H19.1417C19.5375 6.48611 19.8578 6.84078 19.8578 7.27778C19.8578 7.71478 19.5375 8.06944 19.1417 8.06944Z" fill="#78DDB1"/>
</svg>
