<svg width="120" height="24" viewBox="0 0 120 24" fill="none" xmlns="http://www.w3.org/2000/svg">
<path d="M41.027 17.236V19H33.539V6.04H35.645V17.236H41.027ZM45.8843 9.676C46.5623 9.676 47.1743 9.787 47.7203 10.009C48.2723 10.231 48.7403 10.546 49.1243 10.954C49.5143 11.362 49.8143 11.857 50.0243 12.439C50.2343 13.021 50.3393 13.675 50.3393 14.401C50.3393 15.127 50.2343 15.781 50.0243 16.363C49.8143 16.945 49.5143 17.443 49.1243 17.857C48.7403 18.265 48.2723 18.58 47.7203 18.802C47.1743 19.024 46.5623 19.135 45.8843 19.135C45.2003 19.135 44.5823 19.024 44.0303 18.802C43.4843 18.58 43.0163 18.265 42.6263 17.857C42.2363 17.443 41.9363 16.945 41.7263 16.363C41.5163 15.781 41.4113 15.127 41.4113 14.401C41.4113 13.675 41.5163 13.021 41.7263 12.439C41.9363 11.857 42.2363 11.362 42.6263 10.954C43.0163 10.546 43.4843 10.231 44.0303 10.009C44.5823 9.787 45.2003 9.676 45.8843 9.676ZM45.8843 17.623C46.7123 17.623 47.3273 17.347 47.7293 16.795C48.1373 16.237 48.3413 15.442 48.3413 14.41C48.3413 13.378 48.1373 12.583 47.7293 12.025C47.3273 11.461 46.7123 11.179 45.8843 11.179C45.0443 11.179 44.4203 11.461 44.0123 12.025C43.6043 12.583 43.4003 13.378 43.4003 14.41C43.4003 15.442 43.6043 16.237 44.0123 16.795C44.4203 17.347 45.0443 17.623 45.8843 17.623ZM55.4042 14.329C56.0042 14.329 56.4542 14.176 56.7542 13.87C57.0542 13.564 57.2042 13.165 57.2042 12.673C57.2042 12.169 57.0542 11.77 56.7542 11.476C56.4542 11.182 56.0042 11.035 55.4042 11.035C54.8102 11.035 54.3602 11.182 54.0542 11.476C53.7542 11.77 53.6042 12.169 53.6042 12.673C53.6042 12.913 53.6432 13.135 53.7212 13.339C53.7992 13.543 53.9132 13.72 54.0632 13.87C54.2132 14.014 54.3992 14.128 54.6212 14.212C54.8492 14.29 55.1102 14.329 55.4042 14.329ZM58.0952 19.45C58.0952 19.246 58.0352 19.084 57.9152 18.964C57.8012 18.838 57.6452 18.742 57.4472 18.676C57.2492 18.604 57.0182 18.553 56.7542 18.523C56.4902 18.487 56.2082 18.463 55.9082 18.451C55.6142 18.433 55.3112 18.418 54.9992 18.406C54.6932 18.388 54.3962 18.358 54.1082 18.316C53.8202 18.466 53.5832 18.646 53.3972 18.856C53.2172 19.066 53.1272 19.309 53.1272 19.585C53.1272 19.765 53.1722 19.933 53.2622 20.089C53.3582 20.245 53.5022 20.38 53.6942 20.494C53.8922 20.608 54.1412 20.698 54.4412 20.764C54.7472 20.83 55.1132 20.863 55.5392 20.863C56.3912 20.863 57.0302 20.731 57.4562 20.467C57.8822 20.203 58.0952 19.864 58.0952 19.45ZM60.0392 10.153V10.873C60.0392 11.113 59.8952 11.26 59.6072 11.314L58.6892 11.467C58.8452 11.815 58.9232 12.202 58.9232 12.628C58.9232 13.078 58.8332 13.486 58.6532 13.852C58.4792 14.218 58.2362 14.53 57.9242 14.788C57.6122 15.046 57.2402 15.244 56.8082 15.382C56.3762 15.52 55.9082 15.589 55.4042 15.589C55.2122 15.589 55.0232 15.58 54.8372 15.562C54.6572 15.538 54.4802 15.508 54.3062 15.472C54.1322 15.574 54.0032 15.682 53.9192 15.796C53.8352 15.91 53.7932 16.027 53.7932 16.147C53.7932 16.345 53.8802 16.492 54.0542 16.588C54.2282 16.684 54.4562 16.753 54.7382 16.795C55.0262 16.837 55.3532 16.864 55.7192 16.876C56.0852 16.888 56.4572 16.909 56.8352 16.939C57.2132 16.969 57.5852 17.02 57.9512 17.092C58.3172 17.158 58.6412 17.272 58.9232 17.434C59.2112 17.59 59.4422 17.803 59.6162 18.073C59.7902 18.343 59.8772 18.694 59.8772 19.126C59.8772 19.522 59.7782 19.909 59.5802 20.287C59.3822 20.665 59.0942 21.001 58.7162 21.295C58.3442 21.589 57.8882 21.823 57.3482 21.997C56.8082 22.177 56.1932 22.267 55.5032 22.267C54.8192 22.267 54.2222 22.201 53.7122 22.069C53.2082 21.937 52.7852 21.757 52.4432 21.529C52.1072 21.307 51.8552 21.049 51.6872 20.755C51.5252 20.461 51.4442 20.155 51.4442 19.837C51.4442 19.405 51.5792 19.036 51.8492 18.73C52.1252 18.424 52.4972 18.184 52.9652 18.01C52.7132 17.89 52.5092 17.725 52.3532 17.515C52.2032 17.305 52.1282 17.029 52.1282 16.687C52.1282 16.417 52.2272 16.135 52.4252 15.841C52.6232 15.547 52.9202 15.298 53.3162 15.094C52.8602 14.842 52.5002 14.509 52.2362 14.095C51.9722 13.675 51.8402 13.186 51.8402 12.628C51.8402 12.172 51.9272 11.761 52.1012 11.395C52.2812 11.029 52.5302 10.717 52.8482 10.459C53.1662 10.201 53.5412 10.003 53.9732 9.865C54.4112 9.727 54.8882 9.658 55.4042 9.658C56.1962 9.658 56.8862 9.823 57.4742 10.153H60.0392ZM65.3785 9.676C66.0565 9.676 66.6685 9.787 67.2145 10.009C67.7665 10.231 68.2345 10.546 68.6185 10.954C69.0085 11.362 69.3085 11.857 69.5185 12.439C69.7285 13.021 69.8335 13.675 69.8335 14.401C69.8335 15.127 69.7285 15.781 69.5185 16.363C69.3085 16.945 69.0085 17.443 68.6185 17.857C68.2345 18.265 67.7665 18.58 67.2145 18.802C66.6685 19.024 66.0565 19.135 65.3785 19.135C64.6945 19.135 64.0765 19.024 63.5245 18.802C62.9785 18.58 62.5105 18.265 62.1205 17.857C61.7305 17.443 61.4305 16.945 61.2205 16.363C61.0105 15.781 60.9055 15.127 60.9055 14.401C60.9055 13.675 61.0105 13.021 61.2205 12.439C61.4305 11.857 61.7305 11.362 62.1205 10.954C62.5105 10.546 62.9785 10.231 63.5245 10.009C64.0765 9.787 64.6945 9.676 65.3785 9.676ZM65.3785 17.623C66.2065 17.623 66.8215 17.347 67.2235 16.795C67.6315 16.237 67.8355 15.442 67.8355 14.41C67.8355 13.378 67.6315 12.583 67.2235 12.025C66.8215 11.461 66.2065 11.179 65.3785 11.179C64.5385 11.179 63.9145 11.461 63.5065 12.025C63.0985 12.583 62.8945 13.378 62.8945 14.41C62.8945 15.442 63.0985 16.237 63.5065 16.795C63.9145 17.347 64.5385 17.623 65.3785 17.623ZM79.4327 9.82V19H78.2627C78.0047 19 77.8397 18.877 77.7677 18.631L77.6237 17.776C77.4317 17.98 77.2277 18.166 77.0117 18.334C76.8017 18.502 76.5767 18.646 76.3367 18.766C76.0967 18.886 75.8387 18.979 75.5627 19.045C75.2927 19.111 75.0017 19.144 74.6897 19.144C74.1857 19.144 73.7417 19.06 73.3577 18.892C72.9737 18.724 72.6497 18.487 72.3857 18.181C72.1277 17.875 71.9327 17.509 71.8007 17.083C71.6687 16.651 71.6027 16.177 71.6027 15.661V9.82H73.5377V15.661C73.5377 16.279 73.6787 16.759 73.9607 17.101C74.2487 17.443 74.6837 17.614 75.2657 17.614C75.6917 17.614 76.0877 17.518 76.4537 17.326C76.8257 17.128 77.1737 16.858 77.4977 16.516V9.82H79.4327ZM84.7255 19.144C83.9635 19.144 83.3755 18.931 82.9615 18.505C82.5535 18.073 82.3495 17.467 82.3495 16.687V11.341H81.3415C81.2335 11.341 81.1405 11.308 81.0625 11.242C80.9845 11.17 80.9455 11.065 80.9455 10.927V10.144L82.4305 9.928L82.8535 7.273C82.8835 7.171 82.9345 7.09 83.0065 7.03C83.0785 6.964 83.1745 6.931 83.2945 6.931H84.2845V9.946H86.8315V11.341H84.2845V16.552C84.2845 16.882 84.3655 17.134 84.5275 17.308C84.6895 17.482 84.9055 17.569 85.1755 17.569C85.3255 17.569 85.4545 17.551 85.5625 17.515C85.6705 17.473 85.7635 17.431 85.8415 17.389C85.9195 17.341 85.9855 17.299 86.0395 17.263C86.0995 17.221 86.1565 17.2 86.2105 17.2C86.3185 17.2 86.4055 17.26 86.4715 17.38L87.0475 18.325C86.7475 18.589 86.3935 18.793 85.9855 18.937C85.5775 19.075 85.1575 19.144 84.7255 19.144Z" fill="#6EA5A5"/>
<path d="M18 21C19.645 21 21 19.645 21 18L21 6C21 4.35498 19.645 3 18 3L9.5 3C8.11199 3 6.87647 3.90975 6.53125 5.25098C6.49855 5.3782 6.49122 5.51061 6.50969 5.64066C6.52817 5.77071 6.57207 5.89584 6.6389 6.00892C6.70574 6.122 6.79419 6.22081 6.89921 6.29971C7.00423 6.37861 7.12376 6.43605 7.25098 6.46875C7.37819 6.50145 7.51061 6.50878 7.64066 6.49031C7.7707 6.47183 7.89584 6.42793 8.00892 6.3611C8.122 6.29426 8.22081 6.20581 8.29971 6.10079C8.37861 5.99577 8.43605 5.87624 8.46875 5.74902C8.56753 5.36525 9.02401 5 9.5 5L18 5C18.564 5 19 5.43602 19 6L19 18C19 18.564 18.564 19 18 19L9.5 19C9.02401 19 8.56753 18.6347 8.46875 18.251C8.43605 18.1238 8.37861 18.0042 8.29971 17.8992C8.22081 17.7942 8.122 17.7057 8.00892 17.6389C7.89584 17.5721 7.77071 17.5282 7.64066 17.5097C7.51061 17.4912 7.37819 17.4985 7.25098 17.5313C7.12376 17.564 7.00423 17.6214 6.89921 17.7003C6.79419 17.7792 6.70574 17.878 6.6389 17.9911C6.57207 18.1042 6.52817 18.2293 6.50969 18.3593C6.49122 18.4894 6.49855 18.6218 6.53125 18.749C6.87647 20.0903 8.11199 21 9.5 21L18 21ZM7.01074 16.0098C7.20959 16.0095 7.40385 15.95 7.56871 15.8388C7.73357 15.7276 7.86155 15.5698 7.93628 15.3855C8.01102 15.2013 8.02912 14.9989 7.98829 14.8043C7.94745 14.6097 7.84953 14.4317 7.70703 14.293L6.41406 13L15.5 13C15.6325 13.0019 15.7641 12.9774 15.887 12.928C16.01 12.8786 16.1219 12.8052 16.2163 12.7122C16.3107 12.6191 16.3856 12.5082 16.4368 12.386C16.4879 12.2637 16.5142 12.1325 16.5142 12C16.5142 11.8675 16.4879 11.7363 16.4368 11.614C16.3856 11.4918 16.3107 11.3809 16.2163 11.2878C16.1219 11.1948 16.01 11.1214 15.887 11.072C15.7641 11.0226 15.6325 10.9981 15.5 11L6.41406 11L7.70703 9.70703C7.80301 9.61489 7.87963 9.50452 7.93241 9.38239C7.9852 9.26026 8.01309 9.12883 8.01444 8.99579C8.01579 8.86274 7.99059 8.73077 7.9403 8.60759C7.89001 8.48442 7.81565 8.37251 7.72157 8.27843C7.62749 8.18435 7.51558 8.10999 7.39241 8.0597C7.26923 8.00941 7.13726 7.9842 7.00421 7.98556C6.87117 7.98691 6.73974 8.0148 6.61761 8.06759C6.49548 8.12037 6.38511 8.197 6.29297 8.29297L3.29297 11.293C3.1055 11.4805 3.00019 11.7348 3.00019 12C3.00019 12.2652 3.1055 12.5195 3.29297 12.707L6.29297 15.707C6.38627 15.8029 6.49788 15.8792 6.62117 15.9312C6.74446 15.9832 6.87693 16.0099 7.01074 16.0098Z" fill="#6EA5A5"/>
</svg>
