<svg width="28" height="28" viewBox="0 0 28 28" fill="none" xmlns="http://www.w3.org/2000/svg">
<path d="M13.7891 22.5789C8.94279 22.5789 5 18.6361 5 13.7898C5 8.94277 8.94279 5 13.7891 5C18.6361 5 22.5789 8.94277 22.5789 13.7898C22.5789 18.6361 18.6361 22.5789 13.7891 22.5789Z" fill="#FF9D46"/>
<path d="M13.6537 1.91637C7.18154 1.91637 1.91483 7.18154 1.91483 13.6545C1.91483 20.1267 7.18154 25.3926 13.6537 25.3926C20.1267 25.3926 25.3926 20.1267 25.3926 13.6545C25.3926 7.18154 20.1267 1.91637 13.6537 1.91637ZM13.6537 27.3082C6.12514 27.3082 0 21.1831 0 13.6545C0 6.12514 6.12514 0 13.6537 0C21.1831 0 27.3082 6.12514 27.3082 13.6545C27.3082 21.1831 21.1831 27.3082 13.6537 27.3082Z" fill="#FF9D46"/>
</svg>
