<svg width="18" height="23" viewBox="0 0 18 23" fill="none" xmlns="http://www.w3.org/2000/svg">
<path d="M9 0C5.90339 0 3.375 2.58458 3.375 5.75C3.375 8.91542 5.90339 11.5 9 11.5C12.0966 11.5 14.625 8.91542 14.625 5.75C14.625 2.58458 12.0966 0 9 0ZM2.53125 13.8C1.14328 13.8 0 14.9687 0 16.3875V17.0771C0 18.768 1.0489 20.2848 2.6488 21.3278C4.24871 22.3707 6.43772 23 9 23C11.5623 23 13.7513 22.3707 15.3512 21.3278C16.9511 20.2848 18 18.768 18 17.0771V16.3875C18 14.9687 16.8567 13.8 15.4688 13.8H2.53125Z" fill="#074343"/>
</svg>
