<svg width="25" height="26" viewBox="0 0 25 26" fill="none" xmlns="http://www.w3.org/2000/svg">
<path d="M9.27332 2.16138C8.94415 2.15037 8.60271 2.19965 8.25709 2.34863C7.33539 2.74553 6.91922 3.61717 6.59591 4.34391C6.2726 5.07066 5.99302 5.73248 5.75261 5.98267H5.75159C5.48632 6.25888 4.84893 6.55606 4.15552 6.8925C3.46212 7.22894 2.63458 7.64364 2.25835 8.58838C1.88226 9.53319 2.18597 10.4357 2.44756 11.1835C2.70914 11.9313 2.95736 12.6096 2.9572 13C2.95705 13.3539 2.706 14.0277 2.44044 14.7795C2.17487 15.5312 1.87634 16.4542 2.25835 17.4127C2.63997 18.3712 3.47809 18.8041 4.17689 19.1403C4.87568 19.4765 5.51103 19.7673 5.75159 20.0173V20.0184H5.75261C6.0182 20.2943 6.30293 20.9572 6.62643 21.6783C6.94993 22.3995 7.34868 23.2601 8.25709 23.6514C9.16556 24.0425 10.0333 23.7266 10.7524 23.4546C11.4715 23.1825 12.1246 22.9244 12.5 22.9246C12.8403 22.9247 13.4883 23.1858 14.2111 23.462C14.9339 23.7382 15.8203 24.0487 16.742 23.6514C17.6637 23.2545 18.0799 22.3828 18.4032 21.6561C18.7265 20.9293 19.0071 20.2686 19.2475 20.0184V20.0173C19.5128 19.7411 20.1501 19.445 20.8436 19.1086C21.537 18.7721 22.3655 18.3574 22.7417 17.4127C23.1178 16.4679 22.8141 15.5654 22.5525 14.8175C22.291 14.0697 22.0417 13.3904 22.0419 13C22.042 12.6461 22.2941 11.9723 22.5597 11.2205C22.8252 10.4688 23.1238 9.5469 22.7417 8.58838C22.3601 7.62982 21.522 7.197 20.8232 6.86076C20.1244 6.52452 19.488 6.2327 19.2475 5.98267C18.9819 5.70678 18.6961 5.0439 18.3726 4.32275C18.0491 3.60161 17.6504 2.73992 16.742 2.34863C15.8335 1.9575 14.9657 2.27336 14.2467 2.54541C13.5276 2.81746 12.8755 3.07666 12.5 3.0765C12.1598 3.07635 11.5118 2.8142 10.789 2.53801C10.4276 2.39991 10.0252 2.25348 9.59783 2.191C9.49099 2.17538 9.38305 2.16505 9.27332 2.16138ZM9.09734 3.79907C9.37639 3.78481 9.76523 3.87837 10.2499 4.06356C10.8961 4.31048 11.6226 4.70111 12.499 4.7015C13.3846 4.70188 14.13 4.31821 14.7807 4.07202C15.431 3.82601 15.9048 3.74733 16.1438 3.84985C16.3823 3.95257 16.6639 4.3567 16.9566 5.00936C17.2493 5.6618 17.5166 6.48079 18.1427 7.13159C18.7626 7.77585 19.5423 8.03491 20.1671 8.33553C20.7919 8.63616 21.1856 8.92646 21.2983 9.20939V9.21045C21.411 9.49343 21.3302 9.98883 21.0928 10.6609C20.8554 11.3329 20.4798 12.0885 20.4794 13C20.479 13.921 20.8479 14.6962 21.0846 15.373C21.3214 16.0497 21.3972 16.5421 21.2983 16.7906C21.1995 17.0386 20.8109 17.3314 20.1834 17.6359C19.556 17.9403 18.7685 18.2183 18.1427 18.8695C17.5233 19.5141 17.2742 20.324 16.9851 20.9737C16.6961 21.6235 16.4169 22.033 16.1449 22.1501H16.1438C15.8718 22.2674 15.3954 22.1844 14.7492 21.9375C14.103 21.6906 13.3765 21.3 12.5 21.2996C11.6145 21.2992 10.8691 21.6818 10.2184 21.928C9.56763 22.1742 9.09416 22.253 8.85523 22.1501C8.61677 22.0474 8.33522 21.6433 8.04245 20.9906C7.74967 20.338 7.48293 19.5193 6.85633 18.8684C6.23647 18.2241 5.45779 17.9662 4.83301 17.6655C4.20824 17.3649 3.81447 17.0735 3.70183 16.7906C3.58905 16.5076 3.66887 16.0122 3.9063 15.3402C4.14372 14.6681 4.51933 13.9125 4.5197 13.0011C4.52007 12.0801 4.15217 11.3048 3.91545 10.6281C3.6789 9.95183 3.60325 9.4591 3.70183 9.21045C3.8006 8.96244 4.18918 8.66964 4.81674 8.36515C5.44429 8.06067 6.23148 7.78326 6.85735 7.13159C7.47683 6.48694 7.7249 5.67605 8.01396 5.02629C8.30303 4.37652 8.58318 3.967 8.85523 3.84985C8.92326 3.82053 9.00432 3.80383 9.09734 3.79907ZM16.391 8.11759C16.1881 8.12374 15.9955 8.21177 15.8539 8.36304L8.04143 16.488C7.96645 16.5629 7.90659 16.6526 7.86536 16.7518C7.82412 16.851 7.80233 16.9578 7.80128 17.0659C7.80022 17.174 7.81991 17.2812 7.8592 17.3813C7.89849 17.4814 7.95658 17.5723 8.03008 17.6488C8.10358 17.7252 8.19101 17.7856 8.28724 17.8265C8.38347 17.8673 8.48657 17.8878 8.59051 17.8867C8.69445 17.8856 8.79713 17.863 8.89254 17.8201C8.98795 17.7772 9.07418 17.7149 9.14617 17.637L16.9587 9.51196C17.0714 9.3978 17.1483 9.25092 17.1794 9.09053C17.2105 8.93014 17.1944 8.76371 17.133 8.61304C17.0717 8.46237 16.9681 8.33446 16.8357 8.24606C16.7033 8.15766 16.5483 8.11288 16.391 8.11759ZM9.63546 8.125C9.152 8.125 8.68833 8.32474 8.34647 8.68028C8.0046 9.03582 7.81255 9.51803 7.81255 10.0208C7.81255 10.5236 8.0046 11.0059 8.34647 11.3614C8.68833 11.7169 9.152 11.9167 9.63546 11.9167C10.1189 11.9167 10.5826 11.7169 10.9245 11.3614C11.2663 11.0059 11.4584 10.5236 11.4584 10.0208C11.4584 9.51803 11.2663 9.03582 10.9245 8.68028C10.5826 8.32474 10.1189 8.125 9.63546 8.125ZM15.3646 14.0833C14.8812 14.0833 14.4175 14.2831 14.0756 14.6386C13.7338 14.9941 13.5417 15.4764 13.5417 15.9792C13.5417 16.482 13.7338 16.9642 14.0756 17.3197C14.4175 17.6753 14.8812 17.875 15.3646 17.875C15.8481 17.875 16.3118 17.6753 16.6536 17.3197C16.9955 16.9642 17.1875 16.482 17.1875 15.9792C17.1875 15.4764 16.9955 14.9941 16.6536 14.6386C16.3118 14.2831 15.8481 14.0833 15.3646 14.0833Z" fill="#78DDB1"/>
</svg>
