<svg width="21" height="19" viewBox="0 0 21 19" fill="none" xmlns="http://www.w3.org/2000/svg">
<path d="M14.5762 0.000785592C14.183 0.0107648 13.7923 0.119075 13.446 0.271375C12.7536 0.575974 12.0883 1.07389 11.3922 1.72503C11.0614 2.03444 10.7248 2.38174 10.3861 2.75957C9.63559 1.91819 8.89742 1.23791 8.17871 0.751518C7.69756 0.425897 7.22444 0.180405 6.7037 0.0618207C6.44332 0.00252861 6.15618 -0.0184652 5.87057 0.0180789C5.58495 0.0546232 5.30084 0.147945 5.04659 0.317151C4.3292 0.794541 4.0993 1.59807 4.0507 2.3659C4.0021 3.13373 4.12218 3.98283 4.35893 4.93141C4.43117 5.22085 4.5185 5.52234 4.61324 5.82863C3.59101 6.07818 2.68916 6.39617 1.94804 6.79705C0.905489 7.36097 0 8.17626 0 9.3707C0 10.2173 0.503991 10.9104 1.11491 11.4001C1.72583 11.8898 2.4965 12.2583 3.40678 12.5669C3.78468 12.695 4.19211 12.8092 4.61629 12.9138C4.32778 13.8406 4.13278 14.7037 4.06596 15.4732C4.01629 16.0452 4.02785 16.5725 4.15446 17.0754C4.28107 17.5782 4.55252 18.0956 5.04659 18.4242C5.76413 18.9014 6.63179 18.7756 7.32422 18.471C8.01665 18.1664 8.68193 17.6675 9.37805 17.0164C9.70916 16.7067 10.0461 16.359 10.3851 15.9808C11.1356 16.8225 11.8727 17.5034 12.5916 17.9899C13.0727 18.3155 13.5458 18.561 14.0666 18.6796C14.5873 18.7982 15.2152 18.7627 15.7237 18.4242C16.4413 17.947 16.671 17.1433 16.7196 16.3755C16.7682 15.6077 16.6481 14.7586 16.4113 13.81C16.3381 13.5167 16.2492 13.2111 16.153 12.9006C17.2145 12.6441 18.1404 12.3156 18.8995 11.9016C19.9175 11.3466 20.8059 10.5468 20.8059 9.3707C20.8059 8.51286 20.2856 7.82027 19.6615 7.33314C19.0373 6.84602 18.2492 6.4789 17.3177 6.17144C16.9522 6.05081 16.5581 5.94363 16.1499 5.84388C16.441 4.91117 16.6371 4.04324 16.7043 3.26922C16.7539 2.69719 16.7424 2.16989 16.6158 1.66705C16.4892 1.1642 16.2188 0.645799 15.7247 0.317151C15.3659 0.0785504 14.9695 -0.00919363 14.5762 0.000785592ZM14.564 2.0831C14.5733 2.10513 14.5811 2.1182 14.5955 2.17567C14.6391 2.34885 14.6653 2.6722 14.6291 3.08916C14.5756 3.70614 14.3939 4.52443 14.092 5.45326C13.1414 5.32207 12.122 5.24271 11.0575 5.21624C11.6695 4.42988 12.2682 3.75862 12.8153 3.24684C13.4029 2.69726 13.9379 2.33051 14.2853 2.17771C14.4461 2.10695 14.5221 2.0907 14.564 2.0831ZM6.20626 2.08615C6.22081 2.08898 6.21402 2.08716 6.24085 2.09327C6.38638 2.12641 6.67094 2.24602 7.01192 2.47678C7.57603 2.85854 8.29468 3.53467 9.0505 4.40854C8.45234 5.2148 7.86084 6.10763 7.28963 7.07273C6.88358 6.10646 6.57451 5.20534 6.38021 4.42685C6.17718 3.61338 6.10263 2.92994 6.12996 2.49814C6.14465 2.26607 6.18342 2.14524 6.20626 2.08615ZM10.2966 7.28737C10.5984 7.28737 10.8966 7.293 11.1908 7.30262C11.2073 7.33614 11.2257 7.36874 11.2457 7.40028C11.4377 7.70482 11.6277 8.02057 11.8164 8.34429C12.0149 8.68557 12.2013 9.02478 12.381 9.36256C12.1982 9.70671 12.0188 10.0503 11.8164 10.3981H11.8154C11.6093 10.7524 11.3985 11.0925 11.1867 11.4255C10.8787 11.4366 10.5758 11.454 10.259 11.454C10.0297 11.454 9.80435 11.4477 9.57947 11.4418C9.56335 11.4073 9.54535 11.3737 9.52555 11.3411C9.33373 11.0368 9.14238 10.7216 8.95386 10.3981V10.3971C8.75536 10.0558 8.56898 9.71663 8.38928 9.37884C8.57235 9.03485 8.75258 8.69153 8.95487 8.34429C9.16344 7.9857 9.37627 7.64143 9.59066 7.30466C9.82592 7.29851 10.0564 7.28737 10.2966 7.28737ZM13.739 7.5132C14.8605 7.66488 15.8592 7.88416 16.6646 8.15C17.4464 8.40803 18.0458 8.71436 18.3797 8.97499C18.7137 9.23562 18.7225 9.36552 18.7225 9.3707C18.7225 9.37744 18.6146 9.68443 17.9026 10.0726C17.33 10.3848 16.467 10.6858 15.4297 10.924C14.9733 9.82953 14.4061 8.67949 13.739 7.5132ZM5.33244 7.79904C5.79225 8.90422 6.36552 10.066 7.04041 11.2445C5.90074 11.093 4.88623 10.8691 4.07613 10.5945C3.31844 10.3376 2.7399 10.0326 2.41801 9.77455C2.09611 9.51651 2.08333 9.38715 2.08333 9.3707C2.08333 9.34743 2.20535 9.02587 2.93884 8.62912C3.50328 8.32381 4.33398 8.03013 5.33244 7.79904ZM10.3892 8.32903C10.1129 8.32903 9.84798 8.43878 9.65263 8.63413C9.45728 8.82948 9.34754 9.09443 9.34754 9.3707C9.34754 9.64697 9.45728 9.91192 9.65263 10.1073C9.84798 10.3026 10.1129 10.4124 10.3892 10.4124C10.6655 10.4124 10.9304 10.3026 11.1258 10.1073C11.3211 9.91192 11.4309 9.64697 11.4309 9.3707C11.4309 9.09443 11.3211 8.82948 11.1258 8.63413C10.9304 8.43878 10.6655 8.32903 10.3892 8.32903ZM13.4816 11.6707C13.8871 12.6359 14.1959 13.5368 14.3901 14.3145C14.5931 15.1281 14.6676 15.8125 14.6403 16.2443C14.6256 16.4763 14.5869 16.5967 14.564 16.6552C14.5496 16.6524 14.5559 16.6542 14.5294 16.6481C14.3839 16.615 14.1003 16.4954 13.7594 16.2646C13.1955 15.883 12.4765 15.2072 11.7208 14.3339C12.3189 13.5281 12.9106 12.6354 13.4816 11.6707ZM6.67521 13.3024C7.62712 13.4323 8.64685 13.5082 9.71171 13.5282C9.1002 14.3138 8.50163 14.9842 7.95492 15.4956C7.36737 16.0452 6.83235 16.4109 6.48499 16.5637C6.32417 16.6344 6.24893 16.6505 6.20728 16.6583C6.19803 16.6362 6.19006 16.6236 6.17574 16.5667C6.13215 16.3936 6.10597 16.0702 6.14217 15.6533C6.19547 15.0394 6.376 14.2255 6.67521 13.3024Z" fill="#78DDB1"/>
</svg>
