<svg width="102" height="102" viewBox="0 0 102 102" fill="none" xmlns="http://www.w3.org/2000/svg">
<path d="M56.8587 15.8382C65.4516 17.2622 73.1777 23.1512 76.8287 31.0592C78.4337 34.5354 79.2846 38.4504 78.6523 42.227C78.0203 46.0036 75.7639 49.6014 72.3437 51.3226C69.4465 52.7807 66.0417 52.8011 62.8178 52.4494C52.9227 51.3692 43.4169 46.9845 36.1722 40.1585C33.8832 38.0017 31.758 35.5082 30.8673 32.4923C28.044 22.9298 41.256 16.8836 48.7428 15.7834C51.4298 15.3885 54.1779 15.3941 56.8587 15.8382Z" fill="#3F7C77"/>
<path d="M52.5328 11.7817C44.0573 11.7817 35.512 15.4531 29.9936 21.7789C23.5813 29.1294 21.2513 39.1711 19.1959 48.0308C18.9494 49.0931 18.6945 50.1915 18.8119 51.2663C18.9187 52.2428 19.3324 53.1807 19.7324 54.0877L23.347 62.2838C24.6264 65.185 25.9833 67.8856 28.5022 69.0525C29.5917 69.5567 30.7934 69.7164 32.0658 69.8886C33.5196 70.0828 35.0228 70.2832 36.3313 71.0474C37.6535 71.8209 38.6485 73.0799 39.2892 74.7898C39.8022 76.1584 40.08 77.7869 40.1145 79.6253L40.1148 79.6347C40.1148 80.1827 40.1041 80.7371 40.0938 81.2945C40.0615 83.0013 40.028 84.7645 40.3158 86.44C40.6885 88.6134 41.0471 88.9391 43.0555 88.9454C46.5082 88.9579 50.0218 88.9235 53.4194 88.8922C55.1469 88.8765 56.874 88.8577 58.6012 88.8483C60.9303 88.8326 63.2418 88.5978 64.3749 86.9912C65.3702 85.5819 65.0545 83.7717 64.7207 81.8551C64.597 81.1473 64.4692 80.4145 64.4144 79.7036C64.1118 75.7889 66.2057 72.2218 68.0156 69.9199C69.1897 68.4261 70.5297 67.0453 71.826 65.7115C72.9052 64.6004 74.0216 63.4513 75.0266 62.25C81.7815 54.1766 84.0473 42.5506 80.7997 32.6307C77.5089 22.5784 68.7581 14.6429 58.5063 12.414C56.5468 11.9881 54.5415 11.7817 52.5328 11.7817ZM44.4153 89.7314C43.9602 89.7314 43.5065 89.7314 43.053 89.7283C40.5138 89.7221 39.9497 88.9329 39.5442 86.5747C39.2438 84.824 39.2779 83.0201 39.3108 81.2788C39.3212 80.7277 39.3315 80.1796 39.3318 79.6378C39.2889 77.3955 38.7906 73.3899 35.9367 71.7238C34.7635 71.038 33.4028 70.8563 31.9619 70.6653C30.6879 70.4931 29.3703 70.3177 28.1731 69.7634C25.4068 68.4825 23.9728 65.6432 22.6305 62.5998L19.0158 54.4037C18.5918 53.4422 18.1533 52.4479 18.0337 51.3511C17.9015 50.1442 18.184 48.9275 18.433 47.8539C20.5093 38.9049 22.8629 28.7621 29.4035 21.2643C36.4118 13.2304 48.174 9.3665 58.6729 11.6489C69.1906 13.9357 78.1681 22.0761 81.5438 32.3871C84.8738 42.5578 82.5513 54.4766 75.6273 62.7523C74.6032 63.9762 73.4767 65.1356 72.3875 66.2571C71.1054 67.5765 69.78 68.9397 68.6313 70.4023C66.9076 72.5976 64.912 75.9799 65.1948 79.6441C65.2468 80.3143 65.3714 81.0314 65.4917 81.7204C65.8387 83.7091 66.1973 85.7667 65.0147 87.4422C63.6775 89.34 61.1445 89.6156 58.6062 89.6312C56.88 89.6406 55.1531 89.6594 53.4266 89.6751C50.4724 89.7033 47.4305 89.7314 44.4153 89.7314Z" fill="#FFF8E1"/>
<path d="M53 45.5C60.456 45.5 66.5 39.456 66.5 32.0002C66.5 24.5443 60.4559 18.5 53 18.5C45.544 18.5 39.5 24.5443 39.5 32.0002C39.5 39.456 45.544 45.5 53 45.5Z" stroke="#FFF8E1"/>
<path d="M54.1306 38.0366C53.6797 38.0386 53.2425 37.8823 52.895 37.595L46.2527 31.8833C46.109 31.7583 46.0194 31.5824 46.0028 31.3927C45.9862 31.2029 46.0438 31.0141 46.1635 30.866L47.7058 28.9782C47.7676 28.9024 47.8441 28.8397 47.9306 28.794C48.0171 28.7483 48.1119 28.7204 48.2095 28.7119C48.307 28.7035 48.4052 28.7148 48.4982 28.745C48.5913 28.7753 48.6774 28.8239 48.7513 28.888L53.9356 33.389L65.4543 21.133C65.5839 20.9903 65.7647 20.9046 65.9572 20.8946C66.1498 20.8845 66.3385 20.9509 66.4823 21.0793L68.2994 22.7103C68.3711 22.7746 68.4294 22.8525 68.471 22.9394C68.5125 23.0263 68.5364 23.1206 68.5414 23.2168C68.5464 23.313 68.5323 23.4093 68.5 23.5C68.4677 23.5907 68.4177 23.6742 68.353 23.7456L55.5832 37.3898C55.3993 37.5927 55.1752 37.7551 54.9251 37.8664C54.675 37.9778 54.4044 38.0358 54.1306 38.0366Z" fill="#FF9D46"/>
</svg>
