<svg width="48" height="48" viewBox="0 0 48 48" fill="none" xmlns="http://www.w3.org/2000/svg">
<path d="M24 42C33.9411 42 42 33.9411 42 24C42 14.0589 33.9411 6 24 6C14.0589 6 6 14.0589 6 24C6 33.9411 14.0589 42 24 42Z" fill="url(#paint0_radial)"/>
<path d="M19.17 34.252C19.17 34.252 20.286 35 24 35C27.44 35 28.827 34.252 28.827 34.252C28.827 34.252 27.964 32.767 24 32.767C20.036 32.767 19.17 34.252 19.17 34.252Z" fill="url(#paint1_radial)"/>
<path d="M24 34C27.392 34 28.31 34.609 28.31 34.609C28.31 34.609 27.43 36 24 36C20.57 36 19.69 34.609 19.69 34.609C19.69 34.609 20.608 34 24 34Z" fill="url(#paint2_radial)"/>
<path d="M28.701 34.195C29.202 34.471 29.696 33.837 29.309 33.416C28.185 32.194 26.458 31 24 31C21.542 31 19.815 32.194 18.691 33.416C18.304 33.837 18.798 34.471 19.299 34.195C20.45 33.559 22.024 33 24 33C25.976 33 27.55 33.559 28.701 34.195Z" fill="url(#paint3_radial)"/>
<path d="M36.045 20.707C35.65 20.01 35.112 19.31 34.536 18.712C33.953 18.108 33.298 17.586 32.597 17.165C31.901 16.735 31.147 16.424 30.369 16.243C29.599 16.026 28.792 16.011 28.001 16.016H27.924C27.362 16.02 26.903 15.567 26.899 15.004C26.895 14.441 27.348 13.983 27.911 13.979C27.941 13.979 27.972 13.98 28.001 13.982C28.981 14.063 29.964 14.191 30.885 14.543C31.812 14.858 32.681 15.325 33.446 15.906C34.218 16.478 34.901 17.147 35.485 17.883C36.069 18.629 36.559 19.397 36.956 20.291C37.068 20.543 36.954 20.838 36.702 20.95C36.466 21.055 36.192 20.962 36.066 20.742L36.045 20.707Z" fill="#805B2A"/>
<path d="M11.045 20.2931C11.442 19.3991 11.932 18.6311 12.516 17.8851C13.1 17.1491 13.784 16.4801 14.555 15.9081C15.32 15.3271 16.189 14.8601 17.116 14.5451C18.037 14.1931 19.02 14.0641 20 13.9841C20.56 13.9381 21.052 14.3551 21.098 14.9151C21.144 15.4751 20.727 15.9671 20.167 16.0131C20.137 16.0151 20.108 16.0171 20.079 16.0161H20C19.209 16.0111 18.402 16.0261 17.632 16.2431C16.854 16.4231 16.1 16.7351 15.404 17.1651C14.703 17.5851 14.048 18.1081 13.465 18.7121C12.889 19.3101 12.351 20.0101 11.956 20.7071L11.936 20.7421C11.8 20.9821 11.495 21.0661 11.256 20.9301C11.03 20.8021 10.943 20.5251 11.045 20.2931Z" fill="#805B2A"/>
<path d="M13 24C13 21.791 14.791 20 17 20C19.209 20 21 21.791 21 24C21 24 19.209 25 17 25C14.791 25 13 24 13 24Z" fill="white"/>
<path d="M18.844 24.776C18.944 24.537 19 24.275 19 24C19 22.895 18.105 22 17 22C15.895 22 15 22.895 15 24C15 24.275 15.056 24.537 15.156 24.776C15.71 24.904 16.331 25 17 25C17.669 25 18.29 24.904 18.844 24.776Z" fill="#212121"/>
<path d="M35 24C35 21.791 33.209 20 31 20C28.791 20 27 21.791 27 24C27 24 28.791 25 31 25C33.209 25 35 24 35 24Z" fill="white"/>
<path d="M29.156 24.776C29.056 24.537 29 24.275 29 24C29 22.895 29.895 22 31 22C32.105 22 33 22.895 33 24C33 24.275 32.944 24.537 32.844 24.776C32.29 24.904 31.669 25 31 25C30.331 25 29.71 24.904 29.156 24.776Z" fill="#212121"/>
<path d="M37 29.5C37 30.881 35.881 32 34.5 32C33.119 32 32 30.881 32 29.5C32 27.5 34 24 34.5 24C35 24 37 27.5 37 29.5Z" fill="url(#paint4_radial)"/>
<defs>
<radialGradient id="paint0_radial" cx="0" cy="0" r="1" gradientUnits="userSpaceOnUse" gradientTransform="translate(24 24) rotate(180) scale(18)">
<stop stop-color="#FFE16E"/>
<stop offset="0.629" stop-color="#FFD426"/>
<stop offset="0.72" stop-color="#FDCD23"/>
<stop offset="0.854" stop-color="#F8B919"/>
<stop offset="1" stop-color="#F09C0C"/>
</radialGradient>
<radialGradient id="paint1_radial" cx="0" cy="0" r="1" gradientUnits="userSpaceOnUse" gradientTransform="translate(23.9988 31.7121) rotate(89.194) scale(3.71219 10.9644)">
<stop offset="0.629" stop-color="#FFE16E"/>
<stop offset="0.871" stop-color="#FFE16E" stop-opacity="0"/>
</radialGradient>
<radialGradient id="paint2_radial" cx="0" cy="0" r="1" gradientUnits="userSpaceOnUse" gradientTransform="translate(24.0088 32.784) rotate(180) scale(5.11519 3.1254)">
<stop offset="0.284" stop-color="#CC9000"/>
<stop offset="1" stop-color="#CC9000" stop-opacity="0"/>
</radialGradient>
<radialGradient id="paint3_radial" cx="0" cy="0" r="1" gradientUnits="userSpaceOnUse" gradientTransform="translate(23.986 33.5551) scale(5.4789 2.93826)">
<stop stop-color="#1C1911"/>
<stop offset="0.999" stop-color="#171714"/>
</radialGradient>
<radialGradient id="paint4_radial" cx="0" cy="0" r="1" gradientUnits="userSpaceOnUse" gradientTransform="translate(34.5458 28.7134) rotate(-90) scale(3.49486 2.88841)">
<stop stop-color="#B3F1FF"/>
<stop offset="0.166" stop-color="#9EE4FC"/>
<stop offset="0.509" stop-color="#68C2F3"/>
<stop offset="0.996" stop-color="#118CE6"/>
<stop offset="1" stop-color="#108CE6"/>
</radialGradient>
</defs>
</svg>
