<svg width="17" height="17" viewBox="0 0 17 17" fill="none" xmlns="http://www.w3.org/2000/svg">
<path d="M8.33333 0C3.7375 0 0 3.7375 0 8.33333C0 9.6625 0.320833 10.975 0.929167 12.1542L0.0375001 15.3458C-0.0624999 15.7083 0.0416667 16.0958 0.304167 16.3625C0.504167 16.5583 0.770833 16.6667 1.04167 16.6667C1.1375 16.6667 1.22917 16.6542 1.32083 16.6292L4.5125 15.7375C5.69167 16.3458 7.00833 16.6667 8.33333 16.6667C12.9292 16.6667 16.6667 12.9292 16.6667 8.33333C16.6667 3.7375 12.9292 0 8.33333 0ZM12.65 11.4042C12.4667 11.9167 11.5667 12.4125 11.1625 12.45C10.7583 12.4875 10.3792 12.6333 8.52083 11.9C6.27917 11.0167 4.8625 8.72083 4.75417 8.57083C4.64167 8.425 3.85417 7.37917 3.85417 6.29167C3.85417 5.20833 4.425 4.675 4.625 4.45417C4.82917 4.23333 5.06667 4.17917 5.2125 4.17917C5.3625 4.17917 5.50833 4.17917 5.6375 4.18333C5.79167 4.19167 5.96667 4.2 6.13333 4.56667C6.32917 5 6.75833 6.09167 6.8125 6.20417C6.86667 6.3125 6.90417 6.44167 6.82917 6.5875C6.75833 6.73333 6.72083 6.825 6.60833 6.95417C6.5 7.08333 6.37917 7.24167 6.27917 7.34167C6.17083 7.45 6.05417 7.57083 6.18333 7.79167C6.3125 8.0125 6.75417 8.73333 7.40833 9.31667C8.25 10.0667 8.95833 10.3 9.17917 10.4125C9.4 10.5208 9.52917 10.5042 9.65833 10.3542C9.7875 10.2083 10.2083 9.7125 10.3583 9.49167C10.5042 9.27083 10.65 9.30833 10.8542 9.38333C11.0542 9.45417 12.1375 9.9875 12.3583 10.1C12.5792 10.2083 12.725 10.2625 12.7792 10.3542C12.8333 10.4458 12.8333 10.8875 12.65 11.4042Z" fill="#F2994A"/>
</svg>
